<svg xmlns="http://www.w3.org/2000/svg" viewBox="0 0 175.55 177.62"><defs><style>.cls-1{fill:#FFA500;}.cls-2{fill:#FF8C00;}</style></defs><g id="Calque_2" data-name="Calque 2"><g id="Calque_1-2" data-name="Calque 1"><path class="cls-1" d="M1.07,73.79l.09-3C3.43,65.56,3.85,59.62,7,54.69c5.19,4.16,5.07,4,10-.8,3.35-3.29,7.69-5.31,12-6.76,14-4.62,26.7-1.36,38,7.48,4.59,3.6,9.18,5.73,15,5.22a81,81,0,0,1,10,0,25.88,25.88,0,0,0,14.67-4c12.62-7.64,25.65-6.61,38.71-1.24,4.77,2,9.58,3.8,14.3,5.88,3.47,1.53,6.91,1.78,8-3.24a2.46,2.46,0,0,1,1.34-1.41c3.58,4.35,3.78,9.78,4.72,15,2.59,14.21,2.46,28.36-1.37,42.33a93.71,93.71,0,0,1-16.65,32.52c-1,1.31-1.83,2.76-2.74,4.15a69.31,69.31,0,0,1-16,14l-1.93,1.07c-3-.27-4.86,1.95-7.14,3.17-15.05,8.07-30.88,10.59-48,9.35-10.16-.74-19.18-4.74-28.86-6.6C34.92,164.11,22.6,153,13,138.52c-5.28-7.94-8-16.61-9.83-25.75C.33,103.26-.17,93.52.05,83.67.12,80.32.77,77.08,1.07,73.79Z"/><path class="cls-2" d="M169.07,55.78c-.12,8.62-3.63,10.08-12.37,5.88-6.82-3.29-13.54-7.43-21.12-8.34-9.86-1.18-20-2.23-28.73,4.61-4,3.15-8.7,3.92-13.63,3.87-4.67,0-9.35-.28-14,.07s-8.41-1.45-11.83-4.31c-6.08-5.06-12.73-9.11-20.73-10-7.73-.88-15,0-22.17,4.18-3.27,1.93-6.25,3.59-8.53,6.62-1.81,2.41-4.44,1.89-6.9,1.32C6.18,59,7.48,56.45,7,54.69c1.5-5.31,5.29-9.31,7.94-14,2.08-2.62,4.13-5.26,6.07-8v0c2.43-.77,3-3.09,4-5l2-2c3.14-.27,3.71-3.68,6-4.95,1.48-1.54,2.3-3.87,4.9-4.05C40,15.9,41.26,14,43.13,13c13.41-8.35,28-13.06,43.8-13,33.88.15,59.55,15.07,77.15,44,.6,1,1.26,1.94,1.89,2.92C166.28,50.1,169,52.47,169.07,55.78Z"/></g></g></svg>