<svg xmlns="http://www.w3.org/2000/svg" viewBox="0 0 564.92 241.52"><defs><style>.cls-1{fill:#f18978;}.cls-2{fill:#f29681;}.cls-3{fill:#fe9e7f;}.cls-4{fill:#fdb27f;}.cls-5{fill:#fec174;}.cls-6{fill:#feba77;}</style></defs><g id="Calque_2" data-name="Calque 2"><g id="Calque_1-2" data-name="Calque 1"><path class="cls-1" d="M416,26.15a88.14,88.14,0,0,0,45.38-16c2.85-2,6.05-3.51,8.79-5.65,8.33-6.49,16.42-5.56,24.78,0C504.1,10.59,512.2,18,520.67,24.89c12.09,9.9,25.76,17.54,38.46,26.58,1.82,1.29,3.16,3.56,5.79,3.61v23c-4.32,1.11-5.93-.19-5.95-4.8,0-5.41-.43-6-5.66-4.52-5.89,1.62-11.46,1-17.48.4-6.53-.6-12.93-2.8-19.57-2.32A8.72,8.72,0,0,1,509.54,64c-4.77-4.6-10.53-6.53-17-7.41-10.74-1.46-21-4.85-30.95-9.09A15.7,15.7,0,0,1,451.16,39c-.51-1.07-1-2.31-2.25-2.46-7.35-.87-13-6.36-20.47-7.19a54.63,54.63,0,0,0-8.3.08C418.11,29.52,415.11,30.06,416,26.15Z"/><path class="cls-2" d="M462,46.1c8.41,2.35,16.38,6.14,25.08,7.52,2.94.46,5.86,1.28,8.82,1.46,6.4.41,11.14,3.85,15.53,8,2,1.85,3.75,2.91,6.62,1.61,3-1.39,5.58,1.44,8.5,1.87,2.3.34,4.42,1.31,6.71,0a3.1,3.1,0,0,1,3.36,0c5.91,4.55,11.72,1.19,17.56-.07,2-.43,4-2,5.9.33a5.68,5.68,0,0,1,.89,6.43c-1.72,3.85,1.06,4.53,4,4.84v42c-1.71,1.59-3.69,1.34-5.58.62a288.32,288.32,0,0,0-38.19-12,4.35,4.35,0,0,1-2.44-1.6c-.42-2.54-2-3.89-4.39-4.77a31.74,31.74,0,0,0-9.79-1.54c-3.48-.17-6-1.7-7.1-5.18-1.69-5.36-4.21-9.91-9.8-12.35-2.87-1.25-3.18-3.72-.65-6,1.37-1.2,2.3-2.23,1.15-4.18-1-1.71-2.14-1.69-3.73-1s-2.93-.27-3.89-1.46c-4-5-9.43-8.27-14.67-11.76C461.1,55.78,462.39,50.64,462,46.1Z"/><path class="cls-3" d="M518.88,106.1c-11.32-.1-22.65-.26-33.94,1-7.12,3.36-14.74,2.37-22.08,1.78-11.72-.94-23.25-3.53-34.85-5.46-2.29-3.69-6-4.78-10-5.55a12.79,12.79,0,0,1-7.68-5.08c-3.68-4.62-7-9.76-13.87-10.33-1.92-.16-3.11-1.74-3.81-3.56-1.9-4.91-5.61-8.18-10.11-10.48-9-4.6-9.62-5.59-5.43-17,.52-1.41,1.63-2.49,2.38-3.78,3.05-3.87,6.41-7.33,11.44-8.56L393,37.17c6.89-5.27,13.7-10.71,23-11,.45,2,2,2.25,3.49,1.77,8.67-2.87,15.53,1.87,23.17,4.57,5.78,2,10.42,4,13.11,9.76,1.09,2.32,4.3,2.26,6.21,3.85,1.1,2.8,4.07,5,2.35,8.69-.47,1,.26,1.88,1.41,2.2,5.17,1.44,8.19,6.13,12.77,8.5a8,8,0,0,1,2.35,2.5c1.35,1.88,2.27,6.38,4.57.56.13-.33,1.1-.7,1.14-.65a63.1,63.1,0,0,1,5,7.23c.73,1.36-.64,2.35-2,2.9-1.18.47-3,.55-3,2.19,0,2,2.06,2,3.38,2.31,5.65,1.48,7.42,6.63,8.61,10.94s3,5.94,7.07,5.59a21.34,21.34,0,0,1,12,2.72C518.74,102.35,522.7,103.53,518.88,106.1Z"/><path class="cls-4" d="M426.94,102c-5.36-.26-9.67,2.41-14,5-2.6,4-6.35,6.82-10.09,9.56a217.21,217.21,0,0,0-28.42,25.09,113.52,113.52,0,0,1-10.9,9.53c-3.14,1.57-5.13,4.5-7.82,6.59s-5,4.95-8.95,3.32c-.92-2.95,1-4.67,2.87-6.32,1.26-1.08,2.91-1.65,4.18-2.7,1.94-1.59,4.17-3.66,4-6-.14-2.09-3.28-1.45-5.07-1.95-4.52-1.26-6.41-4.19-6.68-8.73-.37-6-.51-6-6.29-6.48-7.83-.67-10.26-3.29-10.32-11.51,0-3-.52-4.16-3.7-2.38-4.25,2.39-6.28,1.92-8.34-2.47s-5.29-7-9.46-9c-4.66-2.26-7.54-6.85-11.94-9.5a231.38,231.38,0,0,1,50.81-27.79c12.07-4.81,23-11.7,34-18.42-2.19,3.33-2.81,7.28-4.21,10.92-1,2.61-.62,4.28,2.22,5.51,5,2.17,10.36,4.58,13,9.46s5.76,7.61,11.35,8.81c3.7.79,6.06,5.16,8.15,8.29,2.19,3.3,4.44,5,8.18,5.42a26.52,26.52,0,0,1,5.74,1.55C427.34,98.53,428.23,99.9,426.94,102Z"/><path class="cls-5" d="M0,182.1c3.07-2.36,6.7-3.45,10.27-4.74,1.84-.66,3.78-1.39,4.84-3.29,7.86,1.37,14.36-3.38,21.56-5,3.63-.81,7.4-1.37,11-2.56,5.16-1.71,10.44-2.83,13.85-7.58.1-.13.24-.31.37-.32,7.74-.65,12.17-7,18.18-10.6a6.81,6.81,0,0,0,4.38-.55c12.48-7.73,26.44-12,40.16-16.64a161.53,161.53,0,0,0,52.1-29.23,39.79,39.79,0,0,1,15.16-8c3.95-1.1,7.57-4.2,10.75-7,12.42-11.12,22-11.38,35.42-2.25,9.49,6.44,20,10.23,30.68,13.63,4.08,1.3,7.55,4.42,12.15,4.14,5.45-1.41,7.19-.61,9,4.61a28.81,28.81,0,0,1,.41,15.76c-.61,2.72-2.13,5.32-4.89,5.86-7,1.37-10.37,7.35-15.23,11.41a12.82,12.82,0,0,0-2.27,2.64c-4,5.81-9.15,9.43-16.44,9.59a4.67,4.67,0,0,0-4.49,2.63c-1.59,3.42-4.59,5.07-7.87,6.51-3.49,1.54-6.9,3.36-10.42,4.75-5.85,2.32-11.92,3.93-18.45,1.91-4.39-1.36-8.92-1.11-12.75,2.13a3.84,3.84,0,0,1-2.18,1.16c-7.86,0-14.21,4.38-21.21,6.92-3.61,1.31-5.17,2.79-5,6.64.47,10.23-2,12.87-12.31,13.55-.67,0-1.5-.16-2,.18-6.2,4.58-14.28,4.67-20.67,8.66a15.67,15.67,0,0,1-9.55,2.12c-5.92-.3-11.47.26-16.62,3.83a9.34,9.34,0,0,1-11.66-.35c-2.6-2-5.75-1.48-8.62-2-5.17-1-10.32-2.67-15.73-1.71-13.5-1.57-26.45-5.57-39.55-8.92A5.69,5.69,0,0,1,29,197.17C18.15,194.39,8.32,189.69,0,182.1Z"/><path class="cls-6" d="M72,207.07c7.86-.7,15.38,2.3,23.19,2.14a1.25,1.25,0,0,1,.92.33c4.93,6.29,9.72,2.8,14.22-.43s9.32-1.77,14-2c4-.2,8.14.69,10.44-3.93a2.61,2.61,0,0,1,2.16-1,16.66,16.66,0,0,0,14-5c1.6-1.58,4.08-1.14,6.24-1.16,8.3-.06,10.56-2.48,9.83-10.47s-.42-8.44,7.41-9.51c1.88-.26,4-.56,4.84-2.18,2.06-3.8,5.32-4.09,8.95-3.83a12,12,0,0,0,9.58-3c4-3.51,9.19-2.56,13.81-1.19,6.59,2,12.33-.17,17.93-2.95,2-1,4.15-1.35,5.95-2.41,3.91-2.3,8.87-2.86,10.54-8.71.9-3.16,5.86-2.38,9-2.59,3.9-.26,6-1.72,8.33-5,2.61-3.65,5.52-7.44,9.42-10A12.75,12.75,0,0,0,277,130a5.26,5.26,0,0,1,5.34-3c3.77.3,5.63-1.87,6.12-5.18.76-5.08,1.06-10.14-.57-15.26-1.2-3.75-3.36-5-7-4.61,5-2.75,9.48-6.43,15.1-8,3.25-.32,5.81.51,7.47,3.67,1.29,2.46,3.8,3.7,6.29,4.7,4.38,1.75,7.46,4.47,9.12,9.15s3,4.75,6.26,1.16c1.39-1.52,2.65-1.73,4.37-.87a3.72,3.72,0,0,1,2.31,4c-.67,10.11,0,11,10.28,11.18,4.27.09,5.88,2,5.93,6.11.1,8.56.94,9.28,9.8,9.94,1.27.1,2.88-.45,3.59,1,.85,1.76-.91,2.59-1.72,3.76-2.34,3.39-4.42,6.85-8.87,8.16-2,.6-3,3-3.85,5,.38,1.79-1,2.44-2.17,2.86-6.09,2.23-11.79,5.37-18,7.35-10.71,3.39-21.83,6-30.47,14-10.24,3.87-19,11-29.79,13.68a3.83,3.83,0,0,0-2.21,1.11c-4.11,5.77-10.42,7.87-16.56,10.46-2.85,1.2-4.2,4.95-7.21,6a40.52,40.52,0,0,0-15.35,9.26c-3.14,3-8,3-12.25,3.69a30.08,30.08,0,0,0-6.79,1.6c-1.21.49-2.28.89-2.35,2.71-.15,4.64-2,5.81-6.4,4.38-1.57-.52-2.83-1.8-4.57-1.9-4-.25-7.67-.3-11.37,2.28a15.22,15.22,0,0,1-17,.82,14.92,14.92,0,0,0-7-2.28c-20.38-.64-38.93-7.54-56.88-16.6-5.16-2.6-9.94-6.12-15.88-6.95a74.44,74.44,0,0,1-9-2.63C74,210.3,71.84,209.75,72,207.07Z"/></g></g></svg>