<svg xmlns="http://www.w3.org/2000/svg" viewBox="0 0 252.72 110.86"><defs><style>.cls-1{fill:#596a7d;}.cls-2{fill:#627586;}.cls-3{fill:#75828e;}.cls-4{fill:#7c8e96;}.cls-5{fill:#90a29e;}.cls-6{fill:#9aada8;}</style></defs><g id="Calque_2" data-name="Calque 2"><g id="Calque_1-2" data-name="Calque 1"><path class="cls-1" d="M184.42,63.89c-6.25,2.21-9.34,8.79-15.44,11.21l-2.27.89c-1.15.52-2.28-.1-3.43,0-3.74.13-4.38-2.22-3.15-4.93,2.84-6.2,5.89-12.27,10.54-17.45,5.45-6.08,10-12.75,12.41-20.76C185.17,26,190.64,22,196.84,19.16a48.75,48.75,0,0,0,6-3.39c3.63-1.67,6.71-4.22,10.05-6.36C221,4.6,230.36,5.63,239,3.34c2.75-.73,5.4-1.69,8.09-2.54,1.88-.6,3.8-1.5,5.64.11l-7.38,12c-3.34,2.35-5.31,5.93-7.8,9a38,38,0,0,1-14.39,11.2c-9.32,4-17,10.3-24.24,17.19C194.12,54.86,188.54,58.61,184.42,63.89Z"/><path class="cls-2" d="M160.69,78.09a141.85,141.85,0,0,1-37.11,2.8c-2-2.58-.23-4.36,1.42-6A84.72,84.72,0,0,1,137.76,64.6c11.49-5.94,20.92-14.35,29.54-23.92,7.53-8.37,15.09-16.78,24.44-23.27,4.07-2.83,7.64-3.06,11.84-.48a25.8,25.8,0,0,1-6.69,4.16c-6.38,3.14-11,7.6-12.79,15.09-1.48,6-5.37,11.57-9.6,16-5.68,5.87-9,13-13.1,19.69-1.09,1.77-.5,2.73,1.51,3.1a37.08,37.08,0,0,1,3.8,1.07Z"/><path class="cls-3" d="M203.58,16.93c-7.68-1.68-13,2.86-17.8,7.49-9.06,8.77-17.68,18-26.33,27.17-5.94,6.31-13.69,9.87-20.85,14.34-1.41-1.6-.78-3.26.32-4.49,4.51-5,4-11.68,5.5-17.61.87-3.37,1.1-6.82,3.39-9.66,1.88-2.34,1.81-5.28,2.4-8.1-3.78.38-7.85,2.51-10.88-1.69.7-2.25,2.57-3,4.58-3.34a77.18,77.18,0,0,0,21.58-7.52,38.87,38.87,0,0,1,18.77-4.15c8.78.16,17.57,0,26.27,1.42l2,.42C209.58,13.17,207.68,16.77,203.58,16.93Z"/><path class="cls-4" d="M134.69,25l4.79-.08c4-.22,8.21.92,12.16-1.26.48,5,.56,9.75-3.57,13.4-.48.42-1.13,1.14-1.06,1.63,1,6.58-3.92,12.29-2.73,18.87a2.49,2.49,0,0,1-1.7,3.17c-2.62.82-3.55,2.8-4,5.22-4.19,3.46-8.34,7-12.59,10.36a5.37,5.37,0,0,0-2.43,4.6l-19.12,1.77c-6-3-8.41-8.24-7-14.68.8-3.54,2.08-7,2.13-10.68,0-2.55,1.91-3.71,3.21-5.35,8.26-6.36,14.91-14.44,22.66-21.34C128.16,28.24,130.26,24.61,134.69,25Z"/><path class="cls-5" d="M103.6,53.12c-3.43,2.41-1.78,6.51-3.17,9.72-3.14,7.22-1.84,14.13,4,19.82-13.25,3-24.07,10.64-34.77,18.46l-3.15,1.61c-1.72-.41-2.77.86-3.92,1.68-3.41,2.4-5.25,2.08-7.14-1.74A30.12,30.12,0,0,1,52.6,92.26c-.45-4.42-2.14-8.6-2.76-13,.27-2.51,2.38-3.38,4.1-4.62,6.69-4.83,13.6-9.36,19.92-14.69,1.13-.68,1.84-1.82,2.9-2.57,7.1-3.68,15-4.19,22.62-6.07A3.63,3.63,0,0,1,103.6,53.12Z"/><path class="cls-6" d="M50.72,110.83A46.13,46.13,0,0,0,27,108.49c-5.59.82-11-1-16.41-2.51a21.51,21.51,0,0,0-7.44-5.39c-2-.8-3.88-2-2.81-4.82a3,3,0,0,1,1.81-.91c2.36.56,4.71,1.08,6.23-1.62a17.2,17.2,0,0,1,6-2.24A121.13,121.13,0,0,0,43.6,80.21c2.13-1.11,4.39-2.5,7-1.28,3,4,3,8.92,3.92,13.53a31.89,31.89,0,0,0,1.18,5.78c2.57,6.57,2.52,6.62,8.41,3.69a1.59,1.59,0,0,1,2.41.8C61.52,105.92,57.65,111.37,50.72,110.83Z"/></g></g></svg>