<svg xmlns="http://www.w3.org/2000/svg" viewBox="0 0 735.93 404.98"><defs><style>.cls-1{fill:#081b33;}</style></defs><g id="Calque_2" data-name="Calque 2"><g id="Calque_1-2" data-name="Calque 1"><path class="cls-1" d="M735.84,300.89c0,33.49,0,67,.09,100.48,0,3-.6,3.58-3.58,3.58q-364.41-.13-728.8,0C-.13,405,0,403.56,0,400.87Q.09,208.9.05,16.93c2.54-1.64,4.12.36,5.56,1.76C9,21.92,12.88,24.5,16.05,27.93c2.54,2.75,4.2,2.38,4.79-1.37C22.29,17.34,29.76,11.4,33.5,3.39,35.2-.24,39.38-.74,42.71.87,47.85,3.36,52.38,6.81,53,13.29c.33,3.81,1.47,7.45,2.37,11.14,4.31,3.9,9.27,7.76,9,14.14C64,44,65.88,49,65.84,54.29A7.43,7.43,0,0,0,69,60.68a55.09,55.09,0,0,0,14.4,7.81c11.36,4.28,23.29,6.68,34.77,10.53,8.18,2.75,15.91,6.69,23.65,10.52,1.91.94,3.86,2,4.81,4.16-.76,5.77-6,7.65-9.81,10.28-2.8,1.92-3.76,3.24-3.31,6.57.6,4.35-.75,8.56-2.76,12.48-.53,1-1.27,2-1.75,3-2.88,6.57-4.9,12.9.89,19.29A29,29,0,0,1,136,156.69a7.77,7.77,0,0,0,4.26,4.62,77.7,77.7,0,0,0,11.94,5.05c19.29,6.48,30,19.78,34.11,39.77,2.62,12.78,8.61,25.26,22.62,28.56,10.85,2.56,20.5,7.42,30.71,11.18,6.55,2.41,13.19,4.6,19.86,6.68,4.5,1.41,7.28,4.55,8.95,8.75,1.09,2.73,1.08,5.28-2.37,6.46a6.78,6.78,0,0,1-4.64-1.51c-10.53-7.25-22.53-10.27-34.88-12.6-30.07-5.67-55.23,4.94-78.15,23.11a161.46,161.46,0,0,0-15.52,13.34c-1,1-2.6,2.09-2.09,3.69s2.27,1,3.54,1.19c14.52,2.07,28.88,4.82,42.39,10.85s23.42,16.19,30.49,29.08c1.94,3.54,2.1,7.67,2.85,11.59,1,5.22,3,7.72,8.06,8.1,12.32.94,24-.6,32.68-10.89a26.44,26.44,0,0,0,3.29-5,225.15,225.15,0,0,1,33.1-47.3c1.13-1.24,2.51-2.18,3.73-3.31,5.39-4.31,11.34-7.81,17.12-11.56,2.85-1.74,4.27-4.55,5.13-7.55,1.11-3.89,1.22-8,3.4-11.67,1.24-2.1-1.44-3.77-2-5.76-.28-1.11-1.13-2.27-.72-3.31,1.95-5,.86-10.29,1.84-15.36a2.79,2.79,0,0,1,1.13-1.59c2.81-1.34,3.66-3,2.17-6.13s-.41-6.24,2.73-8.18c1.29-.8,2.72-1.32,2.52-3.26-.44-4.45,1.64-7.69,5.1-10.18a4.86,4.86,0,0,0,2.09-3.78c.16-4.31,2.48-7.66,4.89-11,2.75-4,3.43-4.09,7.81-1.28a4.2,4.2,0,0,1,.94,1.23c.4,1.07.5,2.38,1.57,3,4.65,2.75,7.26,6.68,7.35,12.17,0,1.31,1.08,2,1.78,2.89,1.14,1.45,2.52,3,2.44,4.8-.22,4.79,1.58,8.06,6,9.9.55.22.81,1,1.12,1.62a38.38,38.38,0,0,1,2.16,13.38c-1.56,5.07.88,9.78,1.36,14.66.16,1.58.92,2.6,2.57,2.29,9-1.65,18.05-1.17,27.1-.87,3.91-3.61,8.84-5.92,12.53-9.81,6.4-5.31,13.49-9.64,20.28-14.39,6.91-4.14,14-7.81,21.86-9.95,4.15-1.18,8.45-1.56,12.64-2.55,1.92-.15,3.83-.1,5.75-.06,8.5,1.11,16.68,3.24,24.15,7.6,6.4,3.38,11.45,8.36,16.19,13.7,3.93,5.47,7.89,10.93,9.49,17.65,1.61,5.09,4.15,9.94,4,15.47a32.88,32.88,0,0,0,1.6,12.3c1.69,5.51,7,8.7,11.72,10.82,3.46,1.55,8.32-.74,11.65-3,2.33-1.6,4.25-4.7,2.59-8.33a7.45,7.45,0,0,1,.85-7.62c1.49-2.13,1.21-3.94-.21-5.85.12-5.62-.69-11.26.29-16.87a23.32,23.32,0,0,0,7.26-11.37c1.25-4.3,5.27-7.39,5.22-12.22a7.8,7.8,0,0,1,1.77-3.51c2.07-2.7,3.52-5.54,2.76-9.13a4.52,4.52,0,0,1,1.51-4.5,5.06,5.06,0,0,0,2.89-3.81c.51-2.84,2.28-3.89,5.06-3.42,1.32.32,2.14,1.4,3.19,2.12a9.66,9.66,0,0,1,1.53,1.67c.4,5.76,6,8.27,8.08,13s2,9.57,2.26,14.46c.42,2.72,3.15,4.19,3.7,6.84-1.12,5.82,4.53,8.55,6,13.19a19.54,19.54,0,0,1,.21,12.88c12.34-2.95,23.85-3.74,33,6.31,6.23,7,6.52,15.58,6.27,24.27.11,4.71,2.58,8.85,3.2,13.45.26,1.93,2.11,1.82,3.59,1.91A60.51,60.51,0,0,1,669.89,318a10.4,10.4,0,0,0,8.65-.33c9.13-4.26,18.86-6.27,28.76-7.53,5.37-.69,10.32-2.08,14.64-5.57a29.28,29.28,0,0,1,7.88-4.21C731.9,299.53,734,299.05,735.84,300.89Z"/></g></g></svg>