<svg xmlns="http://www.w3.org/2000/svg" viewBox="0 0 373 106.05"><defs><style>.cls-1{fill:#fdaa82;}.cls-2{fill:#fdb888;}.cls-3{fill:#fdc286;}</style></defs><g id="Calque_2" data-name="Calque 2"><g id="Calque_1-2" data-name="Calque 1"><path class="cls-1" d="M33.14,64C43,64.86,51.93,69.11,61,72.55,70.58,76.18,80.25,78,90.45,77c3.64-.35,4.8-2.49,4.65-5.75s0-6.44,3.31-8.76c3-2.11,1-4.67-.88-7.14,6.36-1,8.07-5.67,9.54-10.45.66-2.14,1.46-4.12,3.19-5.5,3.91-3.11,2.75-5.28-1-7.37-1.68-.93-3.67-1.74-4.14-4,5.15.33,9.71,2.74,13.91,5.17,11,6.39,23,10.69,34.89,14.64,7.07,2.34,15,2.35,22.51,3.11,3.49.35,6.73.33,9.62,3.07s11.46,1.66,14.8-1.27c3.86-3.38,12.06-4.11,16-1,2,1.61,4,1,6,1.24.59-2.68-3.48-2.82-2.39-5.18s3.88-2.37,6-3A69.78,69.78,0,0,1,235.28,43c5.49-.86,10.91-1.64,13.4-7.78.77-1.89,2.71-2.19,4.65-2.29a12.49,12.49,0,0,0,9.9-5.05c2-2.82,4.58-4.11,7.68-5,4.3-1.3,8.63-2.55,10.64-7.38a4.73,4.73,0,0,1,3.19-2.14c9.71-1.73,17.2-8.34,26.12-11.78,1.7-.66,3.27-1.68,5.19-1.56,4.45.76,3.11,3.77,2.4,6.4-.42,1.55-1.83,3.11-.4,4.6s3.38.9,5.17.5c2.68-.61,5.4-2,8,.33.3,2.65-1.79,3.39-3.57,4.07A100.11,100.11,0,0,0,313,23.37c-7.94,4.59-16.24,8.2-25.37,9.8a53.83,53.83,0,0,0-14,4.89c-2.44,1.17-4.88,2.09-7.64,1.53-5.36-.42-8.62,3.81-12.75,6A224.92,224.92,0,0,1,214,62c-10.77,3.3-22.1,4.36-32.56,8.88-4.53,2-9.81,1.52-14.75,2.09-2,.22-3.94.26-5.66,1.46.58,2.33,2.47,2.82,4.13,3.39a22.73,22.73,0,0,1,8.26,4.51c1.93,1.79,4.34,1.39,6.57,1.9,2.49.58,5.32,1.32,5.19,4.41-.12,2.72-2.81,3.53-5.14,3.93-13.48,2.34-27,2.57-40.7,1.89-16.95-.85-33.06-5.56-49.56-8.41a42.74,42.74,0,0,1-9.06-2.7c-2.2-.91-4.38-2.21-6.85-2.11a2.17,2.17,0,0,0,1,2.83c6.41,4.39,12.46,9.5,20.43,11,3,.55,5.71,1.78,8.67,2.31,1.51.28,3,1.12,3.18,2.79.22,2-1.44,3-3,3.51A25.1,25.1,0,0,1,96,105.47c-7.49,0-15,.14-22.46-.09-1.2-.15-2.19-.93-3.36-1.18-2.18-2.18-4-4.75-7-6-5.26-5.14-12.34-6.08-18.93-8s-13.13-4.22-19-8.14C17.57,77,9.35,74.07,0,76.91c3-3.22,10.08-4.1,15.27-1.77C17.22,76,20,76.82,20.63,75c1-2.94,7.23-2.46,4.62-7.48-1.17-2.23.78-3,2.41-3.31A37,37,0,0,1,33.14,64Z"/><path class="cls-2" d="M325,105.85q-62.65.06-125.31.11-60.42,0-120.82,0c-2.37,0-5.13.87-6.76-1.93H94.63a19.21,19.21,0,0,0,11.69-4c-4.3-.35-8.14-2.08-12.18-3.12a46.92,46.92,0,0,1-23-14c-.74-.8-2.42-2.05-1.08-3.37a4.07,4.07,0,0,1,4.61-1c16.1,7.82,33.8,9.66,51,12.54,15.46,2.58,31.39,3.62,47.1.46,3.1-.63,6.36,0,9.33-1.36.88-.42,2.19-.51,2-1.75-.08-.61-1.14-1.62-1.65-1.56-7,.79-11.44-5-17.4-6.81-3.57-1.07-8.18-2.89-7.9-6.15.23-2.77,5.51-2.45,8.74-2.87,7.33-1,14.59-1.21,21.67-4.66,5.6-2.72,12.51-2.68,18.8-4.2C223.65,58,240.05,51.79,255,42.49c3.66-2.28,6.7-4.52,11-4.48,1.58,3.53-1.32,4.79-3.4,6.12-7.31,4.67-15.25,8.1-23.07,11.81-13.28,6.3-27.35,10.28-40.64,14.83,6.94-3.52,15-1.5,22.65-1.57A205.86,205.86,0,0,0,265,64.44c7.71-1.74,16-2.67,23.22-6.94,4.12-2.45,9.06-2.9,13.45-5.09,15-7.51,29.3-16.22,43.73-24.69,7.3-4.29,8.71-10.43,4.89-18.15-.57-1.15-1.83-2-1.27-3.56,5-3,9.95-6,16-6,3.35,0,5,1.1,2.93,4.47-1.42,2.36-1.08,4.09,1.45,5.25,2.71,1.23,2.89,3.84,3.53,6.22-.1.21-.19.42-.28.64-2.36,1.76-5.22,2.92-6.86,5.57a39.94,39.94,0,0,1-10.18,6.49c-13.19,7.79-26.14,16-39.43,23.59-6.8,3.9-13.87,7.2-21,10.42-6.18,1.07-11.23,4.85-16.91,7.13-7.24,2.9-14.08,6.75-21.48,9.37-5.34,1.89-8.62,6.64-12.5,10.48-.74.73-1.69,2-.9,3.11s2.18.4,3.22.11c11.71-3.27,23.29-7,34.11-12.57,6.67-3.45,13.83-5.69,20.53-9,2-1,4.3-1.23,6,.61a4.8,4.8,0,0,1,.22,6.47c-4.68,5.56-7.33,12.76-13.73,16.91a11.64,11.64,0,0,0-2.35,1.84c-.77.84-1.88,1.61-1.38,3a3.12,3.12,0,0,0,2.81,1.79,64.37,64.37,0,0,0,7.48.19c6.65,0,13.32-.23,20,.17C322.4,102.3,325.82,101.67,325,105.85Z"/><path class="cls-3" d="M349.05,6c1.83,1.28,3.65,2.1,4.18,5,2.2,12,.9,15.41-10.05,20.65-3.33,1.59-6.32,3.58-9.46,5.43-6.25,3.68-13.08,6.5-18.91,10.72-9.24,6.68-20.52,8.46-30.23,13.83-3.77,2.09-8.28.67-12.14,2.4C264,67.81,254.89,67.84,246,69.31c-9.62,1.6-19.15,1.55-28.73,1.76-7.67.16-15.35,0-23,1.06-.07-.4-.13-.8-.19-1.2,7.8-2.85,15.45-6.33,23.46-8.35,8.33-2.1,15.6-6.46,23.49-9.44,6.93-2.63,13.37-6.58,19.9-10.17,2.07-1.13,4.76-1.95,5.15-5a12.13,12.13,0,0,0,6.61-1.64A36.63,36.63,0,0,1,284.28,32c12.71-2,24-7.59,34.64-14.36C322.76,15.2,327.53,15,331,12,337.09,10.15,342.52,6.43,349.05,6Z"/></g></g></svg>