<svg xmlns="http://www.w3.org/2000/svg" viewBox="0 0 563.91 83.16"><defs><style>.cls-1{fill:#fedf99;}</style></defs><g id="Calque_2" data-name="Calque 2"><g id="Calque_1-2" data-name="Calque 1"><path class="cls-1" d="M397.9,4.64a3.08,3.08,0,0,0,3.39,2.93c3.82,0,7.89.84,11.41-.21,4.88-1.45,10.05-2.06,14.69-4.09,9.68-4.23,18.87-4.66,28.52.51,8.7,4.67,18.18,7.86,25.89,14.36C484,20,486.26,21.39,487.72,24c1.88,3.36,5.73,3.19,8.89,3.48,6.06.56,12.07.36,18.2,1.69a16.93,16.93,0,0,0,14.43-3c2-1.59,5.61-1.21,8.51-1.53a36.8,36.8,0,0,0,10.63-2.29c2.51-1.08,4.23-.84,5.66,2,1.54,3,3.57,3.6,4.94-.38.57-1.64,1.55-3.43,3.43-2.91,2.21.62.05,2.57.53,3.85.34.93.64,1.88,1,2.81.14,1.85-1,2.46-2.57,2.64-9.61-2.25-19.23-1.29-28.64.72-7.22,1.53-13.74,5.36-19.29,10.13-8.09,6.94-17.41,9.26-27.68,9.5a25.26,25.26,0,0,1-12.05-2.75c-11.59-5.82-23.83-7.8-36.71-7.35a75.33,75.33,0,0,0-36.83,11.1c-3.7,2.23-7.48,4.37-11.31,6.36-8.66,4.52-17.68,7.6-27.74,6.64-14.36-1.36-27.49,3.1-40.35,8.88-7,3.15-14.25,5.56-22.14,5.1-2.49-.14-5,.09-7.5,0a84.67,84.67,0,0,0-29.54,3.45,27.4,27.4,0,0,1-11.85.77c-6.39-.86-12.63-2.69-19.27-2-4.73.47-7.74-3.34-10.92-6.27-1.93-2.29-3.89-4.55-7.38-4A17.34,17.34,0,0,1,203,68.09c-3.17-3.24-7.2-1.63-10.9-1.91a5.27,5.27,0,0,1-2.26-.33A8.58,8.58,0,0,0,184,64c-3.66.42-7-.63-10.42-1.75-1.24-.26-2.52-.14-3.77-.31-5.86-2.29-11.27-5.85-17.8-6.25-3.1-2.2-7.08-1.77-10.35-3.44-3.65-1.36-7.28-2.27-10.86.22a17.21,17.21,0,0,1-16.27.28c-5.89-2.88-11.33-2.31-17.58.12C88.36,56.22,81,62.53,71.25,63c-2.5.13-4.91,1.88-7,3.65-3.44,3-7.48,3.78-12,4.06-14,.9-27.38-1.63-40.68-5.37C7.58,64.22,2.86,64.7,0,60.61v-13C.74,46.94,1.48,46,2.47,46c8.15.39,15.93-3.06,24.23-1.83,6.57,1,13.3.56,20,.09C64.85,43,83,41.61,101.3,43.44A34.58,34.58,0,0,0,112.72,43a16.76,16.76,0,0,1,10.78.92c1.25.56,2.73,1.16,3.47-.49,3.23-7.27,9.71-5.59,14.66-4.1,5.22,1.56,10,.76,15,.91,7.57.22,15.69-2.71,22.77,2.42a1.81,1.81,0,0,0,2.33,0c5.66-5,12.51-3.2,19-3.3a31.55,31.55,0,0,0,5.49-.19c-4.72-.61-9.45.24-14.16.16-11.61-.19-23.24-.26-34.8-1.68-2-.24-4.08-.46-4.59-3,.94-2.69,3.25-2.58,5.39-2.5,6.79.23,13.56-.38,20.39.76,5.34.9,10.88.08,16.34-.7,7.28-1,14.57,1.39,21.83.8,8.24-.68,16.55-.44,24.74-1.9,9.59-1.72,13.34-5.31,15.15-14.94,1.12-6,8.55-8.74,12.68-3.95,4.89,5.67,11,6.45,17.38,7,7.77.65,9.4-2.33,9.42-7.62,0-7.6,2.9-8.93,9.72-5.34,2.58,1.36,5,3.57,8.31,2.68,5.68-.19,10.49,2.93,15.82,4.12,15.16,3.39,30.25,3.65,45.22-1a69.6,69.6,0,0,0,16.45-7C393.41,3.87,395.63,2.58,397.9,4.64Z"/></g></g></svg>