<svg xmlns="http://www.w3.org/2000/svg" viewBox="0 0 341.07 121.56"><defs><style>.cls-1{fill:#869b9b;}.cls-2{fill:#98aea7;}.cls-3{fill:#abbfae;}</style></defs><g id="Calque_2" data-name="Calque 2"><g id="Calque_1-2" data-name="Calque 1"><path class="cls-1" d="M56.28,48.05c-5.68-1.15-11-3.81-16.86-4.24-3.35-1.35-7.12-1-10.42-2.53-9.79-5.43-18.31-12.6-26.86-19.72a6.88,6.88,0,0,1-1.79-3.5,1.53,1.53,0,0,1-.13-.76c-.65-1.47.24-2.25,1.41-2.59,10.93-3.2,20.84-8.8,31.2-13.34A25.83,25.83,0,0,1,55.28,4.18c10.86,7.05,23.2,9.72,35,13.94,2.7,1,5.2,2.23,6.52,5,.56,3.94-1.71,3.59-4.28,2.82s-4.9-2.92-8.41-1.44c2.12,2.61,4.44,4.68,6.59,6.88,2.69,2.77,3.78,5.8,2.38,9.51s.47,8.25-3.77,11.26c-1.17.82.69,3.44,2.11,4.54,3,2.33,4.09,5.49,4.81,9,1,5,.13,5.76-5.14,4.19l-2.86-2c-2.33-.88-3.88-2.87-5.94-4.14l.1,0C75.14,56.14,66.16,51.35,56.28,48.05Z"/><path class="cls-2" d="M91.12,69.88l4.32-.68c-1.52-4.72-2.2-9.54-6.75-12.88-1.3-1-6.58-6.43,1.48-7.35.32,0,.88-.81.81-.95-2.51-4.39,2.82-8.59.76-12.35a26.78,26.78,0,0,0-8.52-8.87A11.68,11.68,0,0,1,82,25.92c-.76-.67-1.51-1.44-1.11-2.55s1.39-1.29,2.41-1.46c3.45-.59,6.46.62,9.52,2,.93.41,2.2,3,3.47.2,4.44-1.38,5.73,2.57,8,4.78,7.9,8.45,16,16.7,24.6,24.44a21.65,21.65,0,0,1,3.77,3.94A35.71,35.71,0,0,0,139,64.93c2.48,2.09,3,5.06,3.25,8.07a24.92,24.92,0,0,0,3.45,10.16c2.78,4.93,3.06,11,6.87,15.67,1,1.17,1,3.5-.06,5.25-2.3,1.61-5.09.74-7.56,1.53-2.57,0-5.06-.23-6.52-2.81-10.75-5.69-20.84-12.47-31.14-18.9A135.4,135.4,0,0,1,91.12,69.88Z"/><path class="cls-3" d="M131.29,57.87C136.91,61.74,143.73,63.49,149,68A11,11,0,0,0,154,70c3.4.76,6.79,1.53,9.41,4.2a4.66,4.66,0,0,0,3.12,1.4c11.52-.5,21.46,6.33,32.93,6.83a98,98,0,0,0,18.27-.84c8-1.16,16-2.42,24-3.91,15.08-2.82,29.77-7.36,45.34-8.17,12.58-.66,25.26.47,37.76-1.7l5.38-.94c.18,2.6,2.28,3.23,4.15,3.44,3.91.44,4.9,3.67,6.66,6.22l-.91.36c-6.6-.59-11.76,2.58-16.76,6.28S312.84,90,306.23,90c-5.3,1.09-10.73-.39-16,.8l-3.91.2c-6.15.08-11.63,2.38-17,5.15-15.58,8.13-30.78,17-47,23.8l-3,1c-13.57,2.12-26.43-.93-39-5.54-8.74-3.2-17.19-7.16-26.1-9.94a3.2,3.2,0,0,1-1.85-1.6c-.7-1.62-2.1-3-1.51-5.06.24-.85.16-2-.56-2.23-5.21-1.46-4.13-5.32-4.3-9.28-.17-3.8-5.68-5.62-5.1-10.22C141.92,68.49,135,64,131.29,57.87Z"/></g></g></svg>