<svg xmlns="http://www.w3.org/2000/svg" viewBox="0 0 735.8 241.19"><defs><style>.cls-1{fill:#fdae81;}</style></defs><g id="Calque_2" data-name="Calque 2"><g id="Calque_1-2" data-name="Calque 1"><path class="cls-1" d="M735.8,3.16v214c-2.68,1.85-4.73,0-6.85-1.2-5.89-3.3-10.13-8.6-15.3-12.79-14.54-11.81-30-13.25-46.47-4.69a17.45,17.45,0,0,1-12,1.94c-10.29-2.07-22.55,4.5-26,13.46-4.68,12.35-15.88,12.76-26.41,14.24-11,1.54-22.19,1.91-33,4.72a108.53,108.53,0,0,0-13.12,4.76c-10.27,4.1-20.64,5-31.2,1.24-2.21-.8-4.54-1.06-6.78-1.71-7.11-2.06-13-6-19-10.33-11.38-8.19-21.13-18.83-34.47-24.19a55.88,55.88,0,0,0-27.84-3.82c-2.95.36-5.95,1-8.85-.33-4.66-3.49-6.83-8.91-10.2-13.39-11.83-15.73-27.69-25.32-46.29-30.18a79.28,79.28,0,0,0-57.14,6c-2.52,1.26-4.88,2.86-7.6,3.7-2.53.11-4,1.92-5.6,3.53-1.8,1.27-3.27,2.94-5.08,4.21a13.13,13.13,0,0,0-5.49,4.49,23.46,23.46,0,0,1-2.23,2.34c-1.7,1-2.6,2.77-3.6,4.4a4.82,4.82,0,0,1-.88,1,14.67,14.67,0,0,0-5.33,7.43c-2.38,4.86-5.8,9.14-7.91,14.16-2.14,2.91-2,6.59-3.31,9.79-.94,2.3-1.45,4.78-3.63,6.34-5.76,3.67-12.21,4.37-18.83,5.52-11.75,2-23.62,3.26-35.3,5.72-15.83,3.34-31.23,2.26-46.25-4.31a64.49,64.49,0,0,0-33.64-4.87c-7.22.85-14.28,3-19.92,8.22-2.32,2.14-5,2.16-8,1.25C96.49,232,91.09,229,84.56,229.7c-3.63.39-5.93-2.6-7-6.1a14.92,14.92,0,0,1-.18-7.42c1.88-9.11-1.05-17.12-5.79-24.6a18.22,18.22,0,0,0-11-8.2,24.75,24.75,0,0,1-13.56-8.73c-5.91-7.32-14.29-10-23.17-11.43-6.26-1-12.54-1.62-18.87-.6A5.42,5.42,0,0,1,0,161.13V5.15A5.79,5.79,0,0,1,3.41,3.23c16-1.6,32-4.23,48,.29,3.42,1,6.9.45,10.35-.47C73.54-.1,85.39.14,97.25,2.7a16.34,16.34,0,0,0,2.93.58c18.29.46,36.59,1.45,54.86.57,10.1-.48,20.2-.45,30.3-.77,3.9-.13,7.44-1.69,11.27-2,6-.47,11.95.72,17.89,1.27a28,28,0,0,0,9.37-.21A54.71,54.71,0,0,1,237.26,1c6,.06,12-.12,18,0,26.14.66,52.25-1.61,78.35-.93,68.08,1.75,136.16.35,204.24,1,7.29.07,14.56.1,21.84-.14,6.68-.21,13.29.06,19.71,2.29a15.63,15.63,0,0,0,9.84-.19,27,27,0,0,1,7.37-1.09c43.6-1,87.2-1.22,130.81-1C730.33,1.07,733.49.5,735.8,3.16Z"/></g></g></svg>