<svg xmlns="http://www.w3.org/2000/svg" viewBox="0 0 104.14 295.33"><defs><style>.cls-1{fill:#d2ce70;}</style></defs><g id="Calque_2" data-name="Calque 2"><g id="Calque_1-2" data-name="Calque 1"><path class="cls-1" d="M80.38,102.38c-3.39,0-7.32,2-9.37-2.7-.12-.27-1.1-.52-1.29-.34-2.49,2.21,0,5.9-2.5,8.42-.63.63,1.74,1.38,3,1.64C76,110.59,76,110.61,76,115.61c3.35-2,3.35-2,6.93-2.29,0,2-2.46,3.74-.39,5.81.94.94.13,1.83-.92,2.24s-1.94.51-2.82.95c-1.69.84-4.68,1.23-4,3.58.81,2.75,3.31.79,5.1.47,2.11-.37,4.21-.83,6.31-1.24,1.18.25,1.51,1.26,1.92,2.18a9.25,9.25,0,0,1-7.23,3.92c-4.08.1-4.4,4.06-6.79,5.84-1,.76.38,1.88,1.28,2,2.51.26,4.73.92,7.6-.33,3.06-1.33,6.11-7.36,10.6-1.87.09.12,1.23-.35,1.63-.78.77-.86,1.33-1.9,2-2.82,1.35-1.74,3-3.16,5.27-3.36.88-.08,1.37.85,1.5,1.72a5.64,5.64,0,0,1-2.87,6c-3.43,1.74-5.57,4.59-8.21,7.08-2.92,2.74-7.69,2.13-10.74,5.48-1.49,1.61-3.39,2.08-1.26,4.38.57.62,1.15,1.38.19,2.11a1.72,1.72,0,0,1-2.28-.23,6.06,6.06,0,0,0-5-1.42c-4.09.3-7.48.31-3.2,5.37a1.46,1.46,0,0,1-.1,2.23c-.83.56-1.51-.22-2.19-.65-4.17-2.62-6.61-1.82-7.86,3.22-.67,2.68-1.77,3.24-4.14,2.76-1.61-.34-3.67-.92-4.37,1.09-.64,1.85,1.36,2.86,2.52,3.94a9.66,9.66,0,0,0,3,1.58c1.06.43,1.69,1.05,1.47,2.23s-1,1.22-1.9,1c-3.4-.75-5.21,2.69-8.18,3.09-.28,0-.74.57-.72.6,2.73,4-1.39,7.88-.27,11.35.89,2.75,4.28,3.59,7.1,1.19,2.08-1.78,3.48-1.81,4.14,1.2.54,2.46,2.3,2.11,3.06.61,2.18-4.26,6.52-4.84,10.14-6.67,1-.51,2.42-.74,2.52-2.13s-1.38-1.64-2.37-2.15c-2.5-1.29-3.74-2.76-1.13-5.27a8.68,8.68,0,0,0,2-3.41c.89-2.62-.18-7.78,5.31-3.09,1.52,1.3,1.76-3,4.4-2.71-2.49,5.13.39,10.59-2.1,16.17,4.75-.8,7.2-8.26,12.89-1.9-.32-4.94-1.65-9.07,1.94-12.18,1.12-1,2-2.41,3.81-1.48,1.39.72,2.54,1.69,2.55,3.41,0,3,.58,6.17-.22,9-1.18,4.11-5.57,4.64-9,5.86-2.06.74-4.34.68-4.64,3.55-.11,1-.31,2.11-1.57,2.2a2.25,2.25,0,0,1-2.46-2c-.87-3.93-2.61-2.72-4.21-.62-1.94,2.57-6.15,4-4.36,8.59.37.94-1,.91-1.82.59s-1.81-1.41-2.34.24c-.29.87.32,1.59,1,2.15,2.51,2.16,5.87,3.14,8,5.8,2.5-2.51,7.19-.19,9-4,1.13-2.37,2.44-3.76,5.41-2.8,2,.66,3.35-.79,4.36-2.52.79-1.33,1-3.29,3.43-3.58-.07,3.31-2,6-3.2,8.55-2.34,4.87,2.09,8,1.77,12.32-.73,9.95-.72,20-1,29.94-.36,13.81-.76,27.61-1,41.42,0,3.11-1.11,4.68-4.19,4.86-9.3.56-18.56,2-27.9,1.34-6-.41-8.17-3.47-6.54-9.46,1.21-4.43,2.92-8.73,3.14-13.89-3.69,2-4.5,5.64-6.74,8.78-.61-5.76,1.64-11.09.18-16.44-2.37,4.39-2.82,9.21-4.49,14l-2.06-21.56c-2.68,4.78-.09,9.44-.68,14.51-2.38-2-1.16-5.61-4.09-7.36-.17,4.38,1.82,7.89,2.68,11.64.23,1,2.08,3.22-1.51,2.19-1.44-.41-.66,1.47-.28,2.14a43.84,43.84,0,0,1,4,10.2c.81,2.89.36,4.46-3.34,3.78-14-2.55-26-8.88-36.78-17.93-2.76-2.31-2.72-9.47-.06-12,1.09-1.05,2.76-2,1.73-3.59s-2.29.08-3.41.6-2.67,1-3.46-.54.43-2.24,1.63-3.06c2.55-1.76,4.06-4,1.88-7.11A2.07,2.07,0,0,1,9,248.24c.51-.94,1.49-.51,2.21-.2,1.68.72,3.32,1.53,4.95,2.34,4.09,2,5.11,1.4,5.13-3,0-.59.23-1.57.62-1.72,4.1-1.63,5.91-6.87,11-7,1.16,0,2.46-.6,2.25-2.1s-1.84-.59-2.33-1c-2.55-2.21-4.89-3.73-7.65.24,0-3.41,1-5.71,4.38-6.52,1-.24,2-.58,2.2-1.73s-.84-1.56-1.75-2.07c-2.49-1.41-5-2.9-6-5.83-.93-2.7-2.9-.1-4.32-.92L23.05,215c-3.21-1.2-4.86,3-7.93,1.19.56-2.58,2.6-4.23,4.71-5.54,1.89-1.16,3.21-1.68,1.81-4.44s-3-2-4.86-1.35c-.87.31-1.6,1.18-2.86.69.27-.61.34-1.17.66-1.43,4.74-3.93,4.83-4,.27-8-1.29-1.14.1-4.88-3.53-3.63-.11-3.41-2.35-2.88-4.6-2.6-1.74.22-2.25-1.06-2.43-2.51,1.44-1.81,3.65-1.31,5.51-1.86,1.14-.33,2.36-.69,2.69-1.93.4-1.48-1.08-1.86-1.91-2.56-1.75-1.46-3.86-1.67-6-1.88-3.1-.3-4-2.08-2.58-4.87,2.3-4.6,12.7-7.68,17.3-5.26,2.1,1.11,2.34,3.12,2.73,5,.66,3.22,2.18,3.82,4,1.09a9.38,9.38,0,0,1,6.83-4.35c1.24-.18,2.72-.64,2.72-2.39,0-1.41-1.09-2-2.18-2.4-5.46-2.23-10.69-5.71-17-3.06a2.59,2.59,0,0,1-3.21-.61c-2.15-3.23-4.53-3.32-8.06-2-4,1.48-5.46-.89-4.6-4.81,2.62-.86,5.58-.24,8.39-2.13-2.71-1.84-6.51,1.4-8.49-2a8.59,8.59,0,0,1-.09-4.82A25.08,25.08,0,0,0,1.87,144c4.27-5.63,7.78-5.82,13.2-1.48,2.35,1.89,4.78,4,8.06,4.64-5.76-1.92-9.41-5.69-10.64-11.64,1.53-.29,3.49.63,4.46-1.15,1.08-2-1.1-2.75-1.89-4-.59-1-1.29-1.84-1.94-2.76,4-3.29,6.58-2.77,8.71,1.63.59,1.22.51,3.11,2.62,3.08,7,5.74,10.23,5.91,16,.8,3-2.66,3.06-5.31,0-7.93-.63-.53-1.34-1-1.93-1.56-1.72-1.66-3.62-3.67-2.3-6,1.22-2.16,3.22.24,4.92.28,1.47,0,2.93.55,4.41.61s3.06.71,4-1,0-2.81-.87-4.06c-.55-.76-1.59-1.66-.89-2.63,3.87-5.36-.53-4.2-3.33-4.3-2.26-.09-4.08-1.32-6-2.3-3.87-2-7.78-2.75-11.87-.66-.36-.39-.62-1.09-.31-1.32,4.06-3,3.05-5.76,0-8.74-1.45-1.39-1.14-3.36-.89-5.19a4.93,4.93,0,0,0,1-4.74c1.32-.86,2.3.08,2.84.93,1.54,2.42,4,2.3,6.35,2.77,2,2.1,4.5,3.57,5.57,6.73.8,2.38,3.55,2.4,5.43.67a34.26,34.26,0,0,0,4.44-5.37c1.33-1.86.46-3.06-1.47-3.78-1.71-.65-4-1.29-3.67-3.45.4-2.67,3.15-1.72,4.93-2.09,3.56-.75,7.33.31,10.82-1.28.91-.41,2.05-.72,2.16-1.79s-1.12-1.51-1.94-2c-3.77-2.4-8.23-2.28-12.36-3.4,0-2.6-3-3-3.72-5-.39-1.21-1.31-2.68-.07-3.72s2,.61,3,1.06c.59.27,1,.9,1.6,1.18,1.31.61,2.92,1.87,4.09.46,1.57-1.88-.8-2.53-1.78-3.28-2.58-2-3.59-3.34-.36-6,4.11-3.43,1.77-8.06.56-12-.82-2.7-1.86-4.63,1.79-5.78,3-.92,1.46-3,.55-4.36-1.48-2.3-1.62-3.74.73-5.88,2.81-2.57.29-5.06-1.48-7.26-1-1.24-3-2.18-2.32-4.07s2.52-.78,3.9-.63c2.7.29,2.49-1.73,2.42-3.31-.13-3-.66-5.93-.73-8.9,0-1.6.18-3.83,2.27-3.84s1.55,2.19,1.59,3.55c.08,2.77.54,5.36,2.89,7.11,1.43,1.07,2,2.07.88,3.71s-.27,2.85.78,4c1.22,1.39,1.68,2.82.45,4.48-.75,1-2.14,2-1.08,3.45s2.68.95,4.15,1,3.52-2.14,4.16.41c.38,1.53-1.65,2.73-3.21,3.37-1.9.78-4,1.41-3.46,4.06.39,2,.53,3.82,3.83,4,2.75.12,1.29,2.72.15,4.06-2.25,2.66-4.23,5,.32,7.47,1.77,1,.38,2.2-.63,3.14C69.37,55,67.18,55.61,67.83,58a1.82,1.82,0,0,0,1.93,1.26c2.32.09,3.65-1.27,4.6-3.2a11.56,11.56,0,0,1,1.15-1.58l.81,3.9c-.5,1.07.07,2.59-.72,3.34-3.64,3.48-2.09,6.92-.18,10.42-1.66.85-5-.71-5,1.4.06,2.65,3.32,1.47,5.24,1.71,1.56.19,3.32-.42,4.45,1.26-.12,2-2.65,4.15-.48,6a6.15,6.15,0,0,0,6.58.63c1.55-.7,3.38-1.24,4.48.53s0,3.66-1.41,4.82c-3.12,2.61-4.19,6.77-7.37,9.31C80.44,99,81.51,101.05,80.38,102.38Z"/></g></g></svg>