<svg xmlns="http://www.w3.org/2000/svg" viewBox="0 0 166.57 51.62"><defs><style>.cls-1{fill:#f2a4a1;}</style></defs><g id="Calque_2" data-name="Calque 2"><g id="Calque_1-2" data-name="Calque 1"><path class="cls-1" d="M156.76,51.62c-.6-2.55-2.52-2.69-4.65-2.67-11.82.11-23.67.68-35.46.15-34.76-1.56-69.54-.49-104.3-1-3.31,0-6.61-.64-9.91-1C-.12,46.87-.37,45.46.35,43.27,6.71,23.9,5.37,28,23,25.55c2.69-.36,5.6.55,8.35,1.13a7.12,7.12,0,0,0,5.31-.5c2.93-2,5.1-4.71,7.54-7.2,7.48-7.66,15.59-14.7,26.1-17.52,17.07-4.6,30.41,2,41,15.3.93,1.16,1.82,2.36,2.7,3.56,5.72,7.8,10.77,8.56,19.77,4.24,10.51-5,21.32-5.3,32,0,.66,1.75,1.24,3.51.2,5.32C164.68,35,162.7,39.94,161.14,45,160.36,47.54,160.13,50.69,156.76,51.62Z"/></g></g></svg>