<svg xmlns="http://www.w3.org/2000/svg" viewBox="0 0 597.61 629.42"><defs><style>.cls-1{fill:#454d1b;}</style></defs><g id="Calque_2" data-name="Calque 2"><g id="Calque_1-2" data-name="Calque 1"><path class="cls-1" d="M478.14,140.46c12.6,6.55,24.45,14.44,29.19,28.42a182.44,182.44,0,0,0,10,24.25c2.9,5.7,7.44,10.19,10.77,15.55,2.46,4.52,2.81,9.53,3.1,14.49.36,6.13.57,12.28.8,18.41.39,10.62,1.14,21.23,1.47,31.87.52,17.08,1.66,34.16,2.51,51.23.51,10.28,1.51,20.57,1.26,30.87-.14,5.86,1.1,11.59,1.12,17.41,0,2.92,1.61,4.2,4.42,4.17a63.4,63.4,0,0,1,18.74,2.18,3.24,3.24,0,0,0,4.07-2c.75-1.67,1.63-3.38-.21-5-1.52-1.33-2.86-2.81-2.92-5,.46-4.24,2.94-7.37,5.64-10.4,4.21-2.17,4.6-6.59,4.9-10.26a303.23,303.23,0,0,0,.75-31.05c-.1-1.75.2-3.47.25-5.21.6-3.37,1.22-6.73.52-10.17.5-3.21.08-6.53,1.13-9.69.51-1.54.67-3.23,2.39-4,2,7.5,4.19,15,5.92,22.52,2.52,11,4.72,22.11,11.5,31.59a12.15,12.15,0,0,1,2,8.92c-.69,6.42-.19,12.95-.5,19.43-.91,19.58-1.65,39.19-3.08,58.74-1.27,17.23-1.69,34.51-3.07,51.72-.72,8.87.25,17.92-2.26,26.77-1.84-1-1.88-3-2.89-4.46-.64-.9-.84-2.6-2.24-2.28-1.68.38-.67,1.87-.64,2.94.18,7.38,2.47,14.4,3.52,21.62.77,5.27,2.51,10.62.37,16.26-7-16-6-34.15-15.09-49.91-1.66,2.23-.76,3.95-.37,5.27a263.18,263.18,0,0,1,9.39,49.86c.87,9.24,3,18.41,2.4,27.79-.09,1.22.54,3-1.24,3.34-1.39.24-1.43-1.54-2.08-2.44-3.42-4.78-5.05-10.44-7.76-15.57-.73-1.38-.81-3.33-3.48-3.49.37,6.19,3.8,11.25,5.4,16.85.5,1.75,1.06,3.49,1.6,5.24,1.18,3.82.93,7.18-2.73,9.72a10.62,10.62,0,0,0-3,3.34c-2.3,4-4.44,4.59-7.8.8-2.49-2.79-6.56-3.37-10.06-4-6.68-1.28-11.5-5.1-15.62-10-11.35-13.5-26.86-16.67-42.2-7.82-14.91,8.59-24.4,21.64-29.22,38.12a2.75,2.75,0,0,1-1.25,1.59c.52-12.08,4.36-23.59,5.84-35.62-2.43,5.14-6.37,9.34-7.58,15-1.17,5.5-2.68,10.92-4.4,17.81-1.8-23.06,3-44.28,3.6-65.81-9.24,23.29-10.73,47.9-12.34,73.76-5-15.18-4.86-30-7.06-44.84-3.15,3.75-3.69,5.15-3.52,12.2.1,4.53-.72,8.94-1,13.42-.28,4.21.53,8.51-.72,13.41-.82-1.11-1.17-1.6-1.54-2.08-1-1.27-1.75-3.48-3.64-2.65s-.65,2.89-.52,4.48c.23,2.65.34,5.31.35,8,0,1.25.58,3-1,3.56s-2.12-1.16-3-2.1c-7.29-8.07-12.3-17.69-18.3-26.64-.88-1.31-1.44-3.7-3.46-2.79-2.18,1-.59,3.08,0,4.34,2.64,5.55,5.15,11.16,8.55,16.33,7.74,11.74,6.85,14.56-6.48,16.26-14.8,1.89-29.57,4.44-44.58,4.51-13.17.06-26.05-3-39.18-3.46-6.63-.24-13.23-1.43-19.85-1.49-22.79-.2-45.53-.85-68.12-4.16-7.39-1.08-14.44-3.94-22-4.1-2.62-.05-2.66-2.14-2.13-4.06.65-2.4,1.51-4.75,2.25-7.13.3-1,.61-2.19-.36-2.74-1.33-.76-2,.55-2.79,1.4s-.85,2.59-2.67,2.92c.78-12.7,5.09-24.24,10.68-35.49-11.06,8.79-14.6,22-21,34.4-1.45-6.26,2.92-11.62.68-18-4.22,6.32-4.07,13.34-6.76,20.56-.79-6.18,1.69-11.1.05-16.16-1.92,4.82-2.34,9.9-2.93,15.11-2.8-6.64-6-13.09-7.35-20.17-.42-2.2-1.44-4.05-2.06-6.1-.28-.94-.53-2.13-1.9-1.71-1.18.36-1.21,1.58-1.06,2.52.73,4.59,1.38,9.21,2.43,13.73,1,4.13.38,6.53-4.59,6.17-4.59-.34-7.87,2.46-10.79,5.43-2,2-3.06,1.7-4.63-.34-2.7-3.49-4.17-7.59-5.73-11.58-4.7-12-13.11-19.89-25-24.7a107,107,0,0,1-15.74-8.53c-10.09-6.2-20.87-10.26-32.69-11.21-3.75-.3-7.12-1.61-10.6-2.71s-4.42-3.5-3-6.63a44.5,44.5,0,0,1,12.58-16.5c2.49-2,5.44-1,8.2-1.27,1.42-.14,3.28.51,4-1.27s-.91-2.78-1.92-3.77c-4.07-4-9-5.25-14.64-4.68-8,.8-15,4.07-21.58,8.49-1,.69-2.16,2.22-3.49,1.38-1.52-1-.61-2.68-.36-4.12,2.49-14,9.84-23,24.69-24.63,1.19-.13,2.69.15,3.63-1.1-12.23-5.65-27.7-1.12-42.35,12.51-1.85-7.11,1.36-12.57,5-18,.86-1.28,2.8-2.6,1.78-4.32s-3.06-.31-4.63-.46c-3.81-.36-7.38,1.13-10.44,2.88-4.09,2.34-4.29.24-4.09-2.7.64-9.61,1.89-19.16,3.2-28.71,1.85-13.54,7-25.92,12.12-38.36a34.56,34.56,0,0,0,1.31-4.27c.05-.19-.29-.49-.66-1C32,425.46,24.21,438.82,20,454.55c-1.68-5-.25-9.13.43-13.14,1.16-6.8.54-13.62.92-20.42,1.05-18.61-.75-37.22,0-55.83,1-25.39,1.8-50.78,3.15-76.15.8-15.08,2.49-30.1,3.75-45.15a22.66,22.66,0,0,0-.47-3.46c-2.66,4.88-2.88,9.35-3.26,13.56-1.78,20.18-3.2,40.39-4.45,60.62-1.51,24.55-2.56,49.12-3.93,73.67-1.15,20.7-3.85,41.31-5.56,62-.66,7.92-1.71,15.82-1.32,23.72-1.3.18-1.68-.4-1.7-1.06-.53-18.63-3.36-37-5.13-55.54-1.83-19.25-1-38.59-1-57.9,0-9.14.18-18.28-.94-27.42-1.64-13.35,2.71-26,5.15-38.88,2.86-15,4.29-30.2,5.8-45.39a184.2,184.2,0,0,1,12.53-50.09c5-12.58,8.56-25.15,2.17-39-3.75-8.12-1.38-17.68-.4-26.6a206.25,206.25,0,0,1,9.13-41.79c8.12-24.74,16.43-49.51,31.7-71.14C69.38,15,71.29,10.05,75.15,6.5c2.3,2.39.62,4.63-.28,6.88a663.68,663.68,0,0,0-24,69.26C49,89.33,49.09,96.11,50,102.93a67.67,67.67,0,0,1,.23,13.94,14.8,14.8,0,0,0,.3,4.93c-.49,31,1.67,61.89,1.07,92.85-.09,4.62,1,9.25.93,13.92,0,3.28,1.48,3.27,3.62,1.37,1.86-1.66,4.05-2.95,5.63-4.92A6.19,6.19,0,0,1,68,222.55c3.65,1.78,2.72,4.68,1.86,7.57-.8,5.37-3.77,9.86-6.11,14.59s-4.55,9.23-7,13.74c1.93-1.54,4-2.93,6.41-1s2.1,4.51.92,6.83a78.93,78.93,0,0,1-7.57,12.26,14.39,14.39,0,0,0-3,9.7c.34,10.44-.7,20.9.83,31.32a32.77,32.77,0,0,1-.17,9.93c.21,15.45.45,30.9.37,46.36,0,6,2.21,8,8,6.32,5.07-1.52,9.47-2.58,13.9,1.51,1.51,1.4,4.19.59,6.34.63,3.11,0,5.58,1.14,6.83,4.09,2.66,6.31,7.61,10.48,13.16,14a17.41,17.41,0,0,1,6.43,6.79c1.25,2.5,2.66,3.15,5.23,3.41,6.06.62,7.94,3.15,7.42,9.14a3.72,3.72,0,0,0,.27,2.4c4.72,7.74,5,16.63,6.5,25.19.44,2.44.22,4.68-1.67,6.44s-1.46,3.47.21,5.11c1.08,1.08,2.54,2.54,2.1,3.8-1.55,4.41.82,6.58,4,8.84,1.58,1.15,2.81,3.09,1.83,5.28-1.21,2.68-3.78,1.29-5.45,1.61,2.37.4,5.46-.9,8.1,2.9.93-43.63.26-86.34.39-129,0-5.95-1.24-6.77-7.28-5.5a8.3,8.3,0,0,1-8.14-2.58c-4.09-4.15-5.63-4.19-10-.5a28.76,28.76,0,0,1-4.13,2.79c-7.76,4.56-12,2.76-14-6-.51-2.2,0-4.51,2-5.11,4.4-1.29,5.73-5.23,8.17-8.22,1.75-4.22,4.2-7.24,9.45-5.72a4,4,0,0,0,2.9-.47c4-2.1,7.65-1.12,11.27,1.16,6.23,3.92,9.54,2.09,9.83-5.32a25.15,25.15,0,0,1,.11-3.48c.69-4,.24-6.57-4.9-5.15a4,4,0,0,1-4.73-2c-1.08-2.08-.12-3.86,1.26-5.44a19.06,19.06,0,0,1,4.5-3.29c-4.12.94-7.76.71-11.28,2.55-3,1.55-5.17-.72-5.66-3.72-.5-3.15-1.94-3.13-4.76-3.12-5.21,0-9.37,3.37-14.38,3.67-2.69-.43-3.52-2.15-3.27-4.64,1-2.71,3.79-4.62,3.54-7.94a1.63,1.63,0,0,1,1.08-1.57c6-1.05,9.34-7.25,16.23-7.64,3.86-.21,9.16-.63,12.34-4.81,1-1.38,3.06-.74,4.71-.37,4.83,1.07,5.89.23,6.18-4.69.18-3,0-5.94.43-8.93s-1-5.4-4.07-5.85-6.62-2.32-8.9,1.69q-1.11,2-2.11,3.95c-2.29,4.51-5.67,7.28-11,7.15-5.82-.91-11-2.41-11.43-9.82-.1-2-1.51-3.28-3.84-2.52-2.48,1.57-4.56,3.9-7.78,4.06-3.1,0-5-1.54-5.61-4.61-.23-2.8-.73-5.57-.93-8.38-.43-6.17.19-7,6.4-8.06.81-.13,1.61-.37,2.41-.5a19.7,19.7,0,0,0,6.71-1.74c3.05-1.37,6.36-1.52,9.14.31,4,2.59,7.72,1.74,11.35-.07a128.79,128.79,0,0,1,11.93-5.1c4.74-1.8,7.21-5.13,7.26-10.21q.09-6.5,0-13c0-3.19-1.39-4-4-2-1.2.89-2.35,1.85-3.54,2.77-3,2.29-6.41,2.67-10,2.13-2.12-.32-4.47-1.63-4.07-3.68,1-4.93-.24-10.35,2.59-14.52-1.93,1.78-3.45,5.41-7.51,4.31-3.81-1-3.81-4.47-4.07-7.85-2,1.6-3.14,3.52-5,4.72A8.5,8.5,0,0,1,92.19,188c-2.38-2.89-1.94-6,2.1-9.44a30,30,0,0,1,14.55-6.84c2.17-.36,3.66-.83,4.83-2.78,1.71-2.85,4.35-3.43,7.37-2.12a19.51,19.51,0,0,0,4.74,1.49c8.43,1.34,13.11-2.53,13.26-11.14.08-4.5.14-9-.08-13.49-.06-1.16-.12-2.47-1.46-2.93s-2,.79-2.74,1.66c-1.62,2-2.46,4.34-3.73,6.49a8.32,8.32,0,0,1-8.32,4.42c-3.45-.28-5.37-2.36-6.2-6.24-1.38,2.28-2.75,4.12-5.08,4.69-2.49.6-4.56-.39-6.5-1.83a5.49,5.49,0,0,0-4.29-.82,10.73,10.73,0,0,1-5.4-.67c-2.65-1-4.91-2.48-4.89-5.61s2.48-3.94,5-4.71a25.93,25.93,0,0,1,7.33-1.22c4.37,0,6.56-2.65,6.45-7-.1-3.86,2.69-6.07,7.21-5.15,3.4.69,6.77,1.65,10.21,2.22,7.48,1.25,12.8-2.83,13.43-10.38a69.15,69.15,0,0,0,.05-9c-.19-3.69-1.11-4.22-4.23-2a43.34,43.34,0,0,1-12.39,6.28c-2.48.77-5.08,1.59-6.63-1.24-1.46-2.66.26-4.78,2.07-6.61s5-2.59,6.62-5.63c-2.9-1.29-5.71.27-8.36-.65-2.3-.8-4.64-1.39-5.2-4s1.81-3.5,3.44-4.91c5.33-4.62,12-6.17,18.39-8.38,3.58-1.25,5.8-3.35,6.13-7s1.69-8.33-.51-10.66c-2.49-2.63-6.16,1.29-9.4,2-2.91.64-5.66,2-8.64,2.36s-5.82-.55-6.89-3.71,1.13-4.9,3.61-6.26c1.25-.69,3.09-.74,3.27-2.67.41-4.49,2.92-5.9,7.19-5.4,2.61.31,4.82-1.26,6.87-2.61,3.22-2.12,2.9-4.29-.66-6-3.87-1.86-4.28-3.92-1.47-7.34.85-1,2.11-1.68,2.76-2.87a5.35,5.35,0,0,0-.68-6.5c-1.55-1.8-3.2-1.12-4.86,0s-3.6,2-5.48.36c-1.69-1.45-1.93-3.46-1.61-5.51.57-3.67,2.76-6.26,6.32-6.92,5.33-1,8.47-4.18,10.49-8.88.69-1.59,1.49-3.24,3.57-2.72,1.88.46,2.51,2.21,2.46,3.93-.11,3.57.91,6.18,4.12,8.34,3,2,3,5.57-.37,8.62-6.8,6.27-1.5,13.53-2.17,20.25-.15,1.55,1.59,1,2.76.81,5.73-1,6.52-.45,6.14,5.2-.13,1.94.58,2.4,2.11,2.48,3.53.18,6.63,2,10.17,2.39,4.14.42,5.52,3.59,3.29,7.28-1.63,2.68-3.54,5.1-4.73,8.11-1.1,2.79-3.82,2.85-6.43,1.83-1.78-.7-2.82-2.29-4.21-3.46-2.21-1.88-4-6.06-6.9-4.86-3.21,1.34-1.24,5.63-1.56,8.62-.36,3.32.89,6.15,2.87,8.8,1.84,2.45,4.09,4,7.2,3.62,3.46-.41,5.41,1,7.13,4,1.85,3.29,5.63,4.41,9.19,5.25,4.74,1.1,5.93,4,3,7.84-4.77,6.22-10.79,5.83-15.22-1-2.1,3.83-5.25,3.32-8.62,2.18-4.79-1.62-6.14-.67-5.4,4.36a64.59,64.59,0,0,1,.77,11.93c-.1,3.08,1.18,4.19,4.17,3.92,2.51-.23,4.93.71,7.4,1.06,1.68.23,3.85,1,4.12,2.44.86,4.69,5.63,5.81,7.7,9.27A2.81,2.81,0,0,0,175,135c4.88.45,5.14,3.46,3.76,7.14-1,2.64.05,3.86,2.55,4.08s4.89,1,7.37,1.27c2.12.27,3.94,1.29,4.22,3.61.32,2.6-1.53,3.85-3.61,4.78a10.92,10.92,0,0,1-3.92.67c-5.53.33-20.9-2.2-25.71-4.09-2-.8-3.48-2.52-6-3.46a27,27,0,0,1-3.46,10.36,4.7,4.7,0,0,0,.11,5.22c1.32,1.81,3.25,1.48,5,.83a14.44,14.44,0,0,1,13.29,1.15c3.22,1.89,7.35,1.26,11.09-.32,6.62-2.79,8.39-1.6,11.32,7.08,1.42,4.2-.77,7.52-6.19,8.93-4,1-8,2.61-12-.2a1.47,1.47,0,0,0-2.22.21c-.64,1.06.08,1.86.9,2.51a2.5,2.5,0,0,0,.89.45c3,.78,6.38,1.36,4.78,5.74-1.77,4.87-6.54,7.77-10.43,6.2a25,25,0,0,0-8.75-1.62c-6.58-.21-6.49-.25-6.71,6.17-.18,5.34.06,10.66.09,16,0,1.26-.49,3,.94,3.6,1.28.57,2.48-.69,3.63-1.28,1.5-.77,2.35-2.33,3.59-3.43,3.79-3.38,6.63-3.57,10.71-.62,4.63,3.35,5,3.33,9.28-.54.61-.57,1.19-1.18,1.84-1.69,2.15-1.69,4.47-3.42,7.19-1.54,2.42,1.67,1.51,4.15.68,6.37-.42,1.13-.93,2.3-.28,3.36,2.76,4.53,4.94,9.61,10.55,11.54A29.42,29.42,0,0,1,211,236.33c2,1,3.85,2.38,3.52,4.88-.36,2.7-2.6,3.71-5,4.16-2.11.39-4.3.15-6.44.4-2,.22-3,.63-1.82,3.13,2,4.32-.21,9.31-4.62,11.48-3.5,1.72-6,.57-9.27-4.05a26.17,26.17,0,0,0-3.05-3.91c-1.33-2.3-2.78-4.38-5.4-5.52a6.67,6.67,0,0,1-3.67-4.44c-.33-1.11-.53-2.3-1.6-3a2.4,2.4,0,0,0-3.18.18c-1.2,1.25-.15,2,.77,2.79,2.12,1.73,5.16,2.41,6.23,5.37a6.12,6.12,0,0,1-1.12,5.18c-5.49,5-10.47,4.69-14.89-.72-1.47-1.82-2.38-5-5.59-3.88-2.94,1.05-3.91,4-4.27,6.84-.61,4.79,0,9.64-.44,14.44.09,1.76.75,3.07,2.74,2.19,2.54-1.12,5.53-1,7.76-2.88,4-3.85,9.45-1.89,14-3.66,7.73-2,14.63,1.46,21.72,3.42,2.94.81,4.54,6.37,3.6,11.41-.6,3.17-2.89,4.16-5.83,4.33-1.78.1-3.59-.48-5.28.06-.26.38-.34.75-.12,1,5.35,6.11,5.46,10.07.4,14.31-5.8,4.86-11.28,4.27-16.24-1.76-.42-.52.08.15-.34-.36-1-1.12-2.14-2.33-2.23-3.71-.27-4.33-3.35-5.34-6.59-6.39-1.22,1.46.19,2.55.22,3.75a3.31,3.31,0,0,0,.42.89c4.32,5.35,3.82,7.12-2.63,9.28-2.64,0-5.33.14-7.88-.73-3.12-1.07-3.64.76-3.26,3s.12,4.65.61,6.93c.32,1.51-.12,3-.14,4.49a16.55,16.55,0,0,0,.62,3.7c.16,2.59,1,4.19,4.05,3.05a3.8,3.8,0,0,1,2.93-.17c6,3.35,13,1.23,19.13,3.74a26.26,26.26,0,0,1,4.52,2c4.37,2.86,4.28,6.88-.35,9.18a26.84,26.84,0,0,0-5.37,3.45c-3.2,2.67-5.36,2.14-7.68-1.51s-9.27-5.28-12.86-3.08c-1.29.78-2.5,1.84-2.51,3.49,0,2.08,1.88,2,3.22,2.44a13.5,13.5,0,0,1,3.16,1.45c1.55,1.06,3,2.3,2.64,4.42a4.51,4.51,0,0,1-3.62,3.7c-1.58.42-3.35.26-4.34,2A22.29,22.29,0,0,0,152.38,366c.43,10,.08,19.94.61,29.93.76,13.92.57,27.9.4,41.86-.2,17,1.38,33.88,2.07,50.82.08,1.89.26,4,2.18,4.72,9.2,3.54,14.75,11.78,22.49,17.16,4.82,3.35,9.43,7.65,16,6a10.25,10.25,0,0,1-3.56-6.51c-.31-2.07-.14-4.18,2-5.17s3.79.38,5.1,2c.83,1.05,1.14,2.41,2.14,3.58,2.36-1.6,4.64-2.71,6.3,1,1.09,2.46,2.92,1.68,4.29.18,1-1.09,1.35-2.68,2.29-3.85,1.6-2,3.46-4.14,6.25-2.72,2.5,1.27,2.19,3.88,1.59,6.23a37.9,37.9,0,0,0-1.21,4.32c-.52,4.09,1.84,7.21,5.93,7.54,12.25,1,23.22,5.53,33.49,12,8.46,5.29,16.79,10.79,25.69,15.35A21.76,21.76,0,0,0,298,553.19c8.84-.59,17.57,1.22,26.4,1.09,3.09,0,4.86-.8,5.9-3.93.58-1.72.46-2.24-.81-3.51-3.54-3.52-3-8.26,1.12-11.08,2.16-1.48,3.8-3,4.54-5.64,2-7,6.23-9.21,13.21-7.06,1,.29,1.88.67,2.83,1-4.23-3.59-3.83-6.61,1.24-8.51,5.55-2.08,10.25-4.77,12.8-10.76,2.38-5.58,8.93-4.87,13.38-7.43a1.21,1.21,0,0,1-.88.38c-2.37.19-5.68,2.64-6.4-1.71-.58-3.5,2.37-4.78,5.27-5.51a9.06,9.06,0,0,1,3-.2c3.51.32,5.32-1.17,6.56-4.57,2.14-5.91,5-7.17,11.2-6a4,4,0,0,0,2,.22c8.5-3,17.68.46,26.26-3.05,3.94-1.61,8.52.21,12.78.55,2.75.22,4.39,2.75,5.84,5,4.83-4.76,8.32-6,10.69-2.8,2.77,3.71,7.49,5.85,8.7,10.78.1.42.7.67,1.11,1-2.75-4-1.86-6.34,2.77-7a19.18,19.18,0,0,1,6.44.45c2.4.49,3.85-.56,3.95-3.16.07-1.83.07-3.67.07-5.5q0-70.47,0-140.95c0-10.15-.25-20.31.28-30.46a7.65,7.65,0,0,1-.31-2.28c.17-2.62.18-5.26.48-7.88-.05-.58-.1-1.15-.18-1.72-.63-11.94.52-23.86,0-35.79-.81-4.51-.13-9.08-.62-13.61,1.79-8.52.93-17.16,1-25.75.12-9.11-.11-18.23.07-27.33A104,104,0,0,0,477,168.74c-.51-7.38-1.63-14.72-1.09-22.15C476.06,144.35,475.65,141.86,478.14,140.46Z"/></g></g></svg>