<svg xmlns="http://www.w3.org/2000/svg" viewBox="0 0 330.25 554.91"><defs><style>.cls-1{fill:#9a9842;}</style></defs><g id="Calque_2" data-name="Calque 2"><g id="Calque_1-2" data-name="Calque 1"><path class="cls-1" d="M91.29,134.74c-.74-3.05-2-6.53,3.51-3.61,1.36.73,2-.42,2.78-1.38a10.33,10.33,0,0,1,5.24-3.67c1.26-.39,2.93-.56,2.71-2.31-.26-2-2-1.77-3.56-1.78a6.69,6.69,0,0,1-3.1-.68c3.42-1.66,7.68-1.88,10-5.11s4.44-6.69,3.16-11.31c-3.11.82-3.74,5.79-8.1,4.47-3.07-.93-5.91-2-8.24-4,.4-1.27,1.21-1.33,2.06-1.39,8.38-.52,13.67-5.65,14.45-14q.7-7.44,1.51-14.87c0-.39.52-.74,1.67-2.27-.34,6.67-.55,12.06-.9,17.44-.3,4.61.59,7.79,6,9.21,3.22.84,5.8,3.79,9.71,3.91,1.72,0,1.63,1.81-.13,2.65-2.88,1.36-5.72,1.64-8.51-.31-1.82-1.29-4.15-2.75-5.7-.45s-1.85,5.67.42,7.82c2.73,2.59,4.28,7.51,10.08,5.15,2.44-1,2.79,2.74,4,4.36s0,2.38-1.39,2.94c-3.46,1.35.75,3.36-.67,5.21-2.36.36-3.23-2.22-5-3.14-2-1-4.45-2.16-5.78.08-1.09,1.82-1.28,4.57,1.42,6.11,1.41.81,3.42,1.55,3,3.5-.38,1.79-2.34,2.09-4,2.28-1,.1-2.19,0-2.33,1.31a2.51,2.51,0,0,0,1.62,2.32c1,.51,2.46,1.27,3.24.9,6.43-3,10.7,1.69,14.57,4.83,4.35,3.53,9,4.34,14.58,5.14-2.06,2.89-4.84,4.81-6.61,7.65-1.09,1.75-3-.36-3.94-1.59-1.49-1.87-3-3.61-5.53-3.9-1-.12-2.06-.25-2.57.93-1.32,3-2.47,3.24-4.3.06-1.68-2.94-3.28-4.1-6.71-2.83-2.23.83-5.08,0-5.82,3.45-.86,4-1.7,7.89,1.48,11.33.56.6,1.16,1.66,2,1.23,4.42-2.35,7.27,2.66,11.27,2.28a1.94,1.94,0,0,1,2.14,1.7c.14,1.23-.76,1.69-1.63,2.24s-2.76.21-2.38,1.91a4.49,4.49,0,0,0,3.12,3c2.58.9,5.28.53,7.91.17,2.11-.28,4.2-.2,5.45,1.6,1.63,2.35,3.16,4.12,6.34,2.66a1.44,1.44,0,0,1,2,1,2,2,0,0,1-.83,2.19c-.79.59-1.71,1.43-2.59,1.43-6.19,0-11.38,3-16.67,5.6-1.66.83-3.1.67-3.79-.94-1.88-4.38-6.25-6.21-9.21-9.46-1-1.11-1.87-2.11-3.14-.47-.92,1.19-1.93,2.59-.34,3.93a50.08,50.08,0,0,0,4.48,3.09,2.68,2.68,0,0,1,1.26,3.43c-.58,1.45-1.84,1-3,.73-1.82-.44-4.22-1.89-4.53,1.49s-1.47,7.57,3.28,8.74c2.7.66,4.62,1.48,5.55,4.17.2.58.88,1.54,1.17,1.48,4.82-1,8.35,3.53,13.09,2.95,2.39-.29,4.86-.16,2.65,3.39-.34.55-.79,1.67-.22,1.68,4.44.07,6.92,6.12,12,3.93,2.55-1.1,3.32,0,3.42,2.3,2.32,1.36,4.85.33,7.27.62,1.25.15,3-.35,3,1.67a2.48,2.48,0,0,1-2.65,2.46,6.39,6.39,0,0,0-5.3,2.13c-1.56.84-2.81,2.22-4.58,2.71-4.26,2-8.76-.11-13.09.75-3.14-3.37-6.22-3.51-10.23-.93-3,1.94-6.84,2.64-10.37.24-.78-.53-1.86-1.29-2.45.14a2,2,0,0,0,1.34,2.8,10.74,10.74,0,0,0,2.94.45c5.48.68,7,2.05,8.42,7.5,1.22,4.7,0,6.36-5,6.66a28.87,28.87,0,0,0-4.91.11c6.74,2.76,12.69,3.83,18.75-.63,4.1-3,6.8-2.44,9.41,1.83,1.82,3,5.38,1.38,7.31,3.55,2.57,3.9,2.11,5.4-2.24,6.49-1.48.37-2.85.71-3.8,2-.54.76-1.73,1.09-1.38,2.71,3.45-.64,7.08-3.35,10.46-.47,1.83,1.56.66,3.64-.25,5.43-2.38,3.56-7,4.69-9.16,8.7-1,1.87-3.65,1.87-5.75.29a27.39,27.39,0,0,0-4.11-2.77c-3.68-2.71-8-4.45-11.82-6.94,2.5,4.49,7,6.18,11.4,7.91.8.23,1.84.06,2.4.6,3.31,3.18,6.87,3.23,10.9,1.45,2.12-.93,3.88.06,4.84,2.25a8.5,8.5,0,0,0,.85,1.8c4.14,5.39,3.5,4.53-2.13,8.83-6,4.58-12.42,3.17-17.94,2.1-4.36-.86-9.41-.94-13.55-3.45-2.2-1.33-4.12-.07-6.13.65,2.38,4.14,4.42,4.74,9.88,3.69,3-.58,6.84-2.62,6.72,3.6,0,2,2.82,1.74,4.57,1.48s3.46-1.19,5.35-1.14c4.11.11,5.37,2.17,3.33,5.67-.58,1-1.68,1.84-.91,3.06.67,1.06,1.83.42,2.77.31,4.35-.51,8.3,1.84,12.72,1.61,2.94-.15,3.46,2.64,1.37,5.54-.71,1-2.7,1.62-1.78,3.14s2.36,0,3.56-.26c2.33-.51,5.09-2.36,6.65.74s-.66,5.34-3.11,7C163,334.09,157,334.94,148,333.37c3.63,1.16,6,2.38,9.15,1.48,2.51-.7,4.86,1.39,5.49,4.06.7,3-1.57,4.3-3.95,4.77-4,.78-8,3-12.08.41-.91-.57-1.92-.11-2.9.09-7.28,1.52-10.89-1.34-11.36-8.91a1.46,1.46,0,0,0-.83-1.47c-2.42,1-5.27,1.22-5.79,5.31-.35,2.73-3.44,2.6-5.83,2.49-1-.05-2.08-.35-2.6.86s.17,1.86.92,2.6c2.35,2.31,4.37,5.06,8.28,4.78a3.56,3.56,0,0,1,3.72,2.07c.71,1.86-.61,3.11-1.9,4.24-.13.11-.34.17-.39.3-1.94,4.34-4.81,7.3-9.07,10-4.82,3.1-4.95,11.56-2,16.73,1.1,1.92,1.66,3.85.38,5.61-2,2.8-1.79,5.92-2,9.06-1.15,15.79-1,31.59-.95,47.4,0,5.95.24,6,5.92,4.69a36.41,36.41,0,0,0,11.54-4.61c7-4.44,14.63-6.13,22.68-6.78,4.73-.37,9-1.54,12.2-5.68a13.53,13.53,0,0,1,9.94-5.16c3.05-.24,4-1.42,3.13-4.55-1.74-6.17,1.41-11.63,3.06-17.28a2.31,2.31,0,0,1,2.33-1.59c1.36,0,2,1,2.56,2.06.8,1.65.28,3.64,1.67,6.23.75-3.69,1.66-6.47,1.54-9.39-.68-16.54,3.25-32.73,3.78-49.14.46-14.12,1.77-28.22,1.32-42.39a107.08,107.08,0,0,1,1.42-22.23c1.17-6.58-.71-13.25-.49-19.91.11-3.33,0-6.66.37-10-.31-1.53.27-3,0-4.55-.54-1.65.22-3.23.21-4.85,0-.56-.07-1.12-.12-1.69,1-5.54,1-11.23,2.53-16.67q1.23-60.69,2.47-121.38c.58-27.64,1.26-55.28,1.81-82.93.21-10.54.82-8.41-8.71-8.68a54.2,54.2,0,0,0-12.36,1.49c-2.17.44-4.42,1.27-6.87.11.63-2,2.24-2.1,3.54-2.58,5.61-2.09,11.15-4.44,16.87-6.14,6.06-1.8,9.46-5,8.45-11.71q7.89,15.71,15.8,31.4c4.18,8.26,9.53,15.9,13,24.53,1.29,17.13.39,34.3.61,51.45,1.22,97.13.68,194.27.81,291.41,0,2.42-.4,4.94,1.29,8.23,4.81-9.7,12.27-16.68,12.37-28.24.25-30.3.14-60.63,1.06-90.91.62-20.66.16-41.3.79-61.94.09-2.9,1-5.5,1.37-8.28a51.81,51.81,0,0,0-.84-15.86c1.41-13.47-.35-27,.63-40.45,1.44-19.8.36-39.62.82-59.43.07-2.73.24-5.4,3.11-6.85,6.8,4.19,11.86,10.59,18.76,14.66,3.56,2.1,6.9,4.58,10.34,6.89,1.76,2,2.18,4.36,2.18,7,0,43,.81,86-.3,128.92-.85,33-.18,65.92-.68,98.88-.1,6.24-.91,12.46-.13,18.76.6,4.85,2.54,6.34,6.75,3.76a37.34,37.34,0,0,1,9.72-4.6,15.12,15.12,0,0,1-14.09-1.85c-2-1.33-3.7-3.22-2.71-5.87.88-2.35,3.13-2.71,5.4-2.82a20.5,20.5,0,0,1,6.73,1c-.93-1.9-2.54-3.51-1-5.51a4.45,4.45,0,0,1,5-1.32c2.78.75,4.9.52,7.19-1.59,1.75-1.6,4.51,0,6.17-.49-.22,0-1,0-1.88,0-1.38-.06-2.88-.16-2.82-2,.06-1.67,1.52-1.41,2.66-1.48a44.71,44.71,0,0,0,5.66-1,21.4,21.4,0,0,1-4.88.89c-2,.09-3.24.46-4.19,2.57a5.34,5.34,0,0,1-5.87,2.9,62.29,62.29,0,0,1-7.38-1.16c-2.85-.72-5.84-2.33-5.11-5.7.8-3.71,4.09-3.1,6.91-2.38-.27-.5.43.4.3.21-2.92-4.08-1.15-5.81,3.08-6.08,2.09-.14,3.67,1.38,5.41,2.35,5,2.76,6.78,2.46,11-1.58-4.2,4.29-5.73,4.35-9-.1-1-1.38-2.18-1.22-3.46-1.39-4.1-.56-8.29-.38-12.35-1.33a7.64,7.64,0,0,1-4.69-2.65,4.32,4.32,0,0,1-.43-5.13c1.09-1.83,2.82-2.21,4.78-1.72,1.63.41,3,1.52,4.53,2.06,1.14.39,2.77,1.53,3.55-.14,1.5-3.25,4.3-1.68,6.28-2.12l-4.58,0c-4.14,0-5.22-1.28-3.63-5,.67-1.55.64-2-.88-2.35a9.62,9.62,0,0,1-3.06-1.67c-1.84-1.31-3.62-2.93-2.74-5.34,1-2.65,3.43-2.24,5.56-1.61,5.67,1.68,12.27-.89,17.16,4.51,0-2.55-1.3-3.11-2.78-3.4-4-.76-6.08-3.93-8.26-6.79a4.49,4.49,0,0,1,.45-6.36c1.86-1.68,3.9-.7,5.37.73,2.44,2.36,5,2.26,8.19,2,3.83-.35,7.79,1,11.58,2.21q.18,54.47.37,108.93.09,34.49.05,69c0,5.93,0,5.93-6,5-2.63-.4-5.21-1.25-7.91-.78-1,.17-2.15.42-2.32,1.53s.88,1.7,1.83,2c2.1.74,4.23,1.41,7.7,2.56-4.51,1.28-7.46,1.17-10.44,0-1.16-.46-2.63-1.29-2.31-2.29,1.91-5.94-1.75-2.68-3.57-2.21-.86.22-1.56,1.57-2.56.48-.81-.88-.12-1.78.24-2.73,1.26-3.37-.86-6.25-4.44-5.95-2.13.17-4.2.67-2.7,3.71.47.94,1.59,2.06.16,3.06s-2.56.4-3.54-.69-2.09-2.56-3.15-3.82c-1.86-2.22-3.47-5.49-6.86-1.74a1.15,1.15,0,0,1-1.76.08c-4.47-4.41-9.07-1.23-13.42,0a20,20,0,0,1-7.29.89c-3.91-.32-8-2.63-11.6,1.1-.82.84-2.25,0-3.33-.36-5.34-1.9-9.63.64-9.31,6.45.22,4-1.37,3.9-4.14,4-3,.09-6-.74-8.85.75-1.17.62-2.65,1.25-2,2.91.5,1.35,1.95,1,3.08.9,2.64-.13,5.23-1.33,7.89-.48,1.08.34,2.45.95,2,2.37-.48,1.71-1.82.9-2.86.49-3-1.2-5.38,0-8.41.83-8.11,2.19-8,11.72-15,14.35-2.22.83-4.15,2.52-6.69,3-1.27.23-3.47.49-3.15,2.41.25,1.53,2.14,1.8,3.66,2,1.72.26,3.63-.55,5.58,1.21-3.93,1.72-7.17,3.53-11.63,1.65-5.93-2.49-8.51-.41-9.53,6a7.71,7.71,0,0,1-5.19,6.06c-4.1,1.4-3.55,4.3-2.63,7.29.65,2.13,1.9,3.23,3.94,1.12.61-.63,1.1-2,2.25-1,1,.85.35,1.88-.51,2.52-2.81,2.09-6.21,3.74-2.3,8,1,1-1.29,1.45-2.33,1.46-3.83,0-7.66,0-11.49-.11-8.31-.29-16.62-.6-24.92-1-5.34-.28-9.83-2.93-14.26-5.6-9-5.4-17.82-11-26.94-16.2a60.79,60.79,0,0,0-27.52-8.12c-4-.18-7.92-5.21-7-9.15.5-2.25,1.45-4.41,2.1-6.64.35-1.23,1.08-2.83-.46-3.57s-2.37.87-3.1,1.89a31.8,31.8,0,0,0-2.48,4.32c-.67,1.33-1.17,2.73-1.93,4.54-1.65-2-3.35-5.09-5.06-.18-1.31-2.31-.94-4.84-2.69-6.76-2,1.76-1.84,4.2-2.38,7-2.51-2.7-3.12-5.8-4.55-8.45-.64-1.19-1.13-3.35-3-2.46-1.52.71-1.15,2.66-.53,4,1.63,3.65,3.4,7.23,5,11.34-2.29-1.81-4.22-5.34-7.38-1.42-.57.71-2.13-.41-3.15-1a74.85,74.85,0,0,1-18-13.27,40.54,40.54,0,0,0-14.21-9.94C4,493,3.17,491.07,3,488c-1.63-26.94-1.48-53.92-2-80.88C.63,392.82.62,378.52,0,364.24a24.24,24.24,0,0,1,4-14.47c7-.25,11.07,4.29,14.93,9.16,1.5,1.9,1.85,3.87.38,5.95,2,.87,3.79,2,4.26,4.34.43,2.21-.23,3.34-3.65,6.06,1,.81,3,.22,3.22,1.69.53,4.33,4.21,6.09,6.83,8.6,4.15,4,4.1,5.67-.94,8.26.19.2.51.23.82.39,2.45,1.26,5.86,1.81,6,5.22.16,3.14-3.29,3.18-5.09,4.69-2.81,2.34-6.44,3.77-7.53,8.16s-4.88,3.7-8.23,2.53c-1.45-.5-3.31-1.5-3.15,1,.11,1.67-4,3.47.15,5.07,2.84,1.1,2.11,3.37,1.12,5.45-3.61,7.6-3.15,9.05,3.73,13.93,8.49,6,17.53,10.76,27.83,12.9,2.87.59,4.36-.44,2.86-2.93-3.78-6.3-.56-13.62-3.41-20-.7-1.57-.78-4.07,1.46-4.69,2.79-.76,2.55,2.17,3.37,3.42-.53-2.15-2-4.33-1.9-6.9.06-1.87.27-4.05,2.49-4.33s3.24,1.71,3.38,3.58c.32,4.24,1.34,8.49.31,12.53.49-1.2.19-2.74.47-4.21.38-2,.83-4.4,3.33-4.27,2.83.15,2.87,2.76,3,4.95.18,2.57-1.1,4.84-1.44,6.62a4.58,4.58,0,0,1,1.85-2.45,3.4,3.4,0,0,1,3.24-.85c1.48.55,1.8,1.92,1.75,3.29a35.43,35.43,0,0,1-2,9.24c-2.51,8-1.46,9.22,7,9.56,7.19.28,14.24-1.29,21.41-1.2,3.38,0,5.1-1.82,5-5.41-.52-13.49,1.55-26.91,1-40.4-.34-9,1.6-17.91,1-26.91-.14-2,0-3.94-.85-5.87-2-4.55-1.8-6,.3-10.08-4,1.39-7.56,4.66-11.86,6.51-5.47,2.36-11.67.19-15.3-4.68-1.07-1.44-1.87-3.21-.62-4.59,2.68-3,4.09-6.89,7.33-9.39,1.21-.93,2.53-2.25,4-1.85,6,1.72,10.21-2.5,15-4.49,2.83-1.18,4.13-7,2.56-9.58-1.07-1.76-2.19-1.14-3.09.15-1.12,1.6-.91,3.45-.85,5.3.11,3-1.12,5.11-4.43,4.35-2.52-.58-4.1.86-6,1.75-3.86,1.81-5.77.65-5.56-3.6a58.13,58.13,0,0,0,.12-6.47c-.13-2.2-1.47-2-2.73-1.53-2.5.85-3.95,6-2.45,8.34,2.38,3.69,2,5.59-1.8,7.54-3.25,1.65-6.55,3-9.21,5.74-2.08,2.14-14.55.18-16.53-2.18a7.27,7.27,0,0,1-.82-1.25c-1.72-3.25.89-6.38.12-9.78-.89-3.93,2.67-5.24,5.51-6.67a5,5,0,0,0,1.69-1.19c.05-1.5-1.5-2-2.15-3.06-2-3.32-1.23-6.11,2.52-6.83a7.55,7.55,0,0,0,5.75-4.05,5.66,5.66,0,0,1,3.31-2.92c2.32-.59,4-1.34,5-3.93s4-2.06,6.24-2.16,3.6-.57,4.89-2.55c1.53-2.37,4.22-3.67,6.64-5.14,1.58-.95,3.79-.56,5.07-2,2.9-3.17,6.29-5.8,9.41-8.88-5.29,5.85-13.58,3-19.64,7.07-2.22,1.49-6.16.49-7.74-2.69-1.48-3,1.1-4.94,2.69-7s3.94-2.44,6.16-3.08c1.94-.54,3.87-1,5.37-2.43a6.76,6.76,0,0,1,3.36-1.92c4.64-1.55,6.83-5.23,7.88-9C96,282.61,90.84,285.46,86.4,289c-2.7.8-5.29,2-8.1,2.33-2.06.26-4.12.08-5-2.25-.73-2,.4-3.5,1.87-4.74a22.35,22.35,0,0,1,2.94-1.85,2.26,2.26,0,0,0,1-2.59c-.34-1.23-1.54-.06-2.08-.43-3.88-2.62-7.57-5.53-11.33-8.33-1.59-1.19.5-8.75,2.27-10.07s3.63-.7,5,.56c1.94,1.81,4.13,1.86,6.47,1.67a4.51,4.51,0,0,1,1.42,0c3.49,1.73,6.79.51,10.08-.67,5.2-3.23,10.52-6.31,12.24-12.88.52-2,.89-3.94.14-5.87a9.52,9.52,0,0,1,1-9.06c-2,3.18-3.22,6.77-5.76,9.55-1.26,1.36-2.82,2.6-4.82,1.51-1.75-.95-1.76-2.74-1.34-4.41.59-2.37.4-5.09,2.56-6.53-6.06,5.83-11.2,7.51-16.71,5.33a6.79,6.79,0,0,0-3.82-.69c-2.69.37-5.22,0-5.81-3-.65-3.31,2.74-3,4.51-4.07,1.06-.41,2.25-.41,3.3-.83,3.26-1.3,3.79-3.32,1.43-5.8A10.81,10.81,0,0,1,74.8,221c.5-1.31-.82-2.83.45-4.05,3.15,1.4,5.77,2.51,9.37-.33,2.35-1.86,6.68-1.15,10.1-1.76,6.32-1.12,13-8.93,12.58-14.72-.07-1.06.47-2.58-1.09-2.93-1.27-.29-2.23.7-2.74,1.76-1.42,2.86-3,5.55-5.79,7.33-1.19.77-2.44,2.55-3.84,1.16-1.61-1.61,0-3,1.24-4.13a13.42,13.42,0,0,1,2.57-1.45c-.34-.43-.68-.85-1-1.27A38.56,38.56,0,0,1,92,202.75c-1.3.42-2.78.27-3.3-1.34a1.94,1.94,0,0,1,1.76-2.53c6.16-.94,7.88-8.51,14.12-9.36a1.77,1.77,0,0,0,1.06-2.45,1.73,1.73,0,0,0-2.94-.46,9.57,9.57,0,0,1-7.43,3.12c-4.71-.68-8.27,1.11-12.23,2.68-1.62.65-3.08-1-3.68-2.7s.84-2.24,1.95-3a65.69,65.69,0,0,0,5.72-4c2.38-2,4.59-2.4,7.09-.21,1.28,1.12,3.28,2.18,4.2.1,1.08-2.4-1.54-1.78-2.71-2.18a4,4,0,0,1-2.28-1.77c-1.77-3-4.31-2.38-7-1.53-1.28.41-1.8,3.17-3.57,1.53a27.23,27.23,0,0,1-4.26-5.44c-.68-1.08.26-1.94,1.34-2.09a5.6,5.6,0,0,1,2.94.2c7.92,3.5,14.8-1.13,22-2.88,3.78-.92,5.79-6.67,4.34-10.52a3.42,3.42,0,0,0-.73-1.06c-4.42,2.52-8.82-2.34-13.34,0,2.55-3,3.24-7.88,8.79-7.5,1.37.1,2.54-1.41,3.45-2.66,1.33-1.8,2.83-4,1.32-5.88s-4.54-1.56-6.33-.14c-4.29,3.41-10.38,2.1-14.58,6.11,3.48-2.3-2-7.62,3.38-8.93,1.53-.67,3.28-.22,4.87-.91C93.61,137.82,92.1,137,91.29,134.74Z"/></g></g></svg>