<svg xmlns="http://www.w3.org/2000/svg" viewBox="0 0 180.8 137.47"><defs><style>.cls-1{fill:#f1aca9;}</style></defs><g id="Calque_2" data-name="Calque 2"><g id="Calque_1-2" data-name="Calque 1"><path class="cls-1" d="M176.45,130.47a16.39,16.39,0,0,0-3,7c-2.55-.82-2.18-3.24-2.43-5-1.89-13.37-7.56-25.71-10.35-38.82-.76-3.59-3.48-6-5.24-9-4.37-7.42-7.45-16-13.75-21.82-9-8.33-17.8-17.52-30-21.61-9-3-16.79-8.48-25.84-11.46-4.49-1.48-8.94-1.48-13.22-1.48-9.46,0-18.73-2-28.45-.72-7.29.94-14.52,2.7-21.94,3.23A33.61,33.61,0,0,0,5.57,36.71c-1.46,1-3.3,2.56-4.89.84-1.89-2.06.65-3.2,1.73-4.41C18.59,15.06,39,4.07,62.76,1c18.83-2.41,37.62-.76,55.71,7.2,24.86,11,42.58,28.83,53.66,53.06a93,93,0,0,1,5.64,62.85C177.24,126.22,176.89,128.36,176.45,130.47Z"/></g></g></svg>