<svg xmlns="http://www.w3.org/2000/svg" viewBox="0 0 105.55 172.02"><defs><style>.cls-1{fill:#79c0d8;}.cls-2{fill:#e9fbfd;}.cls-3{fill:#6cbbd7;}.cls-4{fill:#6fbfdb;}.cls-5{fill:#7bc0d7;}.cls-6{fill:#83cfea;}.cls-7{fill:#90c4d8;}</style></defs><g id="Calque_2" data-name="Calque 2"><g id="Calque_1-2" data-name="Calque 1"><path class="cls-1" d="M105.55,103V115.6c-3.68,4.9-11.3,6.6-11.53,14.28-.34,3.61-.65,7.22-2.89,10.29-13.5-2.3-13.9-14.75-20.08-23.59-6,.81-13.71,20.23-21.47-2.12C47.35,108,34.69,102.29,24,102.6c-5.14-2.34-6.33-5.94-3.44-10.82a8.94,8.94,0,0,1,3.24-2.42c5,0,3.48-3.77,3.79-6.53a27.21,27.21,0,0,1,.46-4.63c1.9-8.76,5.1-19.14,14.19-19.77,9.88-.69,12.84,9.81,14.84,18.51-2.69,4.41-2,8.42,1.49,12,4.39,2.6,5.34-4.11,9-3.38,4.57-.07,7.65,2.82,10.87,5.43,2.51,2.28,5.35,3.74,8.87,3.46a8.42,8.42,0,0,1,6.71,3.11C97.23,100.75,102.71,99.14,105.55,103Z"/><path class="cls-2" d="M89.76,128.27c-1.38-12.49,9-10.28,15.79-12.67v22C96.63,140.69,93.68,133.65,89.76,128.27Z"/><path class="cls-3" d="M29.89,115.67c-9.63-2.29-8.13-9-6.19-15.78,13.89-5.33,20.89,8.16,31.28,12.2,7.68,3,6.87,5.5,13.89-2.83,3.9-4.63,8.76.39,8.53,1-5.11,14.1,9.92,19.78,12.4,30.5a21.91,21.91,0,0,0,12.61,3.12c-11,7.65-23.44-.78-34.8,3.05-4.17-5.16-8.28-3.84-12.37.1-6.41,1-13.7-3.55-19.21,3.06-5.1-2.3-5-6.3-3.59-10.77C29.47,131.66,30.67,123.56,29.89,115.67Z"/><path class="cls-4" d="M29.89,115.67l14-3c-10.48,8.23-15.17,15.07-5,23,.28.23-1.65,3.3-2.55,5-5.22-2.7-9.85-1.39-9.92,4.42-.07,5.15-4.18,9.19-2.7,14.34-13.57-6.86-11.3,10.84-19.39,12.5-10.25-18.1-1.27-42.41,16.19-43.84,2.61-2.79,3.12-7,6.36-9.33Z"/><path class="cls-5" d="M76.46,74.91A5.82,5.82,0,0,1,71,71.33c-1.46-3.87,3-5.58,3.22-8.85,6-6.27-3.59-12.81.33-19.12,6.6-3.45,3.44-9.87,4.54-15,1.78-4.37,3.61-8.73,1.81-13.58l.18-12.4c3.61-3.06,7.22-3.33,10.83,0q.58,6.24,1.16,12.47c3.87,6.93-1.19,15.34,3.67,22.1-1.18,5.76-4.86,11.83.7,17.07,6.37,6,.08,9.88-1.9,14.53,0,6-.39,11.73-8.55,11.88C82.47,80.5,79.83,77,76.46,74.91Z"/><path class="cls-6" d="M68,87.32c-3.62-10,7.06-5.65,9.54-9.53,5.41.06,8.42,3.47,10.8,7.78-.36,7.06-2.87,11.29-10.88,8.24Z"/><path class="cls-7" d="M96.44,81.07l-9.74-.13a1.86,1.86,0,0,1-.71-2c.25-.67.49-1,.73-1,6.69.43,5.32-6.75,8.81-9.34,1.6,2.83,4.35,2.94,7.12,3C102.11,75.71,103.06,80.85,96.44,81.07Z"/></g></g></svg>