<svg xmlns="http://www.w3.org/2000/svg" viewBox="0 0 59.4 110.57"><defs><style>.cls-1{fill:#78c4db;}.cls-2{fill:#c3f6fd;}.cls-3{fill:#a3c3ce;}.cls-4{fill:#7abcd3;}.cls-5{fill:#8ec9db;}.cls-6{fill:#88c0d4;}.cls-7{fill:#a4d1e4;}.cls-8{fill:#b1ccd3;}.cls-9{fill:#74bed5;}.cls-10{fill:#a2c5c8;}.cls-11{fill:#67bed9;}</style></defs><g id="Calque_2" data-name="Calque 2"><g id="Calque_1-2" data-name="Calque 1"><path class="cls-1" d="M34.53,97.85l-.15,12.72L25,104.51c3.24-9.21-6.39-6.12-9.16-9.6C11.1,89.05,3.07,86.41,0,78.85c3.09-8,11.84-1.23,16.12-6.15,1.12-4.73,2.13-9.51,5.68-13.21a6.4,6.4,0,0,1,4.21,0c4,2.59,4.51,6.51,4.31,10.82-.35,7.61-3.91,16,6.87,20.45C40.08,92,37.68,96.23,34.53,97.85Z"/><path class="cls-2" d="M15.88,94.91c3.82.35,7.79-4.63,11.15-.75,3,3.42,1.9,7.5-2,10.35Z"/><path class="cls-1" d="M57.06,60.28l-3,3.5c-6.91.58-13.29-2.23-20-3.16-2.88-5.34.6-8.29,4.19-11.22,2.61-1.61,5.24-3.17,8.46-1.66C47.3,54.29,55.85,54.26,57.06,60.28Z"/><path class="cls-3" d="M40.52,22.59c1.8,3,3.92.93,5.93.37-1,5.3,6.25,10,1,15.61a10.72,10.72,0,0,1-6-1.79C38,33.91,35.83,30.35,36,25.66,36.69,23.44,37.77,21.79,40.52,22.59Z"/><path class="cls-4" d="M43.88,35.57l3.6,3-.75,9.18-5.94,3.09A8.75,8.75,0,0,1,38.23,47C37.43,41.86,38.3,37.54,43.88,35.57Z"/><path class="cls-5" d="M16,38.12c5.26-8.92-.9-22.72,12.08-28.35,2.17-1.73,4.3-1.73,6.41.1,3.55,2.22,4.64,6,6,9.56-3.7,2.36-7.75,4.3-10,8.39a6.6,6.6,0,0,1-3.26,1.89c-8.19-1.55,1.41,5.73-2.9,6.16a8.21,8.21,0,0,1-2.5,3.43C19.69,40.12,17.66,40.11,16,38.12Z"/><path class="cls-6" d="M22,60.25C21.23,65,24.21,71.44,16.12,72.7c-13-3.39-4.51-12-4.53-18.58a5.62,5.62,0,0,1,5.48-2,7.26,7.26,0,0,1,3.4,2.25A9.3,9.3,0,0,1,22,60.25Z"/><path class="cls-7" d="M18.77,54l-7.18.13c-12.07-9.09,0-11.49,4.44-16L22,38.2C26.67,44.63,24.47,49.66,18.77,54Z"/><path class="cls-4" d="M28.22,28.77c-.84-9.65,5.52-9.81,12.34-9.34,0,1.05,0,2.11,0,3.16l-3.07,3C35.47,29.9,32.68,31.79,28.22,28.77Z"/><path class="cls-8" d="M34.52,9.87l-6.4-.1L28.39.7c3.59-2.19,4.38,1.33,6.1,3Z"/><path class="cls-9" d="M34.55,60.25c7.65-5.18,14-3,19.51,3.52-1.36,5.41-11.32,5.13-8.82,12.75,1.15,3.49,5,2.73,8.09,2.52,1.74,2.07,2,4.17.12,6.31.38,4.59,8.6,11.14-3.17,12.68-3.1-4.16-6.26-3.31-9.43-.1-2.15,3.46-4.21-.33-6.32-.08.45-1.44,1.38-4.11,1.27-4.16-15.9-6.34-8.21-19.88-9.5-30.64a10.5,10.5,0,0,0-1.21-2.79C28.24,57.46,31.39,57.76,34.55,60.25Z"/><path class="cls-10" d="M53.45,85.35,53.33,79c1.91-2.24,4.41-3.12,5.6,0C60.66,83.71,57.35,85.05,53.45,85.35Z"/><path class="cls-11" d="M34.55,60.25H25.09l-1.56,0H22l-3.1-3.16c6.39-4.84,5.25-12.9,8.21-19.22,13.79-9.66,8.51,7.37,13.69,9.78,0,1.06,0,2.12,0,3.18C38.84,54.06,34.09,55.43,34.55,60.25Z"/><path class="cls-1" d="M40.77,47.65c-7.05.69-2.87-13.59-12.54-9.41l-1.51-1.58c-1.25-3-1.06-5.67,1.51-7.91v0l9.23-3.14q3.21,5,6.43,9.94A19.42,19.42,0,0,0,40.77,47.65Z"/></g></g></svg>