<svg xmlns="http://www.w3.org/2000/svg" viewBox="0 0 1581.29 458.94"><defs><style>.cls-1{fill:#029ed4;}.cls-2{fill:#029fd3;}.cls-3{fill:#079bcf;}.cls-4{fill:#029fd4;}.cls-5{fill:#12a2d1;}.cls-6{fill:#159ac8;}</style></defs><g id="Calque_2" data-name="Calque 2"><g id="Calque_1-2" data-name="Calque 1"><path class="cls-1" d="M358.43,289.42l-.16,9.34c-8,3.69-9.48-1.61-11.14-7.62-3.69-13.35-7.27-26.71-8.6-40.73-1.46,5.07-1.66,10.47-4.42,15.06-3.9,12.17-8,24.3-4.82,37.4-.08,6.53-1,12.7-7.46,16.26-3.32.75-6.19-.28-8.82-2.25-2.87-23.3-11.17-44.73-22.67-65-1.54-2.71-2.69-5.69-6.3-6.2-3.48-.1-7.34,1.94-7.31,4.44.17,15.67-12.9,26-15.57,40.41-7.79,14-14.53,28.65-18.69,44-3.31,12.2-8.44,11-16.25,5.21h0c-6-2.22-6.74-7.63-6.81-12.7-.14-11-5.18-19.66-12.06-27.6a21.9,21.9,0,0,1-2.16-3.68c-1.24-5.84-5.35-9-10.48-11.31a10.61,10.61,0,0,1-2.53-3.41c-3.17-12.39-8.5-24.78,1.92-36.7,1.22-1.38-2.87-1.41-4.52-2.11a17.89,17.89,0,0,1-4.53-1c-5.58-2.53-14.77,3.61-17.09-5.69-2.17-8.69-.29-17.18,8.24-22.58a25.67,25.67,0,0,1,3.91-2.38c4.42-1.54,4.87-3.71,2.83-8.22-6.85-15.22-13.31-30.64-11.61-48.05.35-3.65-1.46-7.2-3.75-10.15-3.51-4.51-7.14-11.08-12.82-10.38-7.23.88-5.62,8.82-6.22,14.22-.75,6.82-.8,13.77-7.83,17.77a17,17,0,0,1-9.18,1.2c-11.92-3-9.53-13-10.31-21.36-1.1-11.74-1.13-23.93-13.8-30.4a11.68,11.68,0,0,1-3.88-5.22c-2.14-3.9-3.85-8.94-9.33-8.15-2.18.32-1.2,4.48-1.65,6.91a8.91,8.91,0,0,1-3.51,5.32,9.1,9.1,0,0,1-6.39,1.06,15.61,15.61,0,0,1-4-1.77c-3.67-4-14.25-2.87-9.88-13l6.64-8.69c9.87-10.29,18-22.57,31.72-28.53,13-5.91,22.45-16.8,34-24.69a12.56,12.56,0,0,1,5.7,6.6,25.27,25.27,0,0,1,1.29,8.76c-7.61,14.12,2.57,20.08,12.12,26.33,15.82,21.05,38.24,25.85,62.75,25.65,6.29-.06,12.58,0,18.85,0,7.24-.34,14.37-1.61,21.54-2.62,10.48-2.18,10.05,8.22,14.74,12.76a22.65,22.65,0,0,1,2.18,6.06c.63,2.48.61,5.14,2.31,7.67,7-1.86,3.31-15.07,13.69-13.14,2.05,2.38,2.54,5.23,2.54,8.23a68.32,68.32,0,0,0,9.59,36.22,26.53,26.53,0,0,1,2.55,3.5C321.52,182.2,327,203,342.54,217.72c10,6.68,19.58,3.63,28.74-1.65,5.86-3.39,11.42-6.84,18.56-4.57,7.73,4,16.35,6.67,21.45,14.55a22.09,22.09,0,0,1,1.54,6.89c.29,6.77.74,13.4,5.38,19.08,2.85,3.49,6.88,7.51,2.62,12.28-3.66,4.08-8.54,2.59-13.11,1.15-2.38-.74-4.73-2.4-8-.42,5,16.73,14.34,33.85-.17,50.65-7.91,3.13-11-.93-11.92-8.05a40.35,40.35,0,0,1-.82-4.08c-.62-4.59-1.05-9.25-4.38-13a17.17,17.17,0,0,1-1.78-3.78c-1.14-4-.54-8.31-2-12.1-2.39-6.43-4.6-14.48-12.57-3.51-4.34,6-7.7,1.83-10.34-2.49-.82-3.6-.28-7.28-.65-10.89-1.16-11.33,4.17-16.21,15.19-16.76,5.89-.29,12.5,2,19.59-4.94-13.1-5.06-24.08,4.08-36.75.6,5.24,16.22-2.58,32.39,6.19,47C360.26,285.81,360.2,287.76,358.43,289.42Z"/><path class="cls-2" d="M31.16,138.34c2-6.24,9.2-7.47,12.11-12.8,12.07,3.88,9.1-7.86,13-12.49v.07c8.44-5.06,16.87-4.72,25.28.08h0c5.5,6.07,4.23,13.51,4.2,20.7-.55,3.39-1.08,6.79-1.82,10.14-6.18,5.84-1.29,18.29-12.53,21.15-2.62,2.5-6.41-9.31-8.42.74C61,173,60.78,180.36,59.4,187.5c-4.17,9.25,1.84,23.71-13.76,27.2a12.69,12.69,0,0,1-4.42,1A8.9,8.9,0,0,1,37,214c-6.24-7.54-1.27-18.46-7.88-25.9-3.72-7.92.19-18.73-10.27-24.36-3.55-1.91-1.76-6.7,1.75-8.9C26.82,151,27.89,144,31.16,138.34Z"/><path class="cls-3" d="M31.16,138.34c1.67,9.89-3.49,16.53-14.59,22.24,20.66,4.43,13.07,18,14.64,28.1l-2.05.5c-1.9.79-3.8-7.29-5.74,0-1.28,4.85-.6,10.63-6.14,13.61C-1,200.9,2.54,185.78,0,174.32c.4-4.6,3.86-7.35,6.45-10.63C16.79,157.29,21.94,145.83,31.16,138.34Z"/><path class="cls-4" d="M1415.37,103.91q0,9.36,0,18.72c3.06,10.39-3.63,19.78-3.1,29.92,0,1-1.17,1.86-1.34,2.76-1.22,6.45-11.76-7.79-11,5.32a34.52,34.52,0,0,1-4.27,17.86,126.05,126.05,0,0,0-15.16,48.68c-1.46,15.37,1.22,31.25-5.21,46.07-.13,3.17-.77,6.26-.87,9.4-.66,20.08-.65,20.08-20.21,22.28-13.67-2.13-28.16,5.41-41.25-3.5-7.08-8-5.64-20.86-16.18-27.43-2.93-1.83-3.19-8.34-1-12.92l0,0c5.62-6.94,0-12-3.85-16.05a22.17,22.17,0,0,1-6.65-15.14c.49-9.52-7.68-15-10.39-23.58-1.35,3-1.53,5.64-3.1,7.77a14.83,14.83,0,0,1-3.38,2.74c-6.26,1.78-7.23,8.18-10.82,12.29-3.84,4.41-5.62,11.4-13.36,11.19-10-9.36-8.51-21.38-8.31-32.77-1.36,8.58-2.09,18.17-9.35,25.21V239c2,13.21,2.16,26.2-4.74,38.3-17.57-.33-20.5,2.15-26.4,22.69a21.8,21.8,0,0,1-4,8.38,29.69,29.69,0,0,1-5.86,5.05c-2.8,1.88-6.94,3.21-2.07,7.26a15.5,15.5,0,0,1-1.45,4.15c-3,11.07-.5,23.08-5.85,33.72-.24,6.32-4.78,6.34-9.32,6.36-8.88,2-16.11,8.8-25.64,8.89-1.84,0-3.53-1.23-5.45-.8,2.52.43,3.3,1.92,2.56,4.3l-12.47,0c-3.87-6.11-10.39-7.29-16.69-8.92-5.21-1.57-8.34-4.9-6.67-10.4,1.76-5.8-.15-11.34-.1-17a115.51,115.51,0,0,0-12.67-42.91c-5.49-10.3-9.78-20.21-6.51-32.41,3.58-13.32-4.13-25.44-6.25-38.14-2.79-16.7-5.5-34-14.59-49-.81-1.23-1.24-2.71-2.06-3.9-1.49-2.16-.21-6.83-4.24-6.31-2,.25-2.22,4.12-3.49,6.23-5.71,12.78-5,26.34-4.89,39.83-2.53,1.27-5.44,1.84-7.48,4-3,5-5.16,10.45-4.48,16.35,2.11,18.32-1.35,33.88-19.76,42.6a20.35,20.35,0,0,1-2.38,3.64c-9.3,6.34-17.52,13.2-16.46,26.23a9.57,9.57,0,0,1-4.89,9.32c-6.78,3.46-7.2,9.46-7.78,15.86-.68,7.63-4.3,14.4-6.77,21.43-5.44,15.55-9.79,6.94-15.41,1.53a25.83,25.83,0,0,1-.14-2.92c-14.78-11.87-31-16.05-50-12-16.36,3.51-32,10.88-49.26,9.85-13-.78-23,4.82-31.47,14.05-16.91,8.55-22.09,6.41-25.7-10.55-11.61-4.73-15.1-12.73-11.35-24.88,4.09-13.23.63-23.56-8.59-35.37C777.61,283.05,773.64,268.1,768,255c-2.72-6.25-5.31-12.52-8.94-18.33a22.6,22.6,0,0,1-1.46-4.46,38.07,38.07,0,0,1-.23-11.91,14.38,14.38,0,0,1,2.68-6.42c8.36-4.69,16.33-9.75,18-20.4,30.08-26.84,57-58.75,101.23-62.82,14.56-1.34,28.37-6.62,42.74-9.12,12.32-2.07,25.61,4.17,37.17-4.37a29.67,29.67,0,0,1,15.08-8c12.81-1.48,22.69-9.88,30.41-18.1,21.71-23.11,47.07-26.75,75.88-19.64,13.5,2.46,21.13,14.34,32.48,20.27a24.77,24.77,0,0,0,10.59,6.14,18.5,18.5,0,0,1,3.53,1.84c3,2.66,6.69,3.84,10.28,5.3,7.63,6.57,9.73-2.09,13.89-5,5.38-2,8.41,1,8.53,5.61.15,5.63,3.86,9.29,5.65,14,15.35,9.35,32.29,3.82,48.5,5.2a11.35,11.35,0,0,1,3.49,5.65c.65,2.08.93,4.25,1.59,6.31,13.55,5.81,27,6.5,40.37-.4.54-2.21.88-4.45,1.58-6.62a10.81,10.81,0,0,1,4.17-5.8c9-4,18.49-1.72,27.75-2.43,6.07-.47,12.65,1.57,17.79-3.54,10.45-10.7,20.25-22.25,35.18-27.17,15.84.64,22.65-13.39,33.3-21,4-2.83,6.6-7.69,11.64-9.56s9.92-1,14.91-.4c3.51,0,6.86.62,9.62,3l-.2.56a17.83,17.83,0,0,1,3.25,4.63C1421.89,80.3,1418.84,92.12,1415.37,103.91Z"/><path class="cls-1" d="M761,232.74c0,1,0,2.11,0,3.16,6.08,13.63-.59,24.47-9.06,33.61-9.3,10-20.56,18.25-11.17,34.21,1.82,3.09.35,7.12-1.69,10.34a31.94,31.94,0,0,1-2.65,3.59c-6.16,11.52-19.52,19.24-18.23,34.69-.14,11.24-2.79,22-6.47,32.54-6.46,8.09-15.6,13.35-13.07,27.67,1.34,7.58-12.41,11.09-21.06,12.35-7.18,1.05-13,3.23-17.28,9.06-40.46,10.33-82,13.38-123.24,18.9-5.19.69-10.43.52-15.15,3.19-10,1.93-24.84,6.28-28.67-1.95-7.55-16.26-24.19-31.59-14.14-52.94-2.67-15.85-7.62-24.25-16.11-27.26a38,38,0,0,1-3.25,5.19c-7.62,6.7-13.19,17-25.84,14.92a9.61,9.61,0,0,1-2.68-3.48c-2.23-16.29-10.7-31-11.7-47.69-.26-4.37-5.05-4.62-8.24-6.07-1.35-.41-2.68-.88-4-1.31-5.77-.84-12.47.67-15.48-6.74-2.46-6-1.61-10.8,4.27-14.18,11.81-10.69,6.17-23.86,4.26-36-1-6.1-5.8-11.6-9.52-18.57,7.19-3,13-3.4,18.73,1.78,2.47,2.24,6,3.28,8.45.91,3.46-3.37-.69-5.75-2.69-7.27-8-6-6.62-14.5-6.63-22.69,6.93-5.25,11.55-1,15.21,4.28,3.93,5.71,8.3,10.28,15.53,11.14,5.92,1.76,10.17,6,14.66,9.84,4.66,3.83,8.66,8.88,15.65,8.44a28.31,28.31,0,0,1,8.24,1.4c12.3,2,23.3-3.25,34.69-6.4a41.75,41.75,0,0,1,9-1.35c2.33-.14,4.66-.15,7-.14,10.47,3,18.9-7,29.29-4.71a17.22,17.22,0,0,1,4.42,1.81c16.5,4.18,32.87,5.5,48.92-1.92,15.28-4.22,31.27,1.08,46.51-3.55,14.65-4.91,29.73-4.65,44.86-3.67,12.15,1,21.92-4.19,30.56-12.06S750.83,225.71,761,232.74Z"/><path class="cls-1" d="M1478.34,295.79c0,2,.05,4,.07,6-18.66,7.18-18.81,4.51-24.55-14.06-3.07-9.93-1.62-20.74-7-29.81,6.09-6-5.26-7.59-3.15-12.57l0,0c2-.32,5.23-2.38,4.6-2.77-9.65-5.89,1.15-10.63.64-16-3.43-3.82-8.35,6.1-10,0s2.88-11.64,7.74-15.88c-1.82-26,4.42-52.2-5.31-78.16-3.9-10.42-.36-23.49-7.52-34-1.64-2.42-3.3-3.76-6-4.28-.94-9.85,4.92-15.4,12.88-18.83,6.05-2.61,10.52-6.05,12.22-12.56,4.7-4.91,11.1-5,17.52-6.12-3.59-6.07-10.1-11.68-4.1-19.36,2.8-3.6,5.74-6.63,11.66-5.55,9.21,1.67,18.37,2.63,21,13.7,1.48,6.29-.22,13.86,7.8,17.11a11.08,11.08,0,0,1,9.38,6.37c12.68,7.24,25.14,15.2,40.84,12.94a14.28,14.28,0,0,0,2.92-.24c6.23-1.52,11.51-7.22,18.75-4.23,6.44,8.08-1.37,13.62-3.54,20.19-3.87,6-8,11.77-15.81,13.08-9.94.69-8.83,8.71-10,15.21-2.1,9.77-12.06,15.38-13.45,25.66-.41,3-3.67,3.2-6.31,3-8.21-.69-9.07,4.92-9.46,11-.38,7.68.66,15.42-1.12,23a15.81,15.81,0,0,1-2,4.11c-10.14,9.16-20.72,17.47-20.26,33.78.17,6-8.48,10.17-11,16.63-7.59,7.4-20.14,12.8-10.71,27C1477,278.53,1485.37,286.21,1478.34,295.79Z"/><path class="cls-5" d="M1506.9,62.65c-5,.29-10.66-.25-9.48-6.73,1.92-10.49-6.25-14.85-11.16-21.7-3.57,3.22-.69,12.13-7.43,11.21-7.93-1.08.09-7.65-2.29-11.69-18.41,8.79-3.18,17.21.24,26.12l-23.73,3c-.56-2.45-2-6.6-4.31-4.22-9.75,10.12-21.91,6.79-33.42,7.36,0-.9-.08-1.81-.16-2.71l19-.51c8.7-17.31,21.2-32.83,25-52.47.85-4.42,3.69-7.34,6.6-10.32l0,0c11.2,2.31,21.48,6.89,31.3,12.63C1502.54,28.88,1504.75,45.76,1506.9,62.65Z"/><path class="cls-6" d="M408.55,226.68c15.25,2.34,22.66,14.64,31.67,24.91-9,1.32-15.29-2.94-18.47-10.63-2.66-6.46-6.75-8.6-13.07-8.21C408.64,230.72,408.59,228.7,408.55,226.68Z"/></g></g></svg>