<svg xmlns="http://www.w3.org/2000/svg" viewBox="0 0 1610.9 628.06"><defs><style>.cls-1{fill:#014f6a;}.cls-2{fill:#025572;}.cls-3{fill:#025977;}.cls-4{fill:#025876;}.cls-5{fill:#066e90;}.cls-6{fill:#046081;}.cls-7{fill:#066685;}.cls-8{fill:#0b708f;}.cls-9{fill:#025673;}.cls-10{fill:#097399;}.cls-11{fill:#025b7d;}.cls-12{fill:#01526d;}.cls-13{fill:#01536d;}.cls-14{fill:#015775;}.cls-15{fill:#015370;}.cls-16{fill:#015d7b;}</style></defs><g id="Calque_2" data-name="Calque 2"><g id="Calque_1-2" data-name="Calque 1"><path class="cls-1" d="M0,627.77c5.42-11.36,19.59-13.93,25.19-25.12,7.22-7,16.53-8.74,25.87-10.46,26.18,3.06,52.39,1.79,78.58.32a49.25,49.25,0,0,1,7.07-.43c5.92-2.31,13.69,8,18.37-2.75,4.69-.31,8.84,2.24,13.4,2.59,8.82,2.6,16.13-3.59,24.45-4.44,4.06-.41,3.28-5.67,3.11-9.21-.29-5.84.31-11.31,5.85-14.85a7.29,7.29,0,0,1,6.41.86c5.1,6.78,2.84,14.77,3.7,22.26.44,3.88-.4,9.21,5.22,9.6s5.48-5,6.3-8.82c.54-2.5.76-5.06,2.16-7.3,8.26-5.75,14.24-5.77,16.77,5.84.91,4.18,4.44,7.93,9,7.43,21.2-2.35,42.47-1.82,63.71-2.41,1.44,0,2.83-1.27,4.24-2,10.71-4,22.58-.33,33.18-5l18.43-.22c12.23-4.23,26.53,0,37.51-9.24a16.4,16.4,0,0,1,4-2c8.61-.91,15.77-6.82,25.07-6.33,6.33.33,10.4-4.69,10.2-11.32-.41-13.49,3.84-28-8.31-39.11-1.05-1-1.19-2.83-1.59-4.33a12.19,12.19,0,0,1,1-8.65c8.79-11.12,20.26-19.57,30.36-29.31,15.63-15.07,33.87-9.71,43,10.55a61.32,61.32,0,0,0,3.6,6.92,6.52,6.52,0,0,0,4,3.5c3.22-2.86,0-9.14,4.72-11.56a34.56,34.56,0,0,1,3.23-2.93c2.74-1.69,4.4-4.43,6.57-6.69-2.27-1-4.63,2.15-7-.35-5-5.28-6.74-11-1.07-16.5,4.48-4.36,9.62-8.15,16-9.67,2.36-.73,5-1.12,5.58-4.2,1.76-9.16,7-8.27,13.16-4.53,4.44,5.12,8.8,10.35,15.27,13.16,6.58,9,2.74,12.29-6.9,12.43,3.63,3.37,11.29,3.05,9.59,10.92-2.65,2.25-6.81,4-2.81,8.48,4.88,5.49,3.84,10.8,0,16.52-12,18-1.85,35.58,2.05,53,1.23,5.49,2.95,9.38-4.11,11.86,21.93-4.1,21.73-4.11,22.95-24.66.83-14.05,3.29-28-7.57-40.08-3.39-3.78-2.31-10-1.59-15.25.78-5.72,3.25-10.06,9.82-10.06s8.95,4.37,9.84,10.07c.4,2.59.44,5.21.73,7.81.76,6.77,2.36,12.8,11.34,11.1,7.32-1.39,11.13-5.85,9.82-13.34-2.52-14.31-2.33-28.85-4.17-43.21-2.65-7.94,6.56-12.79,5.3-20.4a6.65,6.65,0,0,1,3.91-4.8c5.6-1.46,10.08.4,13.75,4.63a7.81,7.81,0,0,1,.78,4.09c1.82,7-2.32,14.6,2.34,21.28v.07c1.45,4.37,2.17,9.15,6.65,11.83a10.18,10.18,0,0,1,1.09,4c-.94,8.61-2.17,17.19,10.42,18.37,1.81.16,2.29,3.22,2.07,5.43-.75,2.77-2.93,4.55-4.58,6.69-3.25,4.42.25,7.14,2.61,10.15a21.88,21.88,0,0,1,2.64,5.62c1.38,3.66-3.87,7.74-2.44,8.18,4.22,1.26,9.29,2.19,13.46-1.15a10.31,10.31,0,0,0,3.24-12.7c-2.83-6.72-4.37-13.9-7.7-20.42-1.75-3.42-2.59-7.26.22-10.27,3.6-3.85,7.67-1.66,11.44.28,6.09,3.13,10.83,8.11,16.4,12,10.7,6.43,16,16.4,16.86,28.37.6,8.8,5,12.07,12.89,12,20.05,0,38.84,5.58,58,10.71,11.23,3,24.38,1.34,36.08-3.45a30.37,30.37,0,0,1,11.2-1.39c10.51,2.55,21.36.17,32.07,2.56,7.27,1.62,11.93-5.2,15.74-10.59,2.89-4.1,3.83-9.74,10.14-10.45a61.35,61.35,0,0,1,11.41-.64,40,40,0,0,1,6.83.5c2.89.6,5.6,1.55,7.28,4.22,1.31,3.42-2,7.47,1.46,10.62,18.92,5.85,20.56,5.33,29.54-9.39,7.17-8.3,18.26-11.3,25.87-19a30.59,30.59,0,0,1,7.3-4.71c12.59-.31,9.37-10,10.21-17.27,6.79-9.69,17-8.76,27-8.93,7-.12,15.39,2.3,13.27-10.61-1.08-6.61,5.89-7.2,10.21-5.75,14.38,4.84,25.23-10.35,39.23-6.29-.76-9.73,12.75-13,10.66-23.14-1.61-7.84.75-15.64-.41-23.43a10.74,10.74,0,0,1,.8-4.35c4.34-8.49,2.6-17-.57-25.15-2.82-7.28-2.85-15-4.4-22.44-.7-4.71.62-9,2.71-13.12,4.23-9.11,8.66-18.17,6.46-28.73a17.21,17.21,0,0,1-.14-4.36c4.06-10,8.93-7.47,12.58-.14,2.44,4.88,1,10.73.88,15.36,2.14-10.57-1.29-21.22-4.35-31.93a13.07,13.07,0,0,1,1-4.32c.28-.4.49-1,.88-1.16,3.91-1.27,8.13,3.44,11.94-.62,3.11,4.92,3.11,10.14,1.53,15.51a9.55,9.55,0,0,0-1,4,12.08,12.08,0,0,0,.56,2.76c.4-.72-.22-1.34-.22-2.1a5.41,5.41,0,0,1,1.17-3.67c6-4,5.23-10.17,5.17-16.12a31.63,31.63,0,0,1,1.86-11.24c4.86-8.59,10.21-10.18,16.28-1.13,2.28,5.58,2.62,11.66,4.32,17.42,1.25,4.22,3.1,7.39,8.28,6.5,4.68.05,9,.92,11.2,5.71-.34,9.9-6.66,20.86,5.53,28.48,4.35,2.72,1.92,8.87,5.17,13.1,2.65-5.47-.75-14.15,5.41-15.28,7.73-1.42,5.14,8.7,9.11,12.33.86.43.7,1.95,2,1.84-4-13.11.37-23.22,11.09-31.08,5,3.56,3.43,9.6,5.34,14.32-5.37,12.16,3.56,19.73,9.18,28.37,1.28,10.11,2.47,20.24,8.08,29.15-.5,9.63-3.7,19.26-.14,28.91.77,3.31,2.93,5.95,4.44,8.89,4.31,5.82,11.12,1,17.46,4.58-6-15.94-20.17-27.35-18.57-44.91-4.29-5.64.74-7.95,3.84-10.95a5.69,5.69,0,0,0,.87-6.23c-1.5-3.38-4.25-6.33-3.51-10.45a20.55,20.55,0,0,1,1.74-3.67c2.6-3.95,1.17-7.93.1-11.88a10.77,10.77,0,0,1,.55-3.95c1.83-2.94,2-5.87-.16-8.78-9.62-12.19-.42-25.15-1.63-37.67,0-2.2,0-4.39.1-6.59,7.3-7,6.56-14.93,5.14-24.33-2.95-19.61,6.84-27.81,27.73-25.23a7.41,7.41,0,0,1,3.2,7.66c-2.25,4.46-3.93,8.91.48,13.15,3.77,5.58,3.58,11.48,1.81,17.7-1.6,5.6-1.55,11.48,1.89,16.29,2.15,3,5.27,3.08,6-1.8a34.47,34.47,0,0,1-.92-5.93c5.53-18.11,6.8-18.44,29.14-6.15-3.88-8.1-8.62-13.78-12.09-20.15-5.08-9.34.82-22.72,9.93-20.86,18.33,3.75,13.09-8,13.23-16.83.8-4.58,1.73-9.13,4.32-13.1,5.33-3.57,6-9.05,6.72-14.87,1.12-8.52,3.81-15.47,14.56-17.14,4-.63-.45-8.17,1.67-12.22,2.74-9.88,10.72-10.82,20.25-10.81a24.26,24.26,0,0,1-9.31-4.64c-3.06-2.86-3.51-6.15-1.66-9.84,2.35-3.49,3.15-7.64,4.73-11.48,2.74-5.6,8.25-10.1,6.69-17.35a19.78,19.78,0,0,1,.19-4.21c1.56-13.9,5.38-26.06,22-28.25,15.43-1.69,16-16.25,21.75-25.95,4.38-7.41,7-15.54,18-13.51,3.46,2,5.14,5.26,6,9,1.69,8.92.83,18.31,4.85,26.84a12.63,12.63,0,0,1-.7,4.22c-4.32,5.59-1.25,10.93.55,16.31a32.9,32.9,0,0,1,1.11,18.56,35.31,35.31,0,0,1-2.8,6.8c2.86,1.69,2.43-2,4-2.42,3.86-4.4,7.73-8.72,14.43-7.68,6,4.93,15.68-1.29,20.6,6.82,1.53.72-2.1,6.82,3.5,3.26,2.6-10.58-3.6-19.13-7.22-27.83-3.2-7.7-7.64-14.88-7-23.44.78-10.32,6.69-12.48,16.24-6.61.5-.43-1.31,2.28.61.14a12.11,12.11,0,0,1,2.8-5.69c3.91-4.38,7.51-12.52,14.55-5.65,6.45,6.29.43,10.82-4.72,15-6.15,4.95-10.67,10.58-2.41,17.71a51,51,0,0,1,4.16,10.5c4.08,14.31,12.34,28.34,3.22,43.62a52.76,52.76,0,0,0-8,9.52,36.41,36.41,0,0,0-8.46,13.7c-1.9,3.84-1.57,10.28-6.75,10.54-5.76.3-5.6-7.53-9.76-10.22-5-4.67-7.8-10.76-11.1-19.77-2.63,8.65.94,12.09,4.31,15.59a13.06,13.06,0,0,1,4,7.66c-3.53,6.68-1.43,12.64,2.45,18.33,24.06,8.75,41.55,23.37,38,52.74-3.46,2.8.36,5.61,0,8.43-.69,5-11.79,7.9-2.84,14.74a12.63,12.63,0,0,1,3.66,8.06c-1.07,8.27-.25,16.9-4.49,24.58-3.7,5.39-9.59,10.72-.26,16.33,4.38,2.87,8.69,4.8,12.79-.37,5.8-5.85.87-13.2,2.72-19.57a9.45,9.45,0,0,1,2-3.41c6.79-2.24,1.33-5.82.37-8.06-3.72-8.75-4-16.78,2.84-24.14.71-2.3,7.45-2.92,2.49-6.5-4-2.86-7.74-5.53-8.76-10.4-.93-4.39-5.73-9.39-1.8-13.12,5.38-5.1,8.61,2.46,12.65,4.7,5.72-5.07,2.43-12.24,5.16-17.51-7.69,7.61-15.15,2.72-22.26-1.11-4.31-2.33-3.77-7.17-.12-8.83,12.77-5.82,12.65-18.35,15.74-28.94,2-6.87,3.51-13.72,8.35-19.38-3.29,4.2-7,7.92-8.36,13.32-.8,3.25-3.69,5.63-7.07,3-2.29-1.81-2.74-7.12-5,.47-1.15,3.87-6.58,1.68-8.36-2.13-2.21-4.68-3.62-9.73-5.87-14.42a11.38,11.38,0,0,1,.08-4.39c2.07-5.14,6.94-7,11.16-9.68a11.58,11.58,0,0,0,6-7.59c4.16-14.7,6.4-30,9.73-44.48,5-21.92-2.86-43.6,4.21-64.53a14.11,14.11,0,0,1,.25-4.4c1.9-4.66,5.62-6.62,10.4-7,8.29,2.56,6.27,12,11.23,16.81a11,11,0,0,1,.67,4.14c-.83,6.62-4.45,12.32-6.18,18.52,1.52,2,1.5-.54,2.22-.92,10-5.81,18.22-13.94,28.13-19.71a10.11,10.11,0,0,1,4.22,1c12,6.06,14.25,18.88,20.27,29.1V86.7c-3.83,1.86-4.95-2.06-7.27-3.42,3.08,3.92,1.12,10.68,7.27,12.86q0,259.52.3,519c0,10.78-2.11,12.89-12.88,12.88Q799,627.57,0,627.77Z"/><path class="cls-2" d="M544.21,448.46c-5.13,3.32-10.18,6.77-15.41,9.92-4.32,2.6-3.21,5.83-1.6,9.29,3.39,7.27,5.07.58,7.15-1,3.19-2.41,6-1.74,7.86,1.24,1.79,2.8.15,5-2.79,5.66-5.48,1.18-4.1,10.05-10.94,9.48a14.58,14.58,0,0,0-1-1c-.36-.34,0,0,1,1-1.23,2.84-6.69,4.25-2.49,8.93,2.65,2.95,3.71,6.9-1,9.08-3.7,1.73-7.13.24-9.69-3-4.47-5.68-9.22-10.94-8.57-19.23.35-4.45-22.81-13.73-25.9-10-4.51,5.45-11.91,6.64-15.64,12.35-3.88,5.92-2,18.22-15.65,12.75-2-.81-2.15,3.65-2.22,6.33-.22,8.21-4.59,1.18-7,1.68-2.87-1.18-4.57-3.57-6.18-6.05-6-12.41,4.8-16.55,11.88-19.2,13.37-5,13.68-12.14,7.36-22.51-2.54-4.05-.38-7,2.26-9.89a8.48,8.48,0,0,1,4.27-.73c10.35,8.28,21.71,4,32.79,2.55,6.39-11.28,2-23.78,4.17-35.49.31-5.65,4.11-9.19,8.14-13.53,4.86,9.9,9.4,19.46,14.23,28.86,3.82,7.44,4.94,7.64,12.19,3.69l1.9-.66c5,4.26,10.35,8.17,14.86,13C548.84,445.38,547.25,447.38,544.21,448.46Z"/><path class="cls-3" d="M761.05,350.88l.33-6.05c2.85-3.63.17-9.28,4.51-12.39a30.42,30.42,0,0,1,9-5.85c5.41-2,8.08-.67,5.35,5.54q0,3.06.08,6.14c4.28,12.47,18.65,18.3,21.15,32a67.47,67.47,0,0,1,6.06,6.25c1.87,6,12.4,12.4-.68,17.86-3.67.19-7.1,1.42-10.63,2.32-7.84,2-12.46-.39-10.8-9.51a21.77,21.77,0,0,0-1.48-12.31c-1.38-3.29-8.89.51-8.5-6.2-.14,2.55.84,4.86,1.5,7.24,4.08,14.61-5.45,26.46-8.49,39.58-1.25,5.36-7.47,4.24-12.22,2.58-5-1.74-7.16-6.93-11.76-9.57,4.79,13.22.64,27.34,5.94,40-3.89,9.76-15.8,5.76-21.44,12.51-2.39,2.27-8.26.76-7.2,6.77a6.36,6.36,0,0,1-1.43,3.73,9.65,9.65,0,0,1-4,1.41,10.2,10.2,0,0,1-7.86-3.54c-2.94-3.57-5.75-7.21-5.71-12.18a12.76,12.76,0,0,1,4.49-7.69c7-5.75,12.76-12.69,23.72-12.87,8.7-.14,8.22-8.58,5-14.14-3.71-6.41-7.17-12.5-7.15-20.07a36.78,36.78,0,0,1,.11-4.33c4.22-8.14,2.7-19.41,13-24.3C755.16,371.84,757.11,360.53,761.05,350.88Z"/><path class="cls-4" d="M830.37,401.32c0,1,.07,2.08.18,3.11a9.27,9.27,0,0,1,2,6.23c-1.74,9.27-6.51,15.51-15.74,19.23-10,4-17.71,11.92-25.3,19.54-17.83-2.64-12.87-17.54-13.39-27.75-.89-17.45,11-26.47,28-23.7.58.45,1.15.92,1.74,1.37l1.26,1.82c.3,6.92-8.51,7.08-10.35,16.7,10.14-7.43,17.18-15.84,27.68-17.41A3.64,3.64,0,0,1,830.37,401.32Z"/><path class="cls-5" d="M572.51,372.94c12.62-7.7,12.62-7.7,30.9-45.94,5.46,7.1,7.94,15,6.86,23.93-5,3.49-10.44,6.54-9.58,14.09.85,7.37-7.11,9.38-9.35,14.92a14.79,14.79,0,0,1-2.67,3.43c-8.16,3-10.79,8.58-8.34,17a59.72,59.72,0,0,1,2.51,16.73,28.58,28.58,0,0,1-.2,4.53c-1,3.32-1,8-5.7,7.78-4.53-.25-6.25-4.74-8.28-8.26.29-9.75.39-19.48-3.55-28.75-1.47-3.47-2.05-7,1.11-10A9.64,9.64,0,0,1,572.51,372.94Z"/><path class="cls-6" d="M456.21,445.31l-1.56,0H453.1c.89-4,2.11-8,2.61-12,1.11-9.07,2.21-16.81,12.93-6.15,4.47,4.44,12.41,1.26,17.51,7.43-3.35-12,5.67-17,10.81-23.89,5.77,10.89,2.72,22.49,2.58,33.83,0,3.2-3.12,3.56-5.66,4-.65-.09-1.3-.19-2-.27-2.49-.86-4.78-2.21-7.33-2.93-8.45,2-16.89-2.6-25.32.07h-3.06Z"/><path class="cls-7" d="M405.8,527.12c6.11-.1,12.56-1,15.73,6.26-2,9.9,5.21,12.37,12.17,15,3.88,1.49,8.83,2.7,7.5,8.16-1.21,5-6.12,5.14-10.32,4.82-7.24-.55-14.38-.94-19.81-7.37-2.39-2.82-.66,2.77-2.74,2.54a5.21,5.21,0,0,1-5.66-1.13c-8.18-1.44-6-6-1.8-8.91,7.36-5.13,4.05-10.54,1.84-16.24C403.85,529.35,403.84,527.27,405.8,527.12Z"/><path class="cls-8" d="M654.37,457.8c17.3-.38,22.89-16.9,34.54-25.06,5,3.72,6.93,8.44,4.83,14.51-7.19,5.29-18,7.45-17.23,19.69-2.37,5.76,5,12.37-1.48,17.81-15.91,1.72-14.19-11.6-17.55-20.57l0,0C655.63,462.43,652.33,461.41,654.37,457.8Z"/><path class="cls-9" d="M692,448.36l-3.12-15.62c5-2.55,3.81-9,8.05-15.1,3.17,8.65,5.49,15,7.81,21.28,3.15,3.71,5.66,7.58,3,12.68-1,2.1-2.11,4.2-3.16,6.31-4.22,1.94-8.55,3.49-13.31,3.43C687.63,456.79,685.59,452.34,692,448.36Z"/><path class="cls-10" d="M622.84,376.11l6.3-3.14c1.63,10.36,9.91,15.41,16.6,22.15,11.28,11.36,8.59,26.58,8.5,40.84-6.8,2.49-8.63.08-6.3-6.42h0c-3.72-11.09-2.81-24.87-17.28-29.73-3.64-2-4.78-5.54-5.8-9.17C624.22,385.8,618.64,381.62,622.84,376.11Z"/><path class="cls-11" d="M556.62,385.64c-1,1-2,2-3,3-8.43,2.56-4,14.6-12.55,17.06-2.39-.52-4-1.62-3.14-4.42-1.87-13,3.05-25.35,3.4-38.14,0-2,.5-4.67,3.2-4.32,1.7.21,4.2,1.7,4.63,3.14,1.73,5.71,6,11,2.9,17.69C550.13,383.84,553.28,385,556.62,385.64Z"/><path class="cls-2" d="M537.92,401.32l3.16,3.13c6,11.73-3.37,17.77-9.31,25.07l-.25.13C529.09,419.18,524.93,408.31,537.92,401.32Z"/><path class="cls-12" d="M692.06,461.05c3.33-4.52,7.76-4.58,12.57-3.14l6.29,9.42c-1.17,7.57,2.94,4.63,6.31,3.16l3.13,0c4.87-2,7.11,2.79,10.72,4.08,4.27,2.74,9.21,2.35,13.94,3,15.17,11.57-1.33,14.68-5.57,21.06-1.06,1.38-2.61,2.6-1.38,4.65,6.8,1.67,12.13-2.25,17.83-4.43,2.92-1.11,6.73-3.45,5.44-6.6-5.81-14.16-.08-31.63-12.65-43.75-5.28-6.33-7.7-13.44-6-21.7,1.69-8,.63-15.36-8.12-24,8.37,2.35,14.2-.35,17.29,6.54,2.4,5.37,7.73,9.21,12.39,6.49,8-4.65-2.24-9.37-1.89-14.82,4.24-1.25,11.57,3,10-8-1.3-8.76,3-18.12-.29-27.52-1.4-3.94.37-8.08,5.15-9.83,6,4.49.46,9.53.94,14.29,4.74,2.36,5.76-5.69,11.5-3.08-8.28,8.71,11.56,17.44-2.33,25.27,7.74,6.64,11.65-7.46,18-.27,2.23,3.17,2.26,6.32-.09,9.45-11-2.92-19.75-4.49-18.29,12.69.25,2.9-3.89,9.53-4.65,15.81-1.22,10.09,3.3,14.52,10.44,18.68l2,.72c3.79,2.7,4.11,6.91,5,11,.69,3.37.72,8.16,6.2,6.53,3.57-1.06,7.15-4.31,5.81-8.05-2.3-6.41-.33-10.95,3.72-15.41,3.73-5.58,8.39-9.79,15.61-7.43,5.47,1.78,10.55,5.41,4.38,11.12-8.31,7.69-5.8,15.74-2.88,24.28a12.32,12.32,0,0,1-.77,6.71c-5.59,7-1.46,16.61-6.16,23.89a11.15,11.15,0,0,1-5.71,3.41c-3,1.06-6.19.32-9.74,1.36,2,2.74,5.21,2.15,7.52,3.33,3.47.82,7,1.35,10,3.65,4.77,15.54,4.76,15.45-10.85,17.68-2.52.35-6.4-1.51-7,3.11,2.73,1.95,5.82,1.16,8.74,1.43a31.5,31.5,0,0,1,6.43.55,8.67,8.67,0,0,1,5.56,3.51c-1.82,1.76-4.27,5.39-5.35,5-13.28-4.57-26.78,6.44-40.42-1.93-16.39-10.06-35.84-7.48-54.09-9.3-8-.8-12.19-1.5-10.8-11.71,1.7-12.4-4.34-22.58-15.19-29.4-.88-10.38-12.4-12.85-15.88-21.31C687.92,467.19,683.55,462,692.06,461.05Z"/><path class="cls-13" d="M578.88,420.15c0-1,0-2.09,0-3.13,3.49-9.32,5.26-19.34,17.65-22.56,5-1.31,5.27-8.14,3.83-13.64-.86-3.31.28-6.31,3.6-7.69,3.52-1.47,6.57.62,7.76,3.35,3.36,7.72,12.75,13.79,4.07,24.72-5.74,7.24-3.59,16.82,2.37,24.54,4,6.35-1.51,18,11,19.57-.06,13.08-.79,29.51,3.44,38.4,9,19-4.71,17.57-12.72,23.49-9.38,6.92-11.84.27-14.48-6.25-1.13-2.79-.9-6.13-1.42-9.2-.81-4.82,2.33-10.86-3.9-14-2.43-1.23-5.73-1-6.94,1.57-3,6.39-4.43,16-.13,19.27,13.46,10.18,7.52,23.22,8.14,35.37.1,2.07-.23,4.17-.29,6.26-.7,23.13-.68,23.23-23,27.78-4.57.93-11.73,5.76-13.17-2-1.65-8.88,6.81-6.5,12.83-6.86-3.72-8.2-15.84-14.28-6.12-25.24.77-.87-.19-4.57-1.47-5.75-10.27-9.46-11.94-17.75,2.34-24.86,1.22-.6,1-2.23.25-4-2.1-5.18-1.21-6.24,4.77-7.44-4.52-4.66-5-12.67-14.24-13.94,5.48-6.22,11-3.6,15.77-4.33,14-14.17,14-14.17-1.33-33.83C575,433,587.76,427.38,578.88,420.15Z"/><path class="cls-14" d="M616.5,426.49c-14.51-6.22-7.7-18.12-5.55-26.94,2.64-10.84,3.19-14.61-8.25-26.26,3.71,14.77,6,27.41-13.55,28.9-7.57.58-.19,14.3-10.26,14.83-1.12-7.57-2.2-15.15-3.37-22.72-1.59-10.24,2.49-14.32,12.71-11.89,1.45-.08,1.86-.79,1.2-2.13-.35-.69-.76-1-1.18-1,2.53-8.91,10.7-15.08,10.41-25.91-.17-6.44,7.43-2.19,11.61-2.41l12.57,25.18,6.24,12.51c-2.43,3.44-2,8-4.76,11.79,3.34.81,5.44-1.75,8-2.17,3.06.81,7.87-4.18,9.15,1.52,2.24,9.9,13.34,18,6.43,29.78-3.22-4.07-7.64-5.73-12.6-6.31-7.13-8.42-11,2.7-16.77,2.77Z"/><path class="cls-15" d="M412.07,574.27c4.61-7.23-5.67-11.93-3.2-18.8-1-1.17-2.82-2.3-2.89-3.52-.29-5,3.82-2.47,4.64-1.62,8.06,8.46,18.15,6.37,28,6.53-4.75-7-14.67-3.33-19.1-11.08-3.06-5.35-7.85-9.7,2-12.4h0c2.71,2.1,6.88,3,8.29.56,2.31-3.9-4.8-6.28-3.56-10.84,2.74-6.29,10-7.1,14.15-11.74,17.33,11.69,10,30.08,12.41,45.82.84,5.56-3.59,10.51-7.07,11.12C434.52,570.25,423.82,575.5,412.07,574.27Z"/><path class="cls-9" d="M692.05,470.48c5.5,5.14,10.91,10.39,16.56,15.35,1.69,1.49,5.66,1.83,3,5-1.25,1.48-4.6,1.2-7,1.72-7.85-4.52-13.38-12.92-25.36-14.89,4.72,9.82,7.15,18.65,11.21,27.21,3.33,7,4.84,16.08-6.24,20.78-10.28,4.37-17.59-1-25.15-5.94-1-.65-1.24-4.54-.32-5.56,5.18-5.74,6.2,5.18,11.57,2.91-1.23-3.06-2.36-5.89-3.49-8.72,1.9-2.25,4.39-1.77,6.84-1.47,2,.69.37-2.93,1-.93-7.45.63-10.61-3.32-11-10.27,1.38-2.48,3.7-3.06,6.28-3.14,4.23-1.76,3.2-7,6.27-9.5,1-5.61-7.92-9.27-3.06-15.63C680.32,463.45,686.2,466.88,692.05,470.48Z"/><path class="cls-14" d="M578.81,439v3.13c-6.84,6.19-11.3-1.55-16.86-2.88l-2.06-.19c-2.31,1.76-10.6-6.84-7.59,4.84,1.28,5-1.61,9.69-8.09,4.54l3.15-6.28c-3.78-7.53-5.21-14.14,6.17-15.71,8.33,5.53,9.23-7.55,15.85-6.32,8.66,4.65,8.66,4.65,9.5,0,5.72,2.44,6.79,8.55,10.29,12.73C588.34,439.57,578.19,430.16,578.81,439Z"/><path class="cls-1" d="M553.53,426.47c-7.21,3.21-6.11,9.69-6.17,15.71-8.7.09-12.67-5.63-15.59-12.66.44-9.34,10.77-15,9.31-25.07,5.82-3.95-2.5-19.14,12.53-15.77-3.85,7.32,7,14.56.11,21.9a13.54,13.54,0,0,1,3,12.56Z"/><path class="cls-16" d="M459.27,445.31c.32-2,.65-4,1-6,8.59,6,18.44-.19,27.33,2.86.41,3.8,4.12,4.26,6.32,6.26h0c-5.08,10.18-14.26-2.49-19.34,3.11C462.87,464.43,464.91,445.88,459.27,445.31Z"/><path class="cls-9" d="M736.07,498.71c.2-6,5.88-6.6,9.19-9.61,5.3-4.83,3.62-8-3-9.23-3.64-3.6-7.67-5.58-12.78-3.05-4.7.28-5.9-4.49-9.12-6.35,0-1,0-2,0-3.05.35-3.82,3.46-4.92,6.25-6.34,1.09-15.15,16.49-5.3,22.06-12.63,9.58.92,13.51,6.12,12.68,15.72-.45,5.12-.81,10.66.64,15.45,2.13,7,11,16.33,2.42,20.34-10,4.66-21.64,14.5-34.63,5.12C731.29,502.37,736.23,503.05,736.07,498.71Z"/><path class="cls-9" d="M717.23,470.49c-3.2,3.7-7.61,4.72-10.5,1.08-2.2-2.78,1.77-3.69,4.19-4.24C712.3,469.81,714.63,470.41,717.23,470.49Z"/><path class="cls-7" d="M424.62,511.36c.47,4.35-1.35,9.28,3.18,12.61a16.46,16.46,0,0,1,1.57,2.63c1.79,4.7,13.82,4.43,7.95,11.42-4.15,4.94-11.28.05-15.79-4.63,4.1-.47,4.94-1.93,2.52-5.7C420.61,522.32,419.61,516.63,424.62,511.36Z"/><path class="cls-7" d="M434,495.7l3.19,0v18.46l-12.58-2.8C430.48,507.74,436.47,504.25,434,495.7Z"/></g></g></svg>