<svg xmlns="http://www.w3.org/2000/svg" viewBox="0 0 1610.9 728.16"><defs><style>.cls-1{fill:#014f6a;}.cls-2{fill:#01516e;}.cls-3{fill:#096687;}.cls-4{fill:#036485;}.cls-5{fill:#015470;}.cls-6{fill:#01546d;}.cls-7{fill:#025877;}.cls-8{fill:#025978;}.cls-9{fill:#025a7a;}.cls-10{fill:#045c7b;}.cls-11{fill:#015b7b;}.cls-12{fill:#0499c9;}.cls-13{fill:#005c7c;}.cls-14{fill:#055a79;}.cls-15{fill:#02536f;}.cls-16{fill:#005b7d;}.cls-17{fill:#026689;}</style></defs><g id="Calque_2" data-name="Calque 2"><g id="Calque_1-2" data-name="Calque 1"><path class="cls-1" d="M0,727.86c5.42-11.36,19.59-13.93,25.19-25.11,7.22-7,16.53-8.74,25.87-10.47,26.18,3.06,52.39,1.79,78.58.32a50.74,50.74,0,0,1,7.07-.43c5.92-2.31,13.69,8,18.37-2.74,4.69-.32,8.84,2.23,13.4,2.58,8.82,2.6,16.13-3.59,24.45-4.43,4.06-.42,3.28-5.67,3.11-9.22-.29-5.84.31-11.3,5.85-14.85a7.29,7.29,0,0,1,6.41.86c5.1,6.78,2.84,14.77,3.7,22.26.44,3.88-.4,9.21,5.22,9.6s5.48-5,6.3-8.82c.54-2.5.76-5.06,2.16-7.3,8.26-5.75,14.24-5.77,16.77,5.84.91,4.18,4.44,7.93,9,7.43,21.2-2.35,42.47-1.82,63.71-2.41,1.44,0,2.83-1.26,4.24-2,10.71-4,22.58-.32,33.18-5.05l18.43-.22c12.23-4.23,26.53,0,37.51-9.24a16.4,16.4,0,0,1,4-2c8.61-.91,15.77-6.82,25.07-6.33,6.33.34,10.4-4.69,10.2-11.32-.41-13.48,3.84-28-8.31-39.11-1.05-.95-1.19-2.82-1.59-4.33a12.2,12.2,0,0,1,1-8.65c8.79-11.11,20.26-19.56,30.36-29.31,15.63-15.07,33.87-9.71,43,10.56a63.07,63.07,0,0,0,3.6,6.92,6.58,6.58,0,0,0,4,3.5c3.22-2.87,0-9.15,4.72-11.56a33.32,33.32,0,0,1,3.23-2.94c2.74-1.68,4.4-4.43,6.57-6.69-2.27-1-4.63,2.15-7-.35-5-5.28-6.74-11-1.07-16.5,4.48-4.35,9.62-8.15,16-9.67,2.36-.72,5-1.12,5.58-4.2,1.76-9.16,7-8.27,13.16-4.53,4.44,5.12,8.8,10.35,15.27,13.17,6.58,9,2.74,12.28-6.9,12.42,3.63,3.37,11.29,3.05,9.59,10.92-2.65,2.26-6.81,4-2.81,8.48,4.88,5.49,3.84,10.8,0,16.52-12,18-1.85,35.58,2.05,53,1.23,5.5,2.95,9.39-4.11,11.86,21.93-4.1,21.73-4.11,22.95-24.66.83-14,3.29-28-7.57-40.08-3.39-3.78-2.31-10-1.59-15.25.78-5.72,3.25-10.06,9.82-10.06s8.95,4.38,9.84,10.08c.4,2.58.44,5.21.73,7.8.76,6.77,2.36,12.8,11.34,11.1,7.32-1.39,11.13-5.85,9.82-13.33-2.52-14.32-2.33-28.86-4.17-43.22-2.65-7.94,6.56-12.78,5.3-20.4a6.61,6.61,0,0,1,3.91-4.79c5.6-1.47,10.08.39,13.75,4.63a7.76,7.76,0,0,1,.78,4.08c1.82,7-2.32,14.61,2.34,21.28v.07c1.45,4.37,2.17,9.15,6.65,11.83a10.18,10.18,0,0,1,1.09,4.05c-.94,8.6-2.17,17.19,10.42,18.36,1.81.17,2.29,3.23,2.07,5.43-.75,2.77-2.93,4.55-4.58,6.69-3.25,4.43.25,7.15,2.61,10.15a21.88,21.88,0,0,1,2.64,5.62c1.38,3.66-3.87,7.75-2.44,8.18,4.22,1.27,9.29,2.19,13.46-1.15a10.31,10.31,0,0,0,3.24-12.7c-2.83-6.72-4.37-13.9-7.7-20.42-1.75-3.41-2.59-7.26.22-10.27,3.6-3.84,7.67-1.65,11.44.28,6.09,3.13,10.83,8.12,16.4,12,10.7,6.43,16,16.4,16.86,28.37.6,8.8,5,12.07,12.89,12,20.05,0,38.84,5.58,58,10.71,11.23,3,24.38,1.34,36.08-3.45a30.36,30.36,0,0,1,11.2-1.38c10.51,2.54,21.36.16,32.07,2.55,7.27,1.63,11.93-5.2,15.74-10.58,2.89-4.11,3.83-9.75,10.14-10.46a60.5,60.5,0,0,1,11.41-.63,39,39,0,0,1,6.83.49c2.89.6,5.6,1.56,7.28,4.22,1.31,3.42-2,7.47,1.46,10.62,18.92,5.85,20.56,5.33,29.54-9.38,7.17-8.31,18.26-11.3,25.87-19a30.9,30.9,0,0,1,7.3-4.71c12.59-.3,9.37-10,10.21-17.27,6.79-9.69,17-8.76,27-8.93,7-.12,15.39,2.3,13.27-10.61-1.08-6.61,5.89-7.2,10.21-5.74,14.38,4.83,25.23-10.35,39.23-6.3-.76-9.72,12.75-13,10.66-23.14-1.61-7.84.75-15.64-.41-23.43a10.77,10.77,0,0,1,.8-4.35c4.34-8.48,2.6-16.95-.57-25.15-2.82-7.28-2.85-15-4.4-22.44-.7-4.71.62-9,2.71-13.12,4.23-9.11,8.66-18.17,6.46-28.72a17.29,17.29,0,0,1-.14-4.37c4.06-10,8.93-7.47,12.58-.14,2.44,4.88,1,10.74.88,15.37,2.14-10.58-1.29-21.23-4.35-31.93a13.19,13.19,0,0,1,1-4.33c.28-.4.49-1,.88-1.15,3.91-1.28,8.13,3.43,11.94-.63,3.11,4.92,3.11,10.15,1.53,15.51a9.59,9.59,0,0,0-1,4,12.08,12.08,0,0,0,.56,2.76c.4-.72-.22-1.34-.22-2.1a5.43,5.43,0,0,1,1.17-3.67c6-4,5.23-10.17,5.17-16.12a31.63,31.63,0,0,1,1.86-11.24c4.86-8.59,10.21-10.18,16.28-1.13,2.28,5.58,2.62,11.67,4.32,17.42,1.25,4.22,3.1,7.39,8.28,6.5,4.68.06,9,.93,11.2,5.71-.34,9.9-6.66,20.86,5.53,28.49,4.35,2.72,1.92,8.86,5.17,13.09,2.65-5.47-.75-14.15,5.41-15.28,7.73-1.42,5.14,8.7,9.11,12.34.86.42.7,1.95,2,1.83-4-13.11.37-23.22,11.09-31.08,5,3.56,3.43,9.6,5.34,14.32-5.37,12.17,3.56,19.74,9.18,28.37,1.28,10.11,2.47,20.24,8.08,29.15-.5,9.63-3.7,19.26-.14,28.91.77,3.32,2.93,6,4.44,8.9,4.31,5.81,11.12,1,17.46,4.57-6-15.94-20.17-27.35-18.57-44.91-4.29-5.63.74-7.94,3.84-10.95a5.69,5.69,0,0,0,.87-6.23c-1.5-3.38-4.25-6.33-3.51-10.45a20.46,20.46,0,0,1,1.74-3.66c2.6-4,1.17-7.94.1-11.89a10.8,10.8,0,0,1,.55-3.95c1.83-2.93,2-5.86-.16-8.78-9.62-12.18-.42-25.14-1.63-37.67,0-2.2,0-4.39.1-6.58,7.3-7,6.56-14.94,5.14-24.34-2.95-19.61,6.84-27.81,27.73-25.23a7.41,7.41,0,0,1,3.2,7.66c-2.25,4.46-3.93,8.91.48,13.15,3.77,5.58,3.58,11.48,1.81,17.7-1.6,5.61-1.55,11.48,1.89,16.29,2.15,3,5.27,3.08,6-1.8a34.47,34.47,0,0,1-.92-5.93c5.53-18.1,6.8-18.43,29.14-6.14-3.88-8.1-8.62-13.79-12.09-20.16-5.08-9.33.82-22.72,9.93-20.86,18.33,3.75,13.09-8,13.23-16.83.8-4.58,1.73-9.12,4.32-13.1,5.33-3.57,6-9,6.72-14.87,1.12-8.52,3.81-15.47,14.56-17.14,4-.62-.45-8.17,1.67-12.22,2.74-9.88,10.72-10.82,20.25-10.81a24,24,0,0,1-9.31-4.64c-3.06-2.86-3.51-6.15-1.66-9.83,2.35-3.5,3.15-7.65,4.73-11.49,2.74-5.6,8.25-10.1,6.69-17.34a19.84,19.84,0,0,1,.19-4.22c1.56-13.9,5.38-26,22-28.25,15.43-1.69,16-16.25,21.75-25.94,4.38-7.42,7-15.55,18-13.52,3.46,2,5.14,5.26,6,9,1.69,8.92.83,18.31,4.85,26.84a12.68,12.68,0,0,1-.7,4.23c-4.32,5.58-1.25,10.93.55,16.3a32.93,32.93,0,0,1,1.11,18.57,35,35,0,0,1-2.8,6.79c2.86,1.69,2.43-2,4-2.42,3.86-4.4,7.73-8.72,14.43-7.68,6,4.93,15.68-1.28,20.6,6.82,1.53.72-2.1,6.82,3.5,3.26,2.6-10.58-3.6-19.13-7.22-27.83-3.2-7.7-7.64-14.87-7-23.44.78-10.32,6.69-12.48,16.24-6.61.5-.43-1.31,2.29.61.15a12.1,12.1,0,0,1,2.8-5.7c3.91-4.37,7.51-12.52,14.55-5.65,6.45,6.3.43,10.83-4.72,15-6.15,4.94-10.67,10.58-2.41,17.71a50.73,50.73,0,0,1,4.16,10.49c4.08,14.31,12.34,28.34,3.22,43.62a52.49,52.49,0,0,0-8,9.53,36.34,36.34,0,0,0-8.46,13.7c-1.9,3.84-1.57,10.27-6.75,10.53-5.76.3-5.6-7.53-9.76-10.22-5-4.66-7.8-10.75-11.1-19.77-2.63,8.65.94,12.1,4.31,15.59a13.09,13.09,0,0,1,4,7.66c-3.53,6.68-1.43,12.64,2.45,18.33,24.06,8.75,41.55,23.37,38,52.74-3.46,2.8.36,5.61,0,8.43-.69,5-11.79,7.9-2.84,14.75a12.59,12.59,0,0,1,3.66,8.05c-1.07,8.27-.25,16.9-4.49,24.59-3.7,5.38-9.59,10.71-.26,16.32,4.38,2.87,8.69,4.8,12.79-.37,5.8-5.85.87-13.19,2.72-19.57a9.45,9.45,0,0,1,2-3.41c6.79-2.23,1.33-5.82.37-8.06-3.72-8.75-4-16.77,2.84-24.14.71-2.3,7.45-2.92,2.49-6.5-4-2.86-7.74-5.53-8.76-10.4-.93-4.39-5.73-9.39-1.8-13.12,5.38-5.1,8.61,2.46,12.65,4.7,5.72-5.07,2.43-12.24,5.16-17.51-7.69,7.61-15.15,2.72-22.26-1.11-4.31-2.33-3.77-7.17-.12-8.83,12.77-5.82,12.65-18.35,15.74-28.93,2-6.87,3.51-13.73,8.35-19.38-3.29,4.2-7,7.91-8.36,13.31-.8,3.25-3.69,5.63-7.07,3-2.29-1.8-2.74-7.12-5,.47-1.15,3.88-6.58,1.68-8.36-2.13-2.21-4.68-3.62-9.73-5.87-14.42a11.38,11.38,0,0,1,.08-4.39c2.07-5.13,6.94-7,11.16-9.68a11.58,11.58,0,0,0,6-7.59c4.16-14.69,6.4-30,9.73-44.48,5-21.91-2.86-43.6,4.21-64.53a14.15,14.15,0,0,1,.25-4.4c1.9-4.66,5.62-6.62,10.4-7,8.29,2.56,6.27,12,11.23,16.82a11,11,0,0,1,.67,4.13c-.83,6.62-4.45,12.32-6.18,18.52,1.52,1.95,1.5-.54,2.22-.92,10-5.81,18.22-13.93,28.13-19.71a10.26,10.26,0,0,1,4.22,1c12,6.06,14.25,18.89,20.27,29.1v37.75c-3.83,1.86-4.95-2.06-7.27-3.41,3.08,3.91,1.12,10.67,7.27,12.85q0,259.53.3,519.05c0,10.77-2.11,12.88-12.88,12.88Q799,727.65,0,727.86Z"/><path class="cls-2" d="M1589.58,119.76c-10.44,8.32-19.88,15.66-29.32,23a18.75,18.75,0,0,1-9.41,0c1.71-8,5.18-15.17,9.43-22,.75-.78,2.57-.75,2.19-2.29-.18-.7-1.44-.86-2.4-.83-9.71-1.37-5.2-11.09-9.26-15.77-.92-2.75.67-4.07,2.87-5a10.36,10.36,0,0,1,4.33.09c3.23.9,3.73,4.39,6,6.43-.84-4.26-4.32-6.88-5.88-10.57a24.73,24.73,0,0,1-1.52-6.28c-.31-2.12-.46-4.25-.64-6.38-2.76-9.45,1.43-17.9,3.85-26.61,3.31-4.29,2.8-9.48,3.64-14.41.92-5.39,2.06-11.48,10.27-8.83,4.16,14.28,3.37,28.41-2,44.91,7.06-11.7,2.53-22.48,5-32.26a13.51,13.51,0,0,1,4-5.55c3.66-1.94,9.61-4.28,8.51,2.13-1.46,8.49,4.58,16.12,1,24.24-1.17,5.61,1.11,11.73-2.41,17a15,15,0,0,1-4.17,4.72c-3.82,3.6-10.84,7-.84,11.5,1.56.14,3.13.31,3.88-1.54-1.22-2.25-3-4.18-3-6.85,1.1-4.24,4.44-7,6.72-10.51,1.92-2.9,7-2.29,7.54-6.66,1.24-10.43,6.77-7.61,12.55-4.14V149c-13.83-4.39-11.36-21.46-21-29.28,1-1,1-1,1-1s-.35.32-1,1a10.27,10.27,0,0,0-1,1C1589.28,120.12,1590,119.47,1589.58,119.76Z"/><path class="cls-3" d="M1585.54,79.92c3.38-5.33-1.23-10.72.13-16.07,6.42-2.16,12.37-5.6,19.07-7,5-.06,3.36,5.28,5.86,7.26v3.15c-5.11.45-4.42.47-4.63,5.52-.42,10.24-11,1.42-14.2,7.08C1589.71,81.64,1587.63,81.77,1585.54,79.92Z"/><path class="cls-4" d="M1321.15,255.88c1.4-2.7,3.78-5.31,4-8.11,1.36-14.5,5.77-24.74,23.5-20.23,5,1.26,6.9-3.88,10.17-6.17l2.1.56c3.08,2.43,9,2.56,7.36,8.88-3.11,2.12-3.12,4.24,0,6.35,1.87,2.39,2.12,4.92-.6,6.56-4.33,2.63-6.55-.64-8.68-3.67-1.64-4.21-5-5.49-9.2-5.17-5-.21-8.44,2.14-10.65,6.5a112.69,112.69,0,0,0-8.88,16.34,15.54,15.54,0,0,1-2.51,3.57c-2.35,2-5,3.25-8.14,2.36l-1.78-1.36C1318,259.67,1318.7,257.32,1321.15,255.88Z"/><path class="cls-5" d="M1447,205.62c.18-8.39.24-16.58-4.08-24.42-2.79-5-5-11.27,4.09-13.28,6,2.35,8.14,6.73,7.63,12.35,2-1.45,1.68-5.69,4.55-7.82,4.75-3.58,8.49-7.59,7.33-14.29-2.13-12.21,1.75-23.38,7.21-33.85,2.73-5.22,1.81-9.89,1.25-15-.66-6-3.35-12.4,2.72-17.39,3.36-1.23,5.75.32,7.85,2.72,3.61,6.52.39,14.48,4.6,21.49,7.4-3.7,7.51-18.75,20.38-13.47,1.72,4.6.08,6.75-4.51,6.64,4.45,2.17,10.5-8.24,14.46,1.42.94,5.76-9.59,9.79-.13,18.37,4.77,4.33-.37,18.73-4.53,27.79a3.26,3.26,0,0,1-1.65,2c2.4,0,2-2.63,3.34-3.67,7.77-3,8.63-4.65,7.74-13.23a65.62,65.62,0,0,1,.41-18.35,20,20,0,0,1,1.44-4.2c3.07-5.85,7.59-9.14,14.5-8.15,3.48.68,5.92,1.54,3.35,6-9.44,16.46-1.1,33.65-1.36,50.48-.09,5.76-7.78,6.78-4.9,14.89,5.31,15-8.77,27.27-9.89,41.89a8.5,8.5,0,0,0-6.26,6.26L1510,237.14c-3.36-2.37-5.22-5.25-3.19-9.44,9.75-15.42-4-29.17-3.15-44,2.71-4.77,9.15-4.94,12.25-10.55-5.29,5.74-10.28,6.95-15.33,1-9.31-1.36-15.36-3.61-5-13,3.29-3,4.25-8.65,9-10.26,3.13-1.06,6.33-1.18,4.81-5.61-.46-1.32-1.62-3-2.82-3.38-4.22-1.33-4.61,2.8-6.54,4.93-2.72,3-5.88,5.64-8.85,8.44-1.83-3.73-4.09-5.92-8.56-3.35-3.88,2.22-4.35,5.71-3.87,9.41,1.53,11.7,5.32,22,17.74,26-1.27,7.74-7.37-1.56-8.37,5.4,7.06,5.4,13.93,12.58,3.07,22.32-3.26-.93-4.35-4-6.29-6.29-4.47-7.58-15.64,5-18.88-6.27-3.32-4.14-6.45-3.24-9.86.07C1453.62,205,1451,207.53,1447,205.62Z"/><path class="cls-6" d="M1296,300.07l6.13-.14c5.32-3.5,8.69,0,9,4.23,1.21,15.86,9.71,13.2,19.45,8.48.84,3,2.13,5.94,2.44,9,.9,8.82,3.89,20.16-12.14,11.52-3.73-2-8.32-3-11.26,1.22-4.66,6.71-2.52,12.42,1.48,19.42,2.54,4.46,8,4.36,9,8.86.86,3.84,3.86,8.57.63,11.58a7.67,7.67,0,0,1-11.2-1.21c-12.58-18.12-15.84-5.17-19.9,5.67-1.37,3.51.63,3.59,3.18,3.14,3.78,3.83,4.19,7.5-1.7,9-5.13,1.28-11.41,1-12.93-5.06s-6-12.66-1.27-19.13c4-5.56.89-10.79.11-16.17,6.13-6.5,12.61,5.68,18.75-.35l.23-6c2.38-2.59,2.74-7,1.62-8.71C1290.16,323.75,1295.52,311.85,1296,300.07Z"/><path class="cls-7" d="M1437.58,130.17c-9.58,3.05-16.59,7.64-12.25,19.53.39,1.05-.59,3.74-.87,3.73-19-.64-2.91,12-8.32,18.46-4.11.66-10.49-9.12-16.25-.79-6.23-3.49-14.11-4.65-17.4-12.3a7.51,7.51,0,0,1,1.15-4.12c3.76-2.89,7.9-2,12-1.25,6.3-1.44-.43-3.47.16-5.17a9.45,9.45,0,0,1-.38-4.12c-3.17-10,13.85-2.62,11.06-13.13-1.84-6.91-2.68-14.44,3.1-20.57,3.57-2,7.59-2.19,9.91,1C1424.61,118.66,1428.89,126.49,1437.58,130.17Z"/><path class="cls-8" d="M1330.64,312.64c-4.92,2.77-2.33,13.44-12.37,11.14-8.52-1.95-10.53-7.17-9.74-14.89.48-4.62-.91-8.34-6.36-9,4-4.11-10.69-8.49.17-12.51,2.25-1.18,3.72.12,5.14,1.58a26.11,26.11,0,0,0,5.36,5.6,13.33,13.33,0,0,0,4.82,1.91c-9.14-15-8-17.77,8.6-21a3.69,3.69,0,0,1,3.69-1.43c8.52,7.6,9,16.37,3.84,26C1333.36,304.4,1335.16,309.31,1330.64,312.64Z"/><path class="cls-9" d="M1560.22,79.77c0,2.23-.09,4.47-.13,6.7-3.07,3.5-3.9,8.11-5.93,12.12l-3.35,3.25-9.56,6.5a5.3,5.3,0,0,1-6.22.67c-3.91-12.65,1.45-24.39,3.55-36.46,1.69-6.21,3.7-11.94,12-7.56a11,11,0,0,1,2.53,3.4C1554.06,73.07,1555,77.74,1560.22,79.77Z"/><path class="cls-10" d="M1384,158.18c4,5.88,15.11,3.08,15.92,12.92-.09.51-.16,1.45-.29,1.46-16.92,1.12-16.56,16.23-21.75,26.83-.43-4.35,1.45-9.29-3.23-12.54-1-.09-1.93-.16-2.9-.2-1.83-1.49-2.2-3.46-1.9-5.66a29.94,29.94,0,0,1,2.35-5.75c3-5.1-.05-10.93,1.91-16.16C1377.09,155.58,1380.42,155.65,1384,158.18Z"/><path class="cls-11" d="M1371.53,218.25c-5.14-1.13,1.49-10.13-6.33-9.48l12.66-9.37C1386.64,209.35,1376.25,212.85,1371.53,218.25Z"/><path class="cls-12" d="M1604.29,26.35c0,1.07.11,2.14.16,3.22,1.43,9.45-3.08,18.83-.38,28.3-5,5.44-10.25,10.2-18.41,6,3.94-9.2,2.61-17.85-2.74-26.08-4.81-4.31-.94-9.59-1.64-14.37a42.31,42.31,0,0,0-2.87-20.33l.81-2c9.3-3.35,12.47,1.17,12.48,9.72,0,10.4-.11,20.8.12,31.2.08,3.16-1.39,8.49,4.5,7.62,4.29-.63,1.43-5.2,2.36-7.55C1600.73,36.9,1590.17,27,1604.29,26.35Z"/><path class="cls-13" d="M1579.21,42c-2.81-3.82,5.66-13.42-6.41-12.51l-6.17-9.34c.14-.63.29-1.26.42-1.89,2.1-3.95,2.18-8.94,6.1-12,13.84-1.2,6.51,12.53,12.11,17.15q-1.18,7.2-2.34,14.38Z"/><path class="cls-14" d="M1346.22,249.65l6.42,3.2c-.07,3.48.49,7.17-3.15,9.46-1.06,1.3-2.1,1.36-3.12,0-4.95-9.11-12.42-3.09-18.88-3.15-.77-8.25,4.61-13.41,9.44-18.86l3.18,0C1342,243.51,1343,247.3,1346.22,249.65Z"/><path class="cls-11" d="M1362.06,234c-4.22-.92-13,16.54-12.56-3.15C1353.84,231.27,1358.75,229.43,1362.06,234Z"/><path class="cls-14" d="M1327.48,259.15l0,15.72,0,0a2,2,0,0,1-3.16,0c.52-5.44-4.48-8.19-6.14-12.57Z"/><path class="cls-15" d="M1510,101.9c-11.5,3.55-13.13,14.76-18.12,24.93-10.17-9.6-9.08-20.34-7.15-31.28-1-13.33-.55-26.07,13.93-32.88A9.58,9.58,0,0,1,1503,63c2,1.34,2.63,3.33,2.6,5.62a18.82,18.82,0,0,1-1,4.12c-3.1,10.64,6.08,19,5.41,29.2Z"/><path class="cls-16" d="M1500.57,63.85c-10.88,5.32-9.73,16.54-12.1,25.79-.72,2.82-3.15,3.59-3.71,5.91l-6.29-3.14c7.1-22.73,8.46-47,18.66-68.91a8.88,8.88,0,0,1,3,3.16c2.37,5.67,3.7,11.84,6.21,17.31C1510.44,52.9,1507.32,58.63,1500.57,63.85Z"/><path class="cls-17" d="M1409.36,111.38c-1.13,10.39,1.07,20.5,3.65,32.62-6.7-2.85-13.34-7.71-16.3,1.92a8.94,8.94,0,0,1-3-2.56,28.64,28.64,0,0,1-3.39-7.21c-.9-3.23-2-6.45-.41-9.78,2.15-2.41,5.19-4,6.76-7a31.62,31.62,0,0,1,4.87-6.41c2.26-1.7,4.53-3.37,7.56-1.82Z"/><path class="cls-1" d="M1346.37,262.28l3.12,0-5.24,7.36c-1-1.05-2.81-2-3-3.16C1340.86,262.94,1343.77,262.65,1346.37,262.28Z"/><path class="cls-5" d="M1503.71,70.44c-3.41,7.52,2.41,5.9,6.21,6.28-7.28,8.42,7.08,16.79.08,25.21-3.83-8.12-7.84-16.16-11.43-24.39C1496.52,72.83,1499.4,70.94,1503.71,70.44Z"/></g></g></svg>