<svg xmlns="http://www.w3.org/2000/svg" viewBox="0 0 1770.23 755.13"><defs><style>.cls-1{fill:#027ea8;}.cls-2{fill:#0181ad;}.cls-3{fill:#0381ae;}.cls-4{fill:#0282aa;}.cls-5{fill:#0283af;}.cls-6{fill:#0389b4;}.cls-7{fill:#048cb9;}</style></defs><g id="Calque_2" data-name="Calque 2"><g id="Calque_1-2" data-name="Calque 1"><path class="cls-1" d="M57.31,522.09c-.29-13.21,9.35-22.91,12.37-34.94,7.15-28.54-1.52-56.81-1.56-85.24-.06-38.7-10.35-79,14.19-114.21,16.89-24.2,36.32-46.52,62.75-61.31,19.06-13.39,36.2-28.83,50.7-47.13l60-43.57a33.84,33.84,0,0,1,12,14.25c.85,1.86,1.52,3.8,2.48,5.61,9.45,5.49,18.84,9,30.4,6.09,8.7-2.2,12.86,9.79,21.72,9.58,3,4.61,5.86,9.56,12.8,7.72,9.09.64,15.86-6.73,25.19-7.23,3.15-.17,8.61-9.51,13.29-14.46,3.77-4-.26-8-2.35-11.17-5.31-8-4.38-16.84-4.71-25.59a14.85,14.85,0,0,1,.35-4.31c7.18-6,8.14-14.06,7.28-22.68a39.9,39.9,0,0,1,.24-7.81c1.59-9.23,9-16.66,1.51-28.35-4.62-7.21,4.1-17.24,14-21.12,3-.6,5.76-.35,7.74,2.35a28.67,28.67,0,0,0,2.53,9.62c-.69,9.78,7.52,18.52,3.27,28.8-.81,2,.57,4.13,2.8,4.87,13.26,4.43,5.25,10.22,1.11,15.81-.91,1.09-1.9,2.13-2.86,3.16-5,4.56-.77,12.4-6.84,17.56,16.84-7.76,27.93,2.16,39.49,10.32a38.69,38.69,0,0,0,4.44-5.81c2.88-3.44,2.58-9.54,8.61-10.35,3.46,1.21,6.34,3.39,9.25,5.52,3,2.83,3.75,6.3,2.95,10.23-3,10.59-9,21.77,7.81,27,4.09,1.27,2.78,5.76,2.11,9.47-1.32,7.26-7.43,12.12-8.94,19.13,8.11,7.55,16.08,14.95,14.21,27.78-.5,3.45,1.72,9,4.6,9.18,14.7.87,17.41,15.07,26.29,22.22,1.68,3.15,2.14,7.56,7.36,7.15a17.47,17.47,0,0,1,4,1.1c14.48,2.81,22.24-5.25,21.09-21.92,2.85-3.48,6.77-5.6,11-4.55,10.38,2.6,20.47,1.69,30.73-.46,6.15-1.29,10.88,2.59,15.66,5.77a14.6,14.6,0,0,1,4.22,4.89c1.34,4.11.67,8.4,1.08,12.59,3.48,7.25,12.64,11.88,7.52,23.08-2,4.34,4.54,5,8.89,2.45,6.79-4,7.4-12.53,13.14-18-4.76,6.62-9.62,9.09-14.93,1.3a15.52,15.52,0,0,1-3.28-8.27c4.31-8.73,8.06-17.43,6.76-27.74-.56-4.47,1.24-9.27,3.43-13.46,1.92-3.69,4.11-7.82,9.3-6.43,4.41,1.19,4.83,5.37,4.25,9-1.54,9.6,3.69,18.2,3.13,22.93-.9-4.69,5.1-13,4-22.27-.11-3,.14-5.91,2-8.43,11.05,3.22,27,.87,20.71,21.95-1.37,4.57,6,11.56,8.38,17.91a22.19,22.19,0,0,1,.8,4.21c3,8.72-9.18,15.52-3.05,24.57,2.85.06,5-1.35,7.15-2.93,14.56-10.87,14.67-10.91,22.6,5.49,1.82,3.77,5.64,4.45,8.33,6.81,1.85,2.58,2,5.45,1.51,8.44,2.28,14.51-4.27,29.71,3.1,43.74,3.4,6.47-4.67,7-4.85,11.29a14.84,14.84,0,0,0,3,1.76c4.66,1.72,9.31,3.11,14.26,3.2,10.69,2,14.24-4.86,18-13.07,4.85-10.64,8.16-10.49,14.5-.57a53.68,53.68,0,0,1,4.87,9.81c9.09,23.72,20.93,28.55,46.78,19,33.81-6.74,68.21-9.29,102.16-14.95,10.83-1.81,21.53-4.07,32.26-6.22,10.39-1.15,20.34-4.59,30.64-6.16,8.42-.38,16.33-2,21.74-9.42a9.86,9.86,0,0,1,4.05-1.09c8,1.77,15.21-.7,22.19-4.34,20.23-9.95,22.66-20.44,8.45-36.56-13.09-14.86-13.19-15.07,4.11-23.17,11.58-5.42,8.07-14.51,3.56-20.79-9.29-13-11.3-23.77,1.72-35.42,4.86-4.34,4.4-11.36,2.64-17.69-.86-5.09-3-10.85,4.21-13,5.23-1.56,9.86,1.4,11.93,5.51,4.56,9.09,15.23,17.59,4.94,29.3-2.54,2.59-5.83,4.48-8,7.33-4.82,6.18-6,10.48,3,15.72,22,12.79,22.08,20.21,1.54,36.15-6.75,5.23-5.66,10.71-3.23,16.46,3,7,7.73,2.42,11.68.66,4.37-2,9.1-4,13.57-2.7,14.68,4.28,26.3-2.21,37.86-9.59,26.81-12.26,56-15.61,84.28-22.13,14.85-3.42,28.55,3.57,41.78,9.87a12.89,12.89,0,0,1,3.52,3c2.45,4.37,4.84,8.81,9.75,11,4.41,3.8,11.23,3.66,14.92,8.21,7.53,9.29,4.31-5,8-3.45,3.87-4.14-2.11-3-2.7-4.79a6.93,6.93,0,0,1-1.87-3.5c0-4.58,1.48-9,.51-13.71-1.35-6.65,3.44-7.5,8.42-7.62,6.27-2,1.08-5.7,1.23-8.59a13.43,13.43,0,0,1-.39-3.79,22.2,22.2,0,0,0,.22-9.22,9.57,9.57,0,0,1,.54-3.9c1.65-3.16,3.44-6.11,7.8-5.13,3.83,3.07,8.34,4.68,13,6.06,2.81,1.29,4.89,3.94,8.48,4.34,1.15-5.55-1.64-10.69-1.3-16.39,1-16.12.2-16.16,15.89-14,3.24-9.2-.68-17-5-24.67-4.8-14.37,1.61-28.32,1.78-42.53.07-6,5.25-5.88,9.31-4.09,8.31,3.64,11.38,10.39,9.18,19.12a41.4,41.4,0,0,0,1.07,24.44c2.4,4.51,5.76,5.48,10.16,2.82,5-1.34,11.47-.44,10.21,5.05-2.4,10.41,2.72,21.83-4.5,31.37-1.36,3.06-7.8,6-4.75,8.3,12.13,9-.66,11.93-3.55,17.23,8.7,0,10.42-10,17.7-11.76a7.68,7.68,0,0,1,4.13,1.28c3.53,4.56,3.09,9.79,2,14.83-1.6,7.09-1.19,13.27,5.13,18a10.62,10.62,0,0,1,4.09,11c-2.08,11,4.23,13.52,13.22,13.55,3.7-.35,7.23.58,10.79,1.27a83,83,0,0,0,10.69.37c10.21-.39,18.64-5.6,27.33-10.07a98.46,98.46,0,0,0,10.76-6.16c4.33-6,7.62-12.66,12.24-18.46,4-10.49,16.7-17.47,11.78-31.69-1.5-4.35,2.77-6.06,7.07-5.29,4.62.82,8.76,3.13,13.25,4.78,1.74-4.07.7-8.52,3.18-12,6.5-18.58,5.3-37.24.65-55.95a8.72,8.72,0,0,1,1.9-6.31c7.82-3,10,3,12.56,8.05a92.94,92.94,0,0,1,7.28,22.13c1.63,4.67,7,7.51,6.51,13.22,1.45,2.62-10.46,1.77-1.56,6.71,4.84,2.69,8.79,7.59,1.47,11.94-6.2,3.69-12.44,7.46-10.4,15.43,1.88,7.38,10.42,5.69,16.1,9-2.34-4.11-6.43-4.09-9.62-5.66-6.52-3.22-7.37-9.59-1.79-12,17.14-7.44,12.51-22,13.41-34.94a128.3,128.3,0,0,0,9.93-20.86c3.67-10.16,9.75-11.09,17.27-3.15,4.21,4.44,8.64,9,10.39,15.21a13.8,13.8,0,0,1-.24,4.53c-3,5.18-2.58,10.66,1.7,14.24,8.44,7.07,7,13.47,1.39,21.5-3.17,4.55-4.67,11.3-1,16.16,2.77,3.65,6.35-1.23,9.56-2.31a83.18,83.18,0,0,1,29.24-7.17c11.12-.31,28,3.69,32-2.81,6.66-10.64,8.8-25.44,11.74-38.77.57-2.58-.73-5.07-1.44-7.56-5.17-15-1.29-29.78,1.74-44.46.87-4.19,1.34-9.79,8.16-9.36.74.05,2.48,2,2.14.13-3.36-18.55,5.1-31.64,16.39-45.65,6.73-8.35,8.42-22.24,3-34.28a35.7,35.7,0,0,1,.31-16.79,60.83,60.83,0,0,1,5-11.31c4.1-7.76,8.16-6.49,12.15.12,10.84,24.3,5.4,51.13,11.77,76.08,2.86,11.21,7.07,21.89-4.13,30.92-5.26,5.37-6.22,10.9-3.26,18.31,2.72,6.79,5.48,14.23.2,21.92-2.4,3.5-.53,8,3.21,10.89,3.48,2.69,6.28,5.62,3.42,10.4-6.44,3.25-14.42,5.32-11.85,15.45.35,1.63.09,3.61,2.4,4,3.17-3.41,5.46-9.16,10.87-7.54,5,1.48,3.19,7.07,3.43,11,.78,12.56,7.67,18.63,19.86,19.47,4.63.32,9.47,0,13.29,3.44,4.31,10-8.79,9.43-9.81,16.21-2.14,3.51-.42,8.66-4.69,11.28-5.59,2.17-10.21-.32-14.41-3.43-7.7-5.72-9.54-1.92-12.66,5.4-4.59,10.8-4.83,22-6.69,33.14a25.46,25.46,0,0,1-4.36,8.15,19.26,19.26,0,0,1-9.72,6c-19.36.94-23.43,17.67-31.36,30.42a15.84,15.84,0,0,1-5.09,3.73c-4.31,1.64-5.25,6.07-7.66,9.29a6.69,6.69,0,0,1-5.62,1.64,7.21,7.21,0,0,1-3.15-1.95c-7.07,1.75-5.53,8-7.31,12.85-7.7,21-4.93,43-7.37,64.5a75.87,75.87,0,0,1-3,7.86c-2.94,6.5.55,13.52-1.57,20.09-.23,4.39.3,9.21-5.77,10.35-6.3.09-9.8-4.14-13.23-8.52a19.14,19.14,0,0,1-2.09-9c-.16-5.41,3.15-9.88,4.15-14.9,1.37-6.84-6.15-15.57-7.59-14.27-8.06,7.29-13.44-1-19.85-1.51-10.17-.74-14.7-6.41-14.81-16.37,0-3.58-.17-7.92-5.38-7.85s-4.69,4.72-5.5,8.07c-1.12,4.59-2.21,9.15-6.17,12.31a5.66,5.66,0,0,1-4.37,0c-4.85-5.29-2.73-13.28-7.28-18.7a11,11,0,0,1-.26-6.56c2.24-4,4-8.2,3.35-13-.11-.75.63-1.67-.38-2.28a4.07,4.07,0,0,1-3.23,2.78c-3.15-.49-6.79-1.75-8-4.09-3.14-6.25-6.38-1.36-9.58-.83-13.06,1.89-11.21,13.9-14.36,22.11-1.54,4,0,9.25-1.49,13.8-2.81,10.4-10.74,16-19.42,21-6.44,4.31-11.86,12.68-21.3,5.63-17.51-5.73-11.25-19.52-10.67-31.39-17-3.34-12.77-20.54-19.35-30.67-6.71-10.31-13.19-20.51-21.77-29.31-2.79-.77-5.51-1.64-7.76-3.56-4.61-7.07,6.52-18.06-5.82-23-4.92,6.89-2.69,16.35-7.58,23.51-5.58,8.89-11.24,18.63-19.76,24.06-22.64,14.42-23,33.38-13.67,54.77,4.07,9.4,2.17,16-5.62,21.77-10.13,3.61-18.48-.77-26.65-6,5-15.4,1.08-30.12-3.47-44.79.3-6,.1-11.89-2.17-17.61,1-1.74-3.46-.42-1.43.09.24.05,0,.51-.2,1.47a12.57,12.57,0,0,1-2.84,5.14c-7,12.45-5,27.66-12.11,40.09a5.72,5.72,0,0,1-9.82.42c-8.66-15.28-8.06-32.71-11.38-49.2a21.16,21.16,0,0,1-2.09-3.93c-1.55-7-3-13.95-4.78-21-1.84,2.21-.7,5.25-1.78,7.69a24.75,24.75,0,0,1-2.46,6.35c-6,14.31-10.26,29-11.07,44.63-9.08,27.09-11.16,55.11-11.13,83.4.93,7.48-4.72,14.51-1.47,22.17,1.47,7.3,4.7,14,7.32,20.86,1.5,7.09,4.23,14.85-7.75,14.91a13.45,13.45,0,0,1-4-1.67c-11-.72-7.54,13-15.58,15.42-6.1-2.32-5.43-9.29-8.8-13.57-.66-1.21-1.29-2.44-2-3.62-7.45-4.27-10.35-12.09-12.18-19.28-2.91-11.43-9.86-19.24-18.19-26.49-9.29-3.21-8.76-15.78-18.1-19a7.29,7.29,0,0,1-.19-6.27c6.08-10.59-4.54-19-3.87-28.82-8.57-1.47-9,4.32-9.33,10.23-.64,10.19.22,20.4-.54,30.59a18.71,18.71,0,0,1-2,6.53c-6.46,8.93-16.78,12.82-25.18,19.21-20.91,11-21.91,19.83-5,44.27,8.7,16,7.16,20.29-9.35,25.49-5.34,1.68-10.73,3.67-16.48,1.9-6.25-2.47-7.55-9-11.16-13.76-1.29,2.9-2.59,5.7-4.81,7.94-6.25,6.8-13.14,13-19.8,19.35-4.2,4-9.23,6.5-15.4,4.89-3.09-1.15-4.74-3.67-6.16-6.41a17.48,17.48,0,0,1-1.35-4.3c-.79-5.23,1.6-10.13,1.57-15.29.14-4.16-.93-8.72.38-12.41,4.72-13.29-5.23-20-12.33-27.17-6.16-6.18-10.48-12.67-12.65-20.89-2.62-11.61-7-22.71-8.13-34.81-.66-6.91-4.16-16.19-12.74-15.48-7.73.64-14.67,8.17-14.5,16.1.29,14.09-8.26,23.13-14.91,33.52a58.6,58.6,0,0,1-8.07,10.87,18.43,18.43,0,0,1-10.38,4.31c-13.35-1.17-5.51-13.39-11.13-20.54-3.37,12.26-3.14,24.13-5.59,35.48C928.06,538,930.92,548.35,931,558c-6.82,13.75-12.34,3.29-16.45-1.68-5.76-7-8.2-16.2-13-24.08-2.62,2.14-3.43,4.66-4.85,6.76-2.81,4.9-7,9.47-7.88,14.91-2,11.82-9,11.41-16.57,7-11.45-6.64-17.12-4.14-18.18,9.07-.12,1.45-1.31,2.76-2.16,4.05-3.62,6.3-11.94,6.41-16,11.88-7.64,10.3-16.53,19.89-13.43,34.83,1.75,8.44-1.23,16.5-8.74,22-7.21,1.73-10.62,6-9.32,13.59,8.21,9.44-6.38,17.44-1.62,26.68,4.52,12.66-3.43,18.81-12.65,24.33-7.71,3.21-15.88,4.85-23.88,7.14a73,73,0,0,1-19.13,1.12c-24.46-.16-48.91.06-73.35-.08-28.37-.15-29-.75-29.41-28.56.11-3.38-.15-6.8-.1-10.18.8-6-1.94-11.17-4.46-16.32-1.73-3.43-5.32-3.56-8.37-4.66-6.81-7.34-2.56-20.91-14.38-25.44a10,10,0,0,1-1.47-4c-1.95-14.93-8.38-27.93-17.08-39.9-5.6,4.57.66,15.78-7.32,16.94-6.65,1-6.81-9.12-11.15-13.31-1.83-1.76-2.88-5.07-5.39-5.35-11.88-1.37-11.29-10.2-11.73-18.57-.32-6.24-.78-12.46-3.92-18.09-2.81-9.31-2.8-19.33-6.46-26.45.61,1.52.09,5,0,8.39-1.62,22-8.25,43.27-9.14,65.38-.15,3.57-2,8.4-5.08,9.22-16.21,4.41-10.58,17.75-12.25,28.09-.09,25.05-5.85,50-1.84,75.12-6.91,17.13-21.12,14.23-34.81,12.76a11.26,11.26,0,0,1-4.15-2.41c-1.15-3.19.12-4.9,3.35-5.41-1.74-.32-3.26.5-4.84,1-9.77,2.91-19.84.64-29.69,1.77-10.83,1.25-22,2.18-27.9,13.65-5.58,13.19-17.57,19.21-29,25.87H44.88c-7.41-17-.31-34.81-3.26-48.81-2,14,3.81,31.81-3,48.81H.84c0-20.43,1.25-41-.43-61.26C-2.75,656,13.24,622.63,23.12,587.78c.85-3,1.88-5.94,2.84-8.91,3.67-5.71,2.9-13,6.49-18.7l0,.06c3.45-5.63,5.48-12.41,12.36-15.25,9-2.16,8-11,11.18-17C56.8,526.37,55.92,523.87,57.31,522.09Z"/><path class="cls-2" d="M472.52,125.9q-1.51,0-3,.06c-2.93,1.66-5.33,4.89-9.4,3.14-.07-3.46.48-7.14-3.15-9.42-2.36-1.83-3-5.4-6.31-6.27-5,2.74-1.21,9.91-6.38,12.55-7-.91-5.8,2.27-3.08,6.2-3.27,3.53-10.76,7.26-10.5,2,.71-14.51-8.9-7.31-14.14-8.45-1.13-4.25,6.28-2.41,3.72-7.34-4.15-2.32-7.06,2.38-10.87,2.94-5.74.84-13.95,3.89-16.8,1.28-5.49-5,3.71-7.59,5.21-11.6,1.7-4.56-3.63-11.83,5.75-13.29,4.15,1.71,4.74,6,6.79,9.81,4-8.24-3.88-7.2-6.81-9.8l7.63-10.53c-9.61-.22-17.33-1.09-11.83-14.12,3.48-8.27-4.76-16.9-2.05-25.88,11.36-3.95,12.66,2.48,13.49,11.68.75,8.21-1.82,19.95,12.75,19.8,5.66,4.63,4.89,13.48,12,17.94-.43-7.5-6.24-14.38-1.18-21.59,3.16-2.53,4-5.93,3.5-9.73-.65-4.5-.26-8.53,5-9.72,5.08-1.14,7.1,3.08,9.73,6.21,5.28,6.28,6.38,14.79,7.19,21.73C461.54,98.67,471.85,110.79,472.52,125.9Z"/><path class="cls-3" d="M598.46,233c-10.36-6.3-21.26-5.92-31.91-1.5-8.75,3.64-16-8.65-24.62-1.65-4.34-12.72,4.64-19.88,13.1-24.24s9.54-9.48,8.06-17.16a23,23,0,0,1,.82-6.71c.42-2.66,1.18-5.54,3.41-6.84,4.88-2.86,5.47-12.78,11.8-10.63,7.14,2.42,11.34,11.36,9.69,18.07-2.2,9,7.07,3.81,7.06,7.53C595.85,204.27,609.59,217.9,598.46,233Z"/><path class="cls-4" d="M280.79,122.91c3.37-4.19-3-3.21-3-5.64l6.21-10c1-.08,2-.13,3-.15,7.65,2.81,14.11,6.5,12.08,16.37.59,1.27,1.13,3.27,2.81,2.54,1.86-.82,1.68-3.36,2.46-5.14a9.93,9.93,0,0,1,4.57-4.7c10.46-7.59,9.31,2.32,10.33,7.3,1.8,8.79-1.83,18.38,3.82,26.66,1.2,7.8,2.51,15.61-1.46,23.08-4.11-5-17.85,9.7-16-7.83.18-1.78-1.52-1.64-3.1-.74-14.49,8.25-25.6-1.52-37.48-7.16,13.09-6.56,18.89-16.77,15.8-31.45Q280.82,124.46,280.79,122.91Z"/><path class="cls-5" d="M774.65,314.79c-9.69,11.83,2.76,21.64,3.17,32.58,0,1.12,4.48,2.12,4.48,3.19.05,23.19,16.94,17.22,30.13,17.62-16.64,9-31.77.08-47.26-4.11A3.58,3.58,0,0,1,763,359c8.22-12.95-6.8-18.85-8-29.47-4.12,14.71-9,27.18-27.51,23,0,0,5-24.44,5-24.43a8.44,8.44,0,0,1,2.93-2.86c5.41-5.92,3.51-14.17,9.94-21.54,10.32-11.85,14-7.68,20.71.46C766.55,309.59,770.28,312.45,774.65,314.79Z"/><path class="cls-6" d="M346.87,100.84c2.13,18-3.56,36.2,3.79,55.79-15.77-6.75-10.11-21.65-16.31-30.56C347,121.87,341,108.41,346.87,100.84Z"/><path class="cls-7" d="M1023.22,226.71c.21,6.93.94,13.48,9.09,16,2.38.73,5.39,2,4.27,5.21-1.32,3.85-4.54,3.29-7.67,2.08-4.58-1.76-9.2-3.42-14.24-5.29-2.15,8,6.62,10.35,7.57,16-2.62,6.22-9.3-2.19-11.66,3.77-1.05,1.31-2.11,1.25-3.18,0-6.39-1.38-7.42-3.79-3.15-9.45C1011.07,246,1017,236.18,1023.22,226.71Z"/></g></g></svg>