<svg xmlns="http://www.w3.org/2000/svg" viewBox="0 0 82.3 77"><defs><style>.cls-1{fill:#6abbd7;}.cls-2{fill:#7fc7e1;}.cls-3{fill:#76bdd5;}</style></defs><g id="Calque_2" data-name="Calque 2"><g id="Calque_1-2" data-name="Calque 1"><path class="cls-1" d="M54.38,42.38c-.06,3.93,2.34,6.69,4.38,9.71,1.66,2.45,1.14,5-1.22,6.83s-5.12,1.86-6.86-.54c-6.37-8.79-9.72-2.77-13.86,2.77,5.75,5.59,17.89-2.2,19.86,8.91.84,4.75-4.11,6.56-8.61,6.94-9.82-5.31-22.55,3.81-31.41-6.31l-12.47-.1C.94,64.36,6.1,58.07,4.08,51.84h0c-3.2-13.49,9-22.76,9.94-35.37.17-2.43,6.35-12.41,11.11-.13,2.95,7.61,6.68,0,9-1.62,8-5.59,13-5.84,15.11,5.28C50.65,27.5,55.11,34.34,54.38,42.38Z"/><path class="cls-2" d="M54.38,42.38c-3.63-9.26-11.9-16.84-10-28.76-3.93,5-12.93,1.7-13.89,10.28-.35,3.06-2.88,2.67-4.71,1.75-4.74-2.38-1.38-7.74-5-12.86-9,12.13-9.16,27.38-16.69,39.05C-1,47.08-.91,39.41,2,36,10.08,26.6,9.35,13.29,18,4.55,23.38,6,25,11.32,28.18,15.16,34.54,12.24,37.66,7,39.79.75c6,1,5.65,6.85,8.36,10.2,5.94,5.29,11,11,7.62,20.27,1.69-4.13-3.9-10,4.82-10.87C61.74,28.6,60.08,36.06,54.38,42.38Z"/><path class="cls-3" d="M60.66,20.37C62.35,13.94,64.05,7.51,66,0c6.18,2.06,2.51,9.47,7.2,11,.92,10.78,1.88,21.58,7.43,31.24,2.06,3.57,2.68,6.74-1.14,9.49-8.37-5.89-5.63-15.25-7-23.21C71.2,21.41,69,16.72,60.66,20.37Z"/></g></g></svg>