<svg xmlns="http://www.w3.org/2000/svg" viewBox="0 0 973.52 271.32"><defs><style>.cls-1{fill:#66b9d5;}.cls-2{fill:#67b9d5;}.cls-3{fill:#54badb;}.cls-4{fill:#5ebcd6;}.cls-5{fill:#6cb6d7;}.cls-6{fill:#64b8cf;}</style></defs><g id="Calque_2" data-name="Calque 2"><g id="Calque_1-2" data-name="Calque 1"><path class="cls-1" d="M2.84,49.23,0,43.41C19.54,28.07,41.75,21,66.56,19.84a142.8,142.8,0,0,0,50-11.54c3.55,19.46,17.89,31.65,30.35,45.1,3.48,3.76,7,7.48,10.49,11.22,2.05,2.92,2.85,6,1.14,9.37-2.38,2.67-5.38,3.08-8.67,2.41-5.43-4.4-10.39-4.49-14.64,1.69-5.22.46-7.42-2.88-8.92-7-.57-1.44-1.12-2.95-3.28-1.79a15.67,15.67,0,0,1-3.3,1.48c-5.79,1-11.62,1.72-16.43,5.53-7.39,1.5-14.09,4.08-17.86,11.33a7.27,7.27,0,0,1-6.09.51C75.24,84.85,73,77.19,65.3,82.19,61.86,83.5,58.47,80,54.92,82,69,95,81.35,96.34,90.78,86a7.39,7.39,0,0,1,6.65-.38c4.94,4.46,7.33,10.24,8.61,16.58a12.23,12.23,0,0,1-.92,4.51c-4.21,6.86-11.31,8.44-17.72,6.19-10.14-3.56-20.52-2.57-30.73-4C37.91,106.29,24.1,97.5,18,79a12.13,12.13,0,0,0-6.71-7.87A14.07,14.07,0,0,1,8.06,68C4.27,62.32,9.35,54.17,2.84,49.23Z"/><path class="cls-2" d="M959.52,80.46c-7.75-4.73-15.85-8-25.21-6.24-.31-.53-.61-1.06-.95-1.56-5.09-6.35-11-1.36-16.6-1.2C902,72.89,886,70.07,875,84.06c-11.14,14.6-25.79,24.93-41.4,34.09-4.82.75-9.37,2-12.65,6-3.17,3.67-7.52,3.33-11.74,3.42-26-.14-52-.15-77.7,5.71-14.93,3.41-29.22,8.23-40.9,18.33-18,15.56-37.84,29-53.37,47.38-3.37,7-7.66,13-15.78,14.94-11.25-1.34-11.86-9.8-12.32-18.36.31-11.44-3.28-20.36-15.47-23.58-5.57-1.47-8-6.21-11.16-10.23-4.18-5.28-8.43-5.12-12.56.14-9.77,0-11.69-8.77-15.67-14.71-5.14-7.68-10-15.41-17.91-20.41-11.58,10.5-15,23.67-13.11,38.66-.54,6.06-.42,12.52-8.34,14.23-7.08,3.35-11.83,13.36-22.05,7.92-10.78,7.55-14.17,19.23-14,30.9.1,9.93-3.52,14.2-12.18,16.15-13.92,3.28-28.51-1.86-42.23,3.39-1.29,1.73-1.68,3.79-2.16,5.82a19.65,19.65,0,0,1-2.24,6.07,9.62,9.62,0,0,1-3.33,2.71c-13.61,1.77-25.31,7.85-36.06,16.08l-9.39.7c-11.25,3.9-19.12,2.47-18.85-11.89a66.89,66.89,0,0,1-.84-6.75c.25-6.72-4.06-12.05-5.65-18.21-1-3.91-.44-8.1-2.12-11.87-1.41-3.16-2.05-7.78-5.92-8.13-5.17-.46-5.85,4.48-6.89,8.37-2.45,8.06-4.82,16.13-7.8,24-1.45,3-3.25,5.69-6.23,7.4-8.65,3.34-18.19,3.13-22.55-4.94-10.18-18.84-29.14-21.64-46.1-28.46-6.05-.5-10.45,2.64-15.59,5.46-10.89,6-22.8,12.13-34.52.8a21.49,21.49,0,0,1-2.91-16.4c6.83-16.28,1-29-14.76-31.88-9.93,5.81-9.1-5.64-13.64-8.49l-.56.23c-3.75-9.61-7.65-19.19-4.34-29.81.2-15.7,2.51-31.44-4.93-46.59-2.59-5.28-1.31-12.12.29-18.18q0-4.76,0-9.52c10.82,5.77,22.39,7.35,34.45,6.29,9.59-4.72,20.41-.94,30.12-4.45,5.55-4.63-.56-4.17-2.37-4.8-4.14-1.44-10.49-.73-9.67-7.33.77-6.1,5.53-11.24,11.75-9.37,12.78,3.85,2.67-6.11,5.4-8,1.8-6.91,5.22-13.32,6.47-20.42a10.57,10.57,0,0,1,2.64-3.37c4.47-2.62,9.74-11.44,11.27,2.54,1.13,10.2,6.14,19.72,7.37,30.06-2.31,6.12-.15,7.78,5.34,4.87,5.66-3,7.84-8.93,10.66-14.24,13.2-2,21.88-9.38,28.25-21.17,10.35-19.16,20.17-19.41,36-5.35a123.79,123.79,0,0,1,20.17,22.58c3.62,5.24,8.43,9.17,15.31,9.42,3-.72,5.73.18,8.3,1.68,3.7,2.21,7.3,4.58,11.06,6.69,8.39,5.63,18.68,2.62,27.56,6.06,2.16,1.13,3.14,3.24,4.29,5.21l9.24.15c9.26,6.69,19.31.73,29,1.61,11.11,1,21.16,1.75,29.8,10.81,6.48,6.79,15,13.06,26.11,9.7l3.18.29c4.94,9.14,15.1,5.21,22.23,8.88l53.12,3.41c3.37,2.37,7.73,2.86,10.89,5.57,6.71,5.74,6.61-1.1,8.43-4.49,20.85-2.76,41.76-5.77,58.67,11.5,6.69,6.87,10.34-.18,13.82-3.68,7.08-7.1,14.92-10.71,25.08-9.82,15.92,1.39,20.15-1.79,23.44-17.89,1.25-6.13,1.12-12.56,7.62-16q1.6-1.55,3.23-3.07c5-8.65,16.38-7.85,22.23-15.21A48.74,48.74,0,0,1,777,36.9,35.25,35.25,0,0,1,787.82,33c9.45-2.35,17,9.63,26.95,3.55q20.94-.07,41.9-.16c5.74,0,11.6-.32,14.87,5.89,1.52,9.81,9.55,7.2,14.8,6.44,28.83-4.19,54.61,9.32,82,13.39,7,1,6.16,6.46,2,10.26C967.09,75.39,961.27,75.19,959.52,80.46Z"/><path class="cls-3" d="M160.75,134c5.26-9.53-2.55-18.74-.69-28.19-3.9-2.08-6-5.18-5.47-9.6,0,.14-.77.35-.76.51a6.27,6.27,0,0,1-2.75,5.65c-2.53,1.41-3.11,3.77-3.15,6.4-3.07-1.13-8.55,5.11-9.34-3,4.28-6.42-5.31-13.73,1.24-20,3.24-3.43,4.26-8.48,8.14-11.47l9.4-.09c6.18,21.66,11.6,43.44,9.29,66.3C162.81,140,160.73,138,160.75,134Z"/><path class="cls-4" d="M116.56,80.49c.91,10.25-5.56,16.38-12.43,22.28-2.88-5-7.82-9.25-6.51-16,2-4.25,12-4.49,6.29-12.6,3.24-11.29,12.57-4.23,18.88-6.27C126.85,75.12,121.85,77.88,116.56,80.49Z"/><path class="cls-5" d="M103.91,74.16c2.88.71,7.77-1.73,7.07,4.59-1,8.55-7.16,8.26-13.36,8H85C83.08,70.17,95.29,74.87,103.91,74.16Z"/><path class="cls-6" d="M141.52,86.84c-4.08-1.84-6.22-5-6.19-9.48-.31-5.16.78-9.85,6.73-10.56,5.1-.61,5.39,3.77,5.91,7.43C147.47,79.28,149.77,85.76,141.52,86.84Z"/></g></g></svg>