<svg xmlns="http://www.w3.org/2000/svg" viewBox="0 0 1386.95 935.53"><defs><style>.cls-1{fill:#9bdaf0;}.cls-2{fill:#baecf4;}.cls-3{fill:#c7ebf0;}.cls-4{fill:#a1d8ed;}.cls-5{fill:#bdebf4;}.cls-6{fill:#ace6f7;}.cls-7{fill:#beedfb;}.cls-8{fill:#a3d9e9;}.cls-9{fill:#a9e5f7;}.cls-10{fill:#b8edf7;}.cls-11{fill:#ace7f9;}.cls-12{fill:#bdecee;}.cls-13{fill:#d1ebea;}</style></defs><g id="Calque_2" data-name="Calque 2"><g id="Calque_1-2" data-name="Calque 1"><path class="cls-1" d="M1379.69,688.58c-.61,3.14-5.1,6.25-.08,9.44,3.34,4.91,4,11.05,7.34,16a5.87,5.87,0,0,1-3.1,5c-4.61,1.28-5.07,6.22-7.92,9.06-13.36,4.37-13.69,16.11-15.51,27.14-.83,5,2.37,10-.18,15-30,18-29.94,18-43.14-15-3-7.63-6.48-15.1-9.74-22.64-2.76-2.7-6.68-.52-9.68-2.29a11.4,11.4,0,0,1-2.57-3.36c-1.75-3-3.1-8.12-7.15-2-4.92,7.36-8.22,15.62-12.13,23.53a13.23,13.23,0,0,1-3.92,4.73c-2,1.31-4,2.65-4.17,5.44s-2.53,4-4.46,5.43c-7.85,5.68-17.06,9.76-22.08,18.78-7.27.37-7.27.37-10.59-12.55a15.8,15.8,0,0,1-.3-4.17c.8-4.61-.2-9.06-1.23-13.33-1.58-.9-.33,1-.84,1.11-1.54,5.32-1.65,10.85-3.5,16-2.44,4.85-5.35,9.3-10.26,12a16.89,16.89,0,0,1-4.47,1.09,15.09,15.09,0,0,1-6.48-1.15c-5.51-2.88-8.38-8-11.18-13.09-2.19-1-2.41,1-3.24,2.17-4.18,9.35-6.22,19.53-19,22.73-5.8,1.46-5.25,10.66-6.7,16.68-1.56,6.43-3.79,13.2-12,11.45-9.63-2.06-10.37,4.56-12.17,10.44-2.11,6.91-1.88,14.75-8.31,19.84-15.86-.11-30.23,4.94-43.8,12.73-7.6,3.72-11.71,11.61-18.91,15.81l-3.2,3c-18.86,9.87-24.82,7.52-34.07-13.38a23.3,23.3,0,0,1-.19-4.34c2.42-8.35-10.74-8.89-8.66-17.09,5.41-15.84-8.72-25.35-12-37.65-7.66,7.52-6.67,19-11.77,28-3.18,3.33-6.42,6.55-11.68,4.8-3.87-2.86-4.59-7.28-5.86-11.5-.6-2-2.38-2.14-1.11-.49.5.64,0,1.89-.27,2.93,1.24,19.06-16,29.41-21.44,45.5-2.15,6.4-8.22,7.13-11.39-1.88-2.11-6-2.63-16.17-10.09-15.79-8.41.43-7.21,11.35-9.68,17.65-2.26,5.77-6.93,11.88-3.24,19-2.73,3.62-4.57,2.24-6.8-.8a90.47,90.47,0,0,0-21.52-21.16c-4-3.61-9.21,1.26-13.22-2-11.3-11.29-25.22-5.82-38-5.21-6.14.29-.75,10-6.55,12.49-5.59,2.93-11.67,2.09-17.6,2.35-8-.19-16.07.38-24-1-6.72-2.49-13.73-2.31-20.73-2.21-6.2-.13-12.44.27-18.46-1.66-17-7.52-35.12-3.06-52.67-4.5-14.48,2.54-20.66-9-28.92-17.08-.78-.76-1.67-2.21-1.19-2.71,10.6-10.94-2.29-22.67,1.15-33.79,1.45-5.27-.94-9.11-4.66-12.45-3.59-1.83-4.73-13.76-11.33-2.64-1.86,10.48-8.76,19.3-9.63,30.07a10.83,10.83,0,0,1-1.78,6c-3.92,2.88-7.41,1.33-10.67-1.21-2.42-1.9-4.27-1.88-5.66,1.12-.56,1.22-1.18,2.36-1.83,3.52-4.77,9.46-6.9,19.62-8.76,29.94-1.14,6.32.89,8.92,7.16,8.54a8.16,8.16,0,0,1,4,1.73,7.79,7.79,0,0,1,.6,6.61,12.46,12.46,0,0,1-4.76,5.13c-4.29,2.12-8.78,3.83-13.06,6C595,917.4,572,916.13,550,918.74c-19.19,2.28-37.66,7-56.15,12.09a61.73,61.73,0,0,1-15.07,4.2c-16.74,1.74-33.09-1.42-49.5-3.81-8.65-2.47-17.06-5.72-25.68-8.29-1.6-.26-3.16-.63-4.73-1a32.31,32.31,0,0,1-12.33-6.3c-20.5-17.37-43.71-21.7-69.37-15.35a17.82,17.82,0,0,1-9.22-2.37c-3.06-2.47-1.9-5.51-1.18-8.5,3.48-8.26-2.52-15.12-3.43-22.73-2.16-14.45-1.23-29.26-5.56-42.63-2.09,8.21-2.45,17.69-4.92,26.75-1.32,4.83-1.25,11.67-8.08,11.72-6,0-6.05-6.17-7.26-10.59s-1.7-9.34-6.25-12c-5.8,1.05-3.86,6.47-5.53,9.79-6.39,7.8,1.68,21.1-10.18,26.84-11.9-1-16.23-10.49-21.32-19.11-2-7.59-6.28-14.29-8.78-21.76-4.86-14.55-7.24-15.1-21-6.7a57.68,57.68,0,0,0-17.81,17.14c-7.52,11.28-16.27,21.46-27.58,29.19-3.13,4-5.41,9-10,11.39-7.06,3.69-13.3,4.73-12.16-6.8,0-13.42-6.93-25.61-7-39-.67-5.37,1.68-11.24-2.47-16.07-8.79,3.08-3.75,22.63-20,16.4-3.25-3.66-5.94-4.69-9.79,0-7.41,9-13.06,5.21-18.42-5.91-2,16.51-15.49,26.88-12.88,42.78a14.2,14.2,0,0,1-.15,4.22c-.12,4.42-9.53,10,1.64,13,3.91.46,7.79.91,10.57,4.18a7.08,7.08,0,0,1-.88,7.19C65.16,913,53.89,909.09,42.83,903c-13.68-11.38-26.15-24-36.07-38.81C2.52,857.85-3,851.47,2,842.91l-.46-.83c10.34-13.33,20.6-26.74,35.49-35.52q4.88-3.93,9.74-7.87c13.42-1.85,23.63-11.48,36.31-15,3.44-3.35.89-7.65,1.8-11.4,3.77-9,10.52-15.73,17.17-22.55a21.74,21.74,0,0,1,4-1.89c17-8.28,32.24-17.92,32.7-39.77-.33-5.72,3.32-8.26,7.95-10,11.4-10.92,25.38-16.32,40.64-19,3.2-2.17,5.68-1.76,7.22,2-1.2,9.86,5.64,14.53,15.47,9.9,4.64-2.18,8.64-6,14.06-6.07,12.77-.26,13.32-6.87,8.78-16.33,1.67-8.07,2.46-16.73,12.52-19.32,1.46.19,3.8,1.94,3.92,1.55.86-2.86-2.65-3.67-3.33-6-1.85-6.31,2.29-9.92,6.13-13.67a16.3,16.3,0,0,1,4-2.13c17.29.69,33.1-7.58,50.35-8.17,11.3-.39,15.33-10.46,13.31-28.23a11.1,11.1,0,0,1,1.53-4,5.75,5.75,0,0,1,2.47-1.28c1.16-15.45,17.18-22,21.3-35.58a24.73,24.73,0,0,1,2-3.83c4.55-10.67,5-21.29-.3-31.84a60.45,60.45,0,0,1-6.78-7.44c-2.43-3.05-5.63-5.55-6.85-9.47-10.25-5.69-22.12-5.63-32.85-9.07-36.29-11.66-73.42-9.44-110.57-9.48-11.91,0-23.78-3.93-35.73-4.37-9.6-.36-12.58-5.07-13.69-13.22-1.77-12.91-3.81-25.79-5.73-38.68,5.75-3.53,12.4-5.19,18.05-8.92,9.53-4.69,16.89-12.39,25.49-18.37a19.07,19.07,0,0,1,4.1-1.33c6.93-.89,14.27-.15,20.26-5,32.93-12.15,52.47-38,68.59-67.27,8.84-10.56,21.53-16,32.17-24.15,20-8.22,30.13-26.68,43.25-41.94,4-4.68,6.09-11.1,13-12.8,17.36-12.21,31.44-27.52,42.94-45.29a12.46,12.46,0,0,1,7.37-5c16.36-4.41,33.57-7.17,44.1-22.85,13.61-5.34,16.21-17.36,18.06-29.85,3.09-4.34,4.44-9.58,7.22-14.09a40.42,40.42,0,0,1,26.42-14.68c10.91-1.41,18.19-6.81,26.86-12.78,14.51-10,14.67-20.5,7.93-34A32.59,32.59,0,0,1,540,48.9a19.57,19.57,0,0,1,1.95-4.59C548.58,32,542,18,546.66,5.44a9.71,9.71,0,0,1,5.52-5c2.6-.62,5.56-.9,7.45.92,14.83,14.22,33,20.57,53,22.13,13.93,1.09,28-1.54,41.91,1.7,4.83,2.64,9.61,5.47,15.49,4.76a30.48,30.48,0,0,1,12,2.28,27,27,0,0,0,11.64,4c6.9.76,16.08-.31,13.65,11.59C705,59.32,697.94,63.68,687,60.59a12.35,12.35,0,0,1-3.91-2.48c-2.9-1.16-5.06-4.06-8.6-3.64-3.58,10.62-2.38,19.93,6.86,27.22,10.63,9.82,3.45,17.65-2.8,25.6a49,49,0,0,0-7.11,13.91c-.18.5-2.19,3.22.89,1,.83-.59,1.49-1.45,2.37-2.12,9-6.23,20.24-9.28,26.8-18.85-2.45-5.79-6.4-11.36-2.55-18,2.16-3,2.7-6.56,3.45-10.12,4.11-19.47,14.92-24.25,31.81-14.43a166.6,166.6,0,0,0,20.65,10.46,13,13,0,0,1,3.46,2.8c7,10.19,17.38,16.26,27.7,22.36a12.8,12.8,0,0,1,3.55,2.6c3,8,8.49,13,16.16,17.43,13,7.47,21.68,20.31,32.7,30.33a16.34,16.34,0,0,1,2.44,3.51c1.6,10.93,9.16,15.85,18.88,18.58,6.38,4.45,10.37,10.67,13.19,17.75a50.66,50.66,0,0,0,16.59,26.39c3.32,10.34,7,20.34,18.93,23.82,2.91,5.91,5.67,12,13.27,13.17,8.37,14.22,21.33,21.32,37.18,24,16.77,4.67,31.66,14.37,48.79,18.06,4.29,3,9.31,4.73,13.59,7.76,18,19.14,38.9,34.49,61.56,47.59a17.87,17.87,0,0,1,4,1.7c4.46,3.56,7.25,8.68,11.54,12.41,4.3,4.57,8.88,8.89,12.9,13.73,6.82,7.79,12.6,16.58,21.55,22.32a33.22,33.22,0,0,1,3.53,2.46c11.62,9.8,23.06,19.8,34.9,29.33a40.94,40.94,0,0,1,3.6,2.4,193.41,193.41,0,0,0,24,14.25c15,6.05,27,17.61,42.74,22.29,6.84,4.69,15,7.48,20.33,14.33a18.72,18.72,0,0,1,1.7,4.18c5,13.8,14.8,25,20.08,38.9,8.27,21.75,12.4,45.27,26.32,64.7a28.47,28.47,0,0,1,2.56,3.24,21.55,21.55,0,0,0,7,7.22,44,44,0,0,1,12.75,19.66c.56,7.56,4.7,13.11,10.1,18a14.2,14.2,0,0,1,2.18,3.72c.71,16.06,13.21,23.91,23.34,33.4C1372.36,678.05,1378.29,681.55,1379.69,688.58Z"/><path class="cls-2" d="M555.52,279.6c-2.17,2.14-4,5.51-6.58,6.23-22,6.2-31.71,22.54-42.43,41.61a74.24,74.24,0,0,1-42.26,33.95c-.52-12,9.66-20.19,11.14-31.47,3.45-3.63,8.28-3.88,12.72-4.93,8.5-2,13.09-7.5,15.11-15.69,2.34-9.45-7.11-6.61-10.47-10.13a11.42,11.42,0,0,1-2.91-5.31c8.27-13.62,10.73-30.22,21.63-42.51l-.05-.17a20.19,20.19,0,0,1,4.24-2.64c4.34-1.07,8.37-.85,11.57,2.79-11.22,7.4-14.56,18.55-14.9,32.77,11.77-7.38,24.71-9.51,36.88-14,2.84-1.86,6.33-2.63,8.53-.15C560.9,273.56,556.93,276.51,555.52,279.6Z"/><path class="cls-3" d="M511.47,251.35c-2.11,9.75-8,18.34-7,29.21.71,7.34-14.83,4.07-11.93,14.78-6,18.82-21.43,19.87-37.39,20-5.93-.25-12,.61-17.55-2.5-.59-.62-1.17-1.25-1.75-1.88l25.32-15.55c5.42-6.28,10.72-12.71,18.85-15.76h0c8.42-3.49,8.45-12.56,12.59-18.9Z"/><path class="cls-4" d="M756.8,68.9l.06,3.07c-10.51.75-18.23-5.66-26.21-10.78-11.47-7.36-22.58-2.44-24.12,11.42-.54,4.91,1.37,11-6.35,12-7.31-4.18-9.48-13.09-16.86-17.69a9.43,9.43,0,0,1-2.08-13.75c6-.15,9.86,10.16,16.16,4.6,3.7-3.26,6.62-9.72,6.33-14.52-.28-4.61-6.81-2.19-10.58-2.62-4.88-.55-10.77,1.18-11.84-6.34,5.27-4.53,10.57-2.06,15.86-.07,12.45-.81,20.16,10.07,31.22,12.68,4.08,3,9.31,3.93,13.18,7.32a17.74,17.74,0,0,1,4.13,4.95C749.06,62.78,754.78,63.73,756.8,68.9Z"/><path class="cls-5" d="M681.24,53.15c4,5.47-.61,19.42,14.61,14.11,4.08-1.42,2.75,2.46,1.34,4.77-3.13,5.13,2,8.37,3,12.56-2.65,7.1,4.57,10.25,6.25,15.62-8.55,7-17.56,13.12-29.11,13.88-3.59-1.62-4.85-4-2.37-7.53.25-7.45,18.09-12.36,3.16-22-5.38-12.2-10.15-24.45-3-37.64Z"/><path class="cls-3" d="M436,336.21c-7.72,4.78-16,7.37-25.16,6.36-2.9-.32-6.52,2.71-8.56-.63s-.69-7.44,1.69-10.2c5.34-6.21,10.68-12.67,19.39-14.47.44.55.88,1.09,1.33,1.62-.55,9,9.2,6.59,12.48,11.34A5.17,5.17,0,0,1,436,336.21Z"/><path class="cls-6" d="M536.64,223c3.45-8.44,7.28-16.7,7.35-26.21,0-2.56,1.51-6.93,5.25-6.5,4.11.46,2.64,4.72,3.09,7.52,5.41,11.41-4.19,22.06-1.65,33.32-4.24.53-6.9,4.87-11.42,4.79C535.72,232.15,535.65,227.68,536.64,223Z"/><path class="cls-7" d="M549.23,232.43c.3,7.31-7.24,9.92-9.45,15.74-4.55-.4-8.64,1-12.55,3.16l-12.72-.05c4.66-11.24,16.83-10.47,25.21-15.76C542.62,233.66,544.61,229,549.23,232.43Z"/><path class="cls-8" d="M678.19,112.91l28.24-12.7C700,113.26,687.65,118,675.06,122.33,672.93,118.14,675.35,115.45,678.19,112.91Z"/><path class="cls-9" d="M555.52,279.6c1-5.22,2.56-10.82-6.31-9.45,10.63-6.64,25.06-5.87,33.34-17.24a3.39,3.39,0,0,1,5.41.14c2.48,3.75-.74,5.75-3.31,7.11C574.25,265.63,563.29,270.2,555.52,279.6Z"/><path class="cls-10" d="M467.41,326.78c-3.46.13-7.14-.4-9.45,3.15-8.28-1.21-14.2,5.86-22,6.28q0-3.12,0-6.24c-.24-3.91,1.69-6.52,4.95-8.34,4.2-1.69,9-1.89,12.66-5a9.85,9.85,0,0,1,3.93-1.1C463.09,317.26,468.07,319.55,467.41,326.78Z"/><path class="cls-11" d="M678.19,112.91q-1.58,4.71-3.13,9.42c-2.61,4.16-3.45,9.81-11.18,12.42,2-11.19,4.5-20.4,11.07-28.19C675.1,109.15,675.67,111.52,678.19,112.91Z"/><path class="cls-12" d="M467.41,326.78c-4-3.39-6.53-8.74-12.57-9.41-1.68-2.09-1.89-4.18,0-6.29,15.68,2.18,27.85-4.08,37.76-15.74a7.56,7.56,0,0,1,1,1.21c3.74,6.81,17.95-6.25,16.1,6.84-1.55,10.94-5.29,24-20.38,26-4.12.54-8.34.39-12.51.56Z"/><path class="cls-13" d="M454.82,311.08l0,6.29h0c-3.19,4.08-9.14,2.66-12.56,6.3L436,330a32.65,32.65,0,0,0-4.64,0c-12,1.66-14.77-2.39-7.91-12.56,4.95-.59,11.44,1.9,12.59-6.29Z"/><path class="cls-3" d="M442.25,323.67c2.4-5.68,7.18-6.59,12.57-6.3C453.77,325.72,447.21,323.1,442.25,323.67Z"/></g></g></svg>