<svg xmlns="http://www.w3.org/2000/svg" viewBox="0 0 86.69 94.92"><defs><style>.cls-1{fill:#6dbcd8;}.cls-2{fill:#69b9d4;}.cls-3{fill:#73c1dc;}</style></defs><g id="Calque_2" data-name="Calque 2"><g id="Calque_1-2" data-name="Calque 1"><path class="cls-1" d="M86.69,76.49c-9.47,8-18.83-2.59-28.26-.17-4.93-3.49-11.08.85-16-2.52A7.3,7.3,0,0,1,41,69.86c-.12-3.39,4.5-7.6-1.79-9.88a11.1,11.1,0,0,1-3.41-2.18A23.57,23.57,0,0,1,33.18,48q0-3.12,0-6.24c3.32-1.61,8.84.66,8-7.31S39.73,18.11,42.67,10.2C45.3,6.66,45.66-.48,50.5,0c6.58.68,4.38,9.32,8,13.35.4,5-.45,10.7,6.26,12.61,1,5.46-3.81,10.52,5.18,16.29,11,7-5,11.08-7.67,18.56,3.24,2.84,13.3-1.52,10.52,9.92C71.22,77.25,81.34,75.67,86.69,76.49Z"/><path class="cls-2" d="M42.71,70c0,1,0,2.08,0,3.12-1.4,2.84-4,4.23-6.76,5.27-3.82.71-7.58.85-8.68,6.14-1,4.69-4.51,7.53-9.7,7.49H14.38C11.72,84.56,9.58,76.69,10.5,69c.82-7,1-14.27,3.88-20.95h0c8.8-5.26,8.1,7.88,14.45,7.39,4.09.78,7.24,4.28,11.72,3.89C46.92,61.73,36,67.64,42.71,70Z"/><path class="cls-3" d="M14.38,48c3.8,11-5.17,23.22,3.73,34,2.11,2.56-7.41,4.62-3.73,10C10.19,97.18,6,94.4,2.13,91.75c-4.79-3.28-.11-6,.68-9.17C5.79,70.75,6.6,58.23,14.38,48Z"/><path class="cls-3" d="M42.67,10.2Q44,22.38,45.24,34.56c1.16,11.08-4.28,11.07-12,7.17C30.05,29.32,42,21.45,42.67,10.2Z"/><path class="cls-3" d="M27,57.43c-4.38,4.27-7.47,2.36-7.4-2.7.06-4.44-.82-6.49-5.19-6.73l4.44-10c5,3.34,7.07,10.5,14.35,10,4.92,1.78,5.81,5,3.28,9.37C33.33,60,30.11,54.64,27,57.43Z"/></g></g></svg>