<svg xmlns="http://www.w3.org/2000/svg" viewBox="0 0 338.63 165.74"><defs><style>.cls-1{fill:#fecf96;}</style></defs><g id="Calque_2" data-name="Calque 2"><g id="Calque_1-2" data-name="Calque 1"><path class="cls-1" d="M31.63,6.16A43,43,0,0,0,38.55,6C51.93,3.45,64.26,7.2,76.1,12.66c3.93,1.81,7.26,5.26,10.36,8.45a23.27,23.27,0,0,0,7,5.43,38.72,38.72,0,0,1,13.7,10.57c2.79,3.29,6.75,4,10.45,5.48,15.93,6.19,31.59,8,47.58-.54,6.51-3.47,14.25-4.2,21.71-5,10.37-1.14,20.77-2,31-4.14,5.43-1.15,8.75-4.06,11.23-8.79C237,9.2,244.3,5.59,261,7.93a8.39,8.39,0,0,0,5.71-1.18A47.15,47.15,0,0,1,290.84,0c10,0,18.27,4,26.06,9.77,5.87,4.36,10.26,10.47,16.8,14,1.61.87,3,2,4.93,2.27V165c-2.13,1.58-3.81.13-5.39-1-17.41-12.19-35.84-22.94-51.6-37.45a84.67,84.67,0,0,0-17-12.16c-6.26-3.39-12.27-3.34-18.31.74-5.09,3.44-10.54,6.36-15.63,9.79-12.39,8.35-26.31,11.49-40.87,12.69-6.7,1.3-12.87,3.7-18.19,8.14-1.48,1.24-3.26,2.3-5.43,1.52-1.34-.69-2-3.27-4.33-1-1.8,1.73-4.25,1.15-5.8-.65-1.72-2-3.5-1.9-5.79-1.48-5.21,1-10.49,1.66-15.66,2.63-3.51.65-6.66,3.37-10.58,3.47-.65,0-1.31.42-2,.35-9.37-1.06-18.82-1.22-28.12-2.87a8.18,8.18,0,0,1-4.61-2.84c-9.84-11.38-23.67-16.29-36.78-22.18a20.65,20.65,0,0,0-15.17-.44c-5.34,1.85-10.84,3.16-16.17,5a40.17,40.17,0,0,1-15.74,1.63c-2.72-.18-5.42-.8-5.52-4.44A3.8,3.8,0,0,1,1.77,122C9,119.61,13.82,114.46,17.41,108,21.49,100.55,27,94,30.63,86.33a95,95,0,0,0,8.22-30.57C40,45,37.73,34.61,36.45,24.11a17.18,17.18,0,0,0-3-8.34C32.62,12.61,29.44,9.88,31.63,6.16Z"/></g></g></svg>