<svg xmlns="http://www.w3.org/2000/svg" viewBox="0 0 335.9 232.85"><defs><style>.cls-1{fill:#ec6c6b;}.cls-2{fill:#ec5f5e;}</style></defs><g id="Calque_2" data-name="Calque 2"><g id="Calque_1-2" data-name="Calque 1"><path class="cls-1" d="M335.9,232.78c-12.15,0-24.31.09-36.47.06-4.59,0-8.75-2-13-3.42-10.26-3.41-20.27-7.64-30.63-10.7a85.64,85.64,0,0,0-40-2.15c-10.8,2-21.58,4.07-32.37,6.12a15.68,15.68,0,0,1-7.86-.48C153.11,215,130.69,207.53,108,201c-9.51-2.73-19.66-3.17-29.48-4.88C52.53,191.6,26.2,191.62,0,190V147a37.75,37.75,0,0,1,8.21-13.93c5-5.72,8.6-12.51,13.93-18,1.41-1.45,2.67-3,5-2.75,4,2.49,7,6.28,12.32,6.89,6,.68,11.75-1.92,17.67-.38,1,.27,1.68-.88,2.3-1.67,1.72-2.23,3.9-3,6.61-2a4.13,4.13,0,0,0,4.19-.63c2.66-1.92,5.25-1.83,7.55.75.44.49-.19.32.33.32,6.3,0,11.74,6.15,18.54,2.59a9,9,0,0,1,7.74-.46,21.5,21.5,0,0,0,10,1.43c7.25-.47,13.09-3.78,19.11-7,1.8-1,3.42-2.09,5.54-1.8,1.78.25,3.21,1.13,3.52,3a3.42,3.42,0,0,1-2.31,4c-2.06.71-4.16,1.21-5,2.47,2.84-2.83,6.93-3.26,11.2-1.54,3,1.2,5.67,1.68,8.44-.46,2.35-1.81,5.43-.24,8.08-1-.26-2.38-2.22-2.94-2.92-4.43-1.16-2.48-1.55-5,.81-6.8s4.56-.62,6.18,1.23c2.5,2.88,5,5.76,6.71,9.27.63,1.34,1.48,2.93,3.31,2.43s2.27-2.26,1.87-4-.55-3.29.8-4.67c3.47-.67,4.56,2,5.87,4.26,8.5,14.36,17.58,28.39,25.57,43.05.31.58.88,1,1.19,1.58,3.26,5.55,6.67,11,10.12,16.41,1.77,2.77,2.88,1.85,4.21-.29,4.2-6.7,8-13.66,12-20.49,1.4-2.38,3.63-4.36,4-7.32,1.43-2.59,3.08-5.06,4.73-7.5,1.91-2.84,4.52-3.43,7-.69,3,3.39,6.51,6.53,7.92,11.1,9.61,10.8,17.78,22.72,26.44,34.26,6,7.91,12.1,15.75,18,23.74,4.25,5.74,8.59,11.44,12.8,17.21a10.28,10.28,0,0,0,9.59,4.71C331.53,229.81,335,228.71,335.9,232.78Z"/><path class="cls-2" d="M127.9,22.06c4,8.38,9.11,16.14,13.82,24.11,6.23,10.55,12.7,20.94,18.59,31.7,6,11,13.05,21.45,19.63,32.14-.3,2.89,3.17,5.11,1.07,8.49-2.74,4.41-5.27,4.92-8.15.64-2.31-3.44-4.18-7.17-7-10.3-1-1.11-1.73-2.64-3.5-2.37-1.17.18-1.33,1.35-1.36,2.37-.06,1.8.36,3.4,2.33,3.93,2.39.66,4.11,1.65,2.84,4.54-1.18,2.69-3.33,3-5.84,2.24-1.4-.42-2.89-1.54-4.18-.14-3.43,3.72-7.08,2.62-10.94.87-4.15-1.87-7.79-.94-10.75,2.5-1.19,1.37-2.42,2.31-4.3,1.25-.75-.42-1.48-.91-1.39-1.86.18-1.93,1.78-2.24,3.24-2.55,3.09-.67,4.57-4.28,8.11-4.31.87,0,1.39-1.5.57-2.44-1-1.14-2.43-1-3.73-.55-2,.61-2.66,2.76-4.61,3.66-4.11,1.89-9,2.07-12.45,5.44-.78.76-2.22,1.41-3.22.49-3.41-3.16-4.88-.14-6.55,2.06-5.14-5.13-7.43-5.43-14.27-2.51-2.33,1-5.6,1.46-7.2-.14-3.85-3.88-7.24-2.6-10.85,0-2.61-7.71-2.61-7.71-10.91-.87-1.19-1.29-.36-4.3-3.28-4.12-2.55.17-2.44,2.34-3,4-.7,2.09-1.81,2-3.84,1.47-3.91-1.12-7.76-1.72-12,0-5.93,2.48-15.09-2.48-17.91-8.9.62-2.48,2.64-4,4.08-5.92,3-2.5,5.62-5.26,7-9l44.6-59.1L112,0l2.88.15c5.69,6.5,10.65,13.44,13.07,21.89Z"/></g></g></svg>