<svg xmlns="http://www.w3.org/2000/svg" viewBox="0 0 268.91 161.6"><defs><style>.cls-1{fill:#f18978;}.cls-2{fill:#f29681;}.cls-3{fill:#fe9e7f;}.cls-4{fill:#fdb27f;}</style></defs><g id="Calque_2" data-name="Calque 2"><g id="Calque_1-2" data-name="Calque 1"><path class="cls-1" d="M120,26.15a88.11,88.11,0,0,0,45.37-16c2.86-2,6.06-3.51,8.79-5.65,8.33-6.49,16.43-5.56,24.79,0C208.1,10.59,216.2,18,224.67,24.89c12.09,9.9,25.76,17.54,38.46,26.58,1.81,1.29,3.15,3.56,5.78,3.61v23c-4.32,1.11-5.93-.19-5.94-4.8,0-5.41-.44-6-5.67-4.52-5.89,1.62-11.45,1-17.47.4-6.54-.6-12.93-2.8-19.58-2.32A8.72,8.72,0,0,1,213.54,64c-4.77-4.6-10.54-6.53-17-7.41-10.74-1.46-21-4.85-30.94-9.09A15.68,15.68,0,0,1,155.16,39c-.51-1.07-1-2.31-2.26-2.46-7.35-.87-13-6.36-20.47-7.19a54.5,54.5,0,0,0-8.29.08C122.11,29.52,119.1,30.06,120,26.15Z"/><path class="cls-2" d="M166,46.1c8.4,2.35,16.38,6.14,25.08,7.52,2.94.46,5.86,1.28,8.81,1.46,6.41.41,11.15,3.85,15.54,8,2,1.85,3.74,2.91,6.61,1.61,3.05-1.39,5.59,1.44,8.51,1.87,2.3.34,4.42,1.31,6.71,0a3.1,3.1,0,0,1,3.36,0c5.91,4.55,11.72,1.19,17.56-.07,2-.43,4-2,5.89.33a5.68,5.68,0,0,1,.89,6.43c-1.71,3.85,1.07,4.53,4,4.84v42c-1.7,1.59-3.68,1.34-5.57.62a288.46,288.46,0,0,0-38.2-12,4.3,4.3,0,0,1-2.43-1.6c-.43-2.54-2-3.89-4.4-4.77a31.63,31.63,0,0,0-9.78-1.54c-3.49-.17-6-1.7-7.11-5.18-1.69-5.36-4.21-9.91-9.79-12.35-2.87-1.25-3.19-3.72-.65-6,1.36-1.2,2.3-2.23,1.14-4.18-1-1.71-2.13-1.69-3.72-1s-2.94-.27-3.9-1.46c-4-5-9.42-8.27-14.67-11.76C165.1,55.78,166.39,50.64,166,46.1Z"/><path class="cls-3" d="M222.88,106.1c-11.33-.1-22.66-.26-33.94,1-7.13,3.36-14.75,2.37-22.08,1.78-11.72-.94-23.25-3.53-34.85-5.46-2.29-3.69-6-4.78-10-5.55a12.81,12.81,0,0,1-7.69-5.08c-3.68-4.62-7-9.76-13.86-10.33-1.92-.16-3.11-1.74-3.82-3.56-1.89-4.91-5.6-8.18-10.1-10.48-9-4.6-9.63-5.59-5.43-17,.51-1.41,1.63-2.49,2.38-3.78,3-3.87,6.41-7.33,11.44-8.56L97,37.17c6.88-5.27,13.69-10.71,23-11,.45,2,2,2.25,3.48,1.77,8.68-2.87,15.53,1.87,23.17,4.57,5.78,2,10.43,4,13.12,9.76,1.08,2.32,4.3,2.26,6.21,3.85,1.1,2.8,4.07,5,2.35,8.69-.48,1,.25,1.88,1.4,2.2,5.18,1.44,8.2,6.13,12.77,8.5a8,8,0,0,1,2.35,2.5c1.36,1.88,2.27,6.38,4.57.56.13-.33,1.11-.7,1.14-.65a60.67,60.67,0,0,1,5,7.23c.74,1.36-.63,2.35-2,2.9-1.18.47-3,.55-3,2.19,0,2,2.06,2,3.38,2.31,5.64,1.48,7.42,6.63,8.6,10.94s3,5.94,7.08,5.59a21.36,21.36,0,0,1,12,2.72C222.74,102.35,226.7,103.53,222.88,106.1Z"/><path class="cls-4" d="M130.94,102c-5.36-.26-9.68,2.41-14,5-2.6,4-6.36,6.82-10.09,9.56a217.21,217.21,0,0,0-28.42,25.09,113.52,113.52,0,0,1-10.9,9.53c-3.14,1.57-5.14,4.5-7.82,6.59s-5,4.95-9,3.32c-.91-2.95,1-4.67,2.88-6.32,1.26-1.08,2.9-1.65,4.18-2.7,1.93-1.59,4.16-3.66,4-6-.15-2.09-3.28-1.45-5.07-1.95-4.52-1.26-6.41-4.19-6.69-8.73-.37-6-.5-6-6.28-6.48-7.84-.67-10.27-3.29-10.32-11.51,0-3-.52-4.16-3.7-2.38-4.26,2.39-6.29,1.92-8.34-2.47s-5.29-7-9.46-9C7.27,101.3,4.39,96.71,0,94.06A231.31,231.31,0,0,1,50.8,66.27c12.08-4.81,23-11.7,34-18.42-2.19,3.33-2.81,7.28-4.2,10.92-1,2.61-.63,4.28,2.22,5.51,5,2.17,10.36,4.58,13,9.46s5.77,7.61,11.36,8.81c3.7.79,6.06,5.16,8.14,8.29,2.2,3.3,4.44,5,8.18,5.42a26.52,26.52,0,0,1,5.74,1.55C131.34,98.53,132.22,99.9,130.94,102Z"/></g></g></svg>