<svg xmlns="http://www.w3.org/2000/svg" viewBox="0 0 279.35 217.65"><defs><style>.cls-1{fill:#073958;}.cls-2{fill:#283a60;}.cls-3{fill:#084b64;}.cls-4{fill:#3c7e88;}.cls-5{fill:#579094;}.cls-6{fill:#10566b;}.cls-7{fill:#216e7d;}.cls-8{fill:#176375;}.cls-9{fill:#01526d;}.cls-10{fill:#084c67;}</style></defs><g id="Calque_2" data-name="Calque 2"><g id="Calque_1-2" data-name="Calque 1"><path class="cls-1" d="M0,54.24V.25c2.62-1,3.93,1.13,5.51,2.43C11.12,7.29,16.06,12.77,22.76,16a29.48,29.48,0,0,0,10.79.81c10.67-1.59,19,2.9,26.39,10.12,5,4.86,9.42,10.29,15.83,13.51C78.9,42,82.26,43,85.33,44.64c6.44,3,11.55,7.68,16.42,12.7,1.26,2.5,3.35,4.35,5.15,6.43,3.58,4.74,7.67,9,11.68,13.41a3.16,3.16,0,0,1-.06,1.4c-1.27,2-3.18,1.85-4.78.91-3.53-2.06-6.08.05-8.5,1.86a51.8,51.8,0,0,1-21.81,9.33c-8.64-4.75-18.27-7.77-25.5-15-4-4-8.67-7.15-14.57-8a12.42,12.42,0,0,1-5.51-2.18c-9.56-6.88-20.56-8.71-31.92-9.31C3.75,56.13,1.6,56,0,54.24Z"/><path class="cls-2" d="M0,54.24c10.85-.21,21.53.91,31.6,5.21,3.15,1.34,5.72,4.67,8.88,5.23,9.9,1.76,16.56,8.07,24,14,5.62,4.46,13,6.91,19.49,10.56,2.93,1.88,5.82,3.78,5.69,7.87-1,3.1-3.67,4.15-6.44,4.81a18.81,18.81,0,0,0-6.9,2.67c-7.89,5.81-17.08,5.15-25.76,4.1-5.69-.7-11.49-.87-17.15-2a93.92,93.92,0,0,0-9.7-1.91c-1.48-.15-3.19-.31-4.23-1.28-5.83-5.42-13.6-8-19.5-13.27Z"/><path class="cls-3" d="M0,90.23c6.26,2,12.54,4.12,17,9.42,2.39,2.87,5.73,3.17,9,3.52,2.5.26,5,.39,7,2.1,2.27,2.91,4.8,5,8.85,5.47,3.69.42,5,3.51,4.47,7.06-.42,2.76-1.27,5.45-1.93,8.17-4.17,4.65-5.84,10-6.52,16.32s-4.85,11.52-6.8,17.5c-.88,2.71-2,5.24.85,7.67a3,3,0,0,1,.09,4.78c-1.46-2.77-2.72-3.27-4.65-.17-1.14,1.84-2.58,4.31-5.33,3.82s-3-3.26-3.78-5.4c-1-2.94-2.72-5.71-2.23-9.27-3.49,2.95-3.64,3-4.49-1-1.58-7.37-5.15-14-7.84-20.91A4.92,4.92,0,0,0,0,136.22Z"/><path class="cls-4" d="M167.87,199.32c-1.39-2.47-5.15-2-6.19-5.11-.32-1-1.38-.23-1.84.55s-.8,1.44-1.2,2.17c-4.69,8.52-6.15,8.56-11.74.3-3.72-5.51-5.89-11.81-9-17.63-.57-1.07-.21-3.84-3-2.38-2.73.66-4.06-1-4.84-3.18-1-2.77.36-4.9,2.47-6.49,8.33-6.27,17.8-9.76,28-7.51,7.23,1.6,12.74-.59,18.16-4.29,3.14-2.14,5.65-5.15,8.75-7.4,2.06-1.49,1.52-2.78,0-4.46-7.58-8.5-7.65-8.82,3.13-13.07,3.88-1.53,4.31-5.9,7.82-7.3a3.88,3.88,0,0,1,1.4-.06c2.63.62,3.54,4.07,6.6,4a7.75,7.75,0,0,1,3.58,2c3.84,3.82,8.36,6.88,12.19,10.71,1.39,1.39,3.12,2.48,3.41,4.66-.3,3.61-1.38,6.82-4.66,8.88-2.94,1.85-1.77,3.42.39,4.85,3.47,2.28,7,4.48,10.41,6.82,5.38,3.69,5,7.39-.89,10.2-7.23,3.42-14.87,2.83-22.5,2.2-1.32-.11-2.61-.44-3.94-.56-5.63-.5-10.16.18-14.21,5.44-4.26,5.53-10.87,9.08-15.14,14.94C173.45,199.91,170.68,200.36,167.87,199.32Z"/><path class="cls-5" d="M167.87,199.32c4.89-1,7.86-4.38,10.29-8.43a12.35,12.35,0,0,1,4.34-4c2.57-1.57,5.59-3.06,6.83-5.7,4.18-8.82,11.67-6,18.29-5.43,7.84.63,15.59,1.3,23-2,1.65-.72,3.66-1.39,3.74-3.55.07-1.84-1.91-2.06-3.12-2.83-4.06-2.6-8.22-5-12.2-7.77-4.16-2.84-4-5.62.73-7.37,4.13-1.5,2.46-6,5.09-8,1.92-1.2,3.57-.18,5,.82a230.75,230.75,0,0,0,23.29,14.23,6.61,6.61,0,0,1,3.39,3.49,9.84,9.84,0,0,1-2.61,8.7c-1.81,1.92-1.41,2.92.84,4a143.56,143.56,0,0,0,16.89,7.21c2.82.92,5.75,1.73,7.61,4.36-.26,5.19-4.77,9-10.87,8.85a65.26,65.26,0,0,1-11.81-1.51c-2.12-.45-3.85-.27-5.47,1.28a12.13,12.13,0,0,1-5.26,2.7c-4.51,1.24-8.14,3.41-9.86,8.16-1,2.85-4.14,4.26-5.48,7-1.93,4-5,4.89-9,3.48s-8.62.36-12-3.71c-1-1.22-3.57,1-5.55,1-3.3,1.79-5.79.39-7.76-2.2-1.5-2-2.64-4.19-4-6.22s-2.65-5-4.71-6c-3-1.39-3.12,2.86-5,4.23C174.41,210.06,171.6,209.3,167.87,199.32Z"/><path class="cls-6" d="M43,126.23a18.67,18.67,0,0,1,1.26-7.78c1.61-4,.1-6.32-4.11-6.12-5.28.24-7.34-2.11-7.16-7.06,5.9.13,11.72.72,17.6,1.42,8.29,1,17.41,2.15,25-4.09a12.13,12.13,0,0,1,6.4-2.47c2.79-.34,5.57-1,7.08-3.89,2.14-1.14,3.92,0,5.55,1.09a24.23,24.23,0,0,0,10.14,4c6.66.87,12.35,3.89,17.65,7.69,8.76,6.25,18.22,6.18,28,3.56,1.43-.38,2.76-1.15,4.3-1.2a12.91,12.91,0,0,1,6.9,11.57c-.26,3.69-3,6.47-8.13,7.62-6.07,1.36-11.93.93-17.08-3.13-1.44-1.13-2.95-2.2-4.3-3.41-3-2.67-5.91-2.93-9.58-1.14a48.51,48.51,0,0,1-13.56,4.79A21.31,21.31,0,0,0,97.28,134c-2.84,2.91-6.11,5.32-10.63,4-2.2-.65-2.33,1.14-3.07,2.38-2.31,3.93-4.16,4.51-8.53,2.85,1.61,6.14-.11,12.1-1.1,18.1-1.26.73-.7,3.07-2.55,3.11-1.21,0-1.26-1.22-1.44-2.15-3.17-1.94-4.68-5.43-7.07-8.08a61.36,61.36,0,0,0-11.31-9.58c-5.68-3.87-6-6.49-1.66-11.69.91-1.1,2.53-2.11,1.66-3.79-.71-1.37-2.38-.86-3.65-1C46.11,127.9,44.23,127.91,43,126.23Z"/><path class="cls-7" d="M200.06,124.15c-.58.29-1.59.48-1.69.88-1.57,6.66-7.39,7.84-12.56,9.69-3,1.07-2.51,2.08-.84,4.14,2.36,2.9,7.72,4.53,7.18,8-.42,2.6-5.53,4.2-8,6.79-3.41,3.63-7.55,5.9-11.94,7.91a14.48,14.48,0,0,1-10.09.71c-11.12-2.79-21,.61-29.53,7.73-4.07,3.41.18,5.24,2.33,7.23-.19.46-.41.91-.59,1.37-4.81,12.43-9.23,11.63-19.86,3.72-7.68-5.71-9.94-14.24-16.41-20-1.2-1.91-1.35-2.06-.31-3.14,3.43-3.6,6.75-7.15,12.15-8.14,6.36-1.18,12.44-3.56,18.61-5.52,1.11-.36,2.44-.62,3.15-1.43,5.39-6.13,13.45-6.91,20.21-10.28a18.7,18.7,0,0,1,8.26-1.54c2.11,0,4.27.24,6.38-.39-2.3-7.74-2.31-7.75,4.33-12.8,2.21-1.68,4.59-2.92.8-5.81-3.21-2.45-2.65-3.55,2.18-6.08,10,1.69,18.09,7,25.41,13.72A2.88,2.88,0,0,1,200.06,124.15Z"/><path class="cls-8" d="M173.92,108.43c-1,.76-2.07,1.51-3.19,2.32,8.18,5,8.18,5,.45,10.64-5.31,3.84-5.41,3.9-1.65,9.86,1.53,2.42.55,2.89-1.63,3a16.58,16.58,0,0,1-3,0c-9.66-1.47-17.66,3.78-26.07,6.86-4.08,1.49-6.67,6.2-11.58,7.07-6.36,1.12-12.23,4.05-18.64,5.23-4.91.91-7.94,4.9-10.53,9-2-.15-1.09,7.6-5.08,1.83-2.05,2.73-5.25,2.55-8.06,3.53-2,.71-2.23,5-5,4.89-3-.11-1.4-3.89-3-5.62-1.41-1.49-2-3.75-3-5.66a11.83,11.83,0,0,1-.64-9.1c1-3.33,2.18-7.2-1.47-10.08-.8-.63-1.65-1.25-1.24-2.43a2.08,2.08,0,0,1,2-1.31c1.41-.12,2,.68,2.44,1.94,1.6,4.63,4.13,2.35,6.48.75a1.78,1.78,0,0,0,.87-2.15c-2.78-5.53,2.18-4.16,3.6-3.27,4.38,2.73,7,0,9.46-2.5,4.72-4.89,10.34-7.15,17-8.16,3.74-.56,7.29-2.81,10.76-4.62,3-1.58,5.58-1.63,8.22.67a75.88,75.88,0,0,0,6.67,5.19c6.22,4.31,12.52,4.15,19.15.63,2.67-1.42,3.37-3.4,2.58-5.64-1.12-3.2-1.79-6.79-4.81-9-3.39-1.06-5.09-3.3-4.91-6.9,1.17-3.36,4.33-2.18,6.64-2.95C162.82,103.31,169.28,103.3,173.92,108.43Z"/><path class="cls-9" d="M43,126.23c2.64,0,5.3-.12,7.94,0,4,.23,4.85,2.16,2.66,5.54a14.78,14.78,0,0,1-2,2.24c-4.6,4.66-4.75,6.19,1,8.85,6.57,3,9.74,9.52,15.36,13.44,1.36.95,1.33,3.9,1.94,5.94-2.45.93-2.58,5.72-6.94,3.91-.87-.36-1.79,2.5-2.43,4a62.84,62.84,0,0,1-8,13.61c-5.21,6.74-11.35,6.47-15.7-.88-2-3.35-4.48-6.56-4.9-10.66-.08-1.45.37-3.33-1.45-3.86-4.5-1.31-3.24-4.16-2.09-7,2.4-6,4.9-11.9,7.27-17.88.6-1.52,1.55-3.42,1.12-4.75C34.79,132.41,39,129.43,43,126.23Z"/><path class="cls-10" d="M118,78.44q14.1,11.48,29,21.92a8.58,8.58,0,0,1,4,5.86l4,6c-5.95,4.29-12.66,4-19.56,3.77-7.18-.19-12.34-4.17-17.87-7.7-3.35-2.14-6.68-4.09-10.89-4.44C100,103.29,94.46,99.79,89,96.24c-2-2.1-4.07-4.16-5-7,4.48-.29,7.7-3.88,11.8-4.75,6-1.28,9.63-5.82,14.24-9,1.75-1.19,2.07,0,2.56.85A4.42,4.42,0,0,0,118,78.44Z"/></g></g></svg>