<svg xmlns="http://www.w3.org/2000/svg" viewBox="0 0 206.19 118.32"><defs><style>.cls-1{fill:#f9aa93;}.cls-2{fill:#e9a693;}</style></defs><g id="Calque_2" data-name="Calque 2"><g id="Calque_1-2" data-name="Calque 1"><path class="cls-1" d="M125.24,6.31a33.92,33.92,0,0,0,13.92,10.2c11.83,4.78,19.94,13.2,27.11,23.31a228.25,228.25,0,0,0,38.32,42.51,15.36,15.36,0,0,1,1.6,1.89c-2.3,6.64-8.7,8.52-13.83,11.85-.65.42-1.76.17-2.36.69-11.52,9.95-27.1,8.94-40.13,14.83-2.56,1.15-5.54.82-8.36.49-1.92-.52-3.66-1-5.57.56a5.53,5.53,0,0,1-6.56.31c-2.44-1.49-1.15-3.37-.27-5.19a3.31,3.31,0,0,0-.71-3.71c-2.7-3.12-4.79-6.85-8.72-8.73-3.26-1.57-4.91-4.15-5.5-7.75-1.15-7-1.25-7-8.34-8.33a9.21,9.21,0,0,1-7.27-5.34A47.45,47.45,0,0,0,90,61.76a88.28,88.28,0,0,1-14.49-20,9.91,9.91,0,0,0-5.63-4.62c-2.19-.85-4.58-1.72-4.59-4.58a6.19,6.19,0,0,1,4.54-6A10.62,10.62,0,0,0,77.06,20c1.08-2.61,4.49-3.31,6.13-5.66L102.11,2a9.18,9.18,0,0,1,5-1.84C114.18-.82,119.62,3,125.24,6.31Z"/><path class="cls-2" d="M109.15,107.36l-6-4.17c-1.5-2-2.75-4.39-5.93-3l-9.08-2.8C79,94.67,71,89.69,63.52,83.91a61,61,0,0,0-18.35-9.5c-7.51-1.15-14.65,1.64-22,2.22-3.3.26-6.41.64-9.73,0a28.11,28.11,0,0,0-13.2.53c-1.16-2,2.35-4,0-5.89l47.9-39C51.4,29.52,54.65,26.66,58,24c3.95-3.14,8.16-5.78,13.51-5.67,4.36.09,7.69-2.89,11.65-4a7.25,7.25,0,0,1-2,3.89c-3.67,4-5.18,10.27-12.11,10.87a3.5,3.5,0,0,0-2.53,3.86c.42,2,2.38,2,4,2.4,3.89.94,5.76,3.73,7.67,7.12,2.63,4.71,5.26,9.48,9.12,13.5,5,5.18,10.17,10.35,12.92,17.2,1.14,2.87,2.75,4,5.89,4.21,7.87.5,9.44,2.1,10,10,.21,3.26,1.31,5.1,4.45,6.28,5.28,2,7.59,7.19,10.81,11.29,2,2.57-.47,4.46-2.56,6.37,2.48,1.28,4.95,1.73,6.58-.18,2-2.28,3.82-1.2,5.84-.84a2.89,2.89,0,0,1-1.8,3.62c-4.22,2.06-8.27,4.77-13.31,4.41-3.48.16-5.19-2.83-7.46-4.56A110.5,110.5,0,0,0,109.15,107.36Z"/></g></g></svg>