<svg xmlns="http://www.w3.org/2000/svg" viewBox="0 0 735.81 140.09"><defs><style>.cls-1{fill:#db1d5d;}.cls-2{fill:#dc2f67;}.cls-3{fill:#dc2763;}.cls-4{fill:#dc2a65;}</style></defs><g id="Calque_2" data-name="Calque 2"><g id="Calque_1-2" data-name="Calque 1"><path class="cls-1" d="M0,123.3V2.32C2.57-.76,6.07,0,9.3.32A276.32,276.32,0,0,0,37.14,1.88c16.76,0,33,4,49.51,5.52,26.35,2.48,50.44,13,75.44,20.33,4.78,1.39,9.6,2.71,14.29,4.46,4.31,1.61,8.57,0,12.78-.72,10.32-1.8,20.52-4.21,30.93-5.51,16.56-2.07,32.41.58,47.82,6.71,9,3.57,18.17,6.5,27.38,9.37a11.25,11.25,0,0,0,3.4.77c12.3-.22,24.56,1.5,36.87.7,6.18,1,10,5.81,14.4,9.39,5.9,4.77,11.81,8.7,19.62,10.08C385.3,65.74,401,68.84,416.63,72c5.86,1.2,11.65,2.76,17.49,4.11a6.83,6.83,0,0,1,5,3.68,276.53,276.53,0,0,1-.81,38.72,12.23,12.23,0,0,1-1.22,3.75c-5.57,3.37-11.9,3.66-18.07,3.63-2.38,0-4.89-.36-7.36-.39-10.36-.13-20.72.39-31.07-1-4.91-.67-10,.23-14.95.15-10-.15-20.07.56-30.13,0-7-.41-14.15.45-21.23.26-9.42-.26-18.84,1.06-28.25-.07a38.19,38.19,0,0,0-9.87.2c-8,1.15-15.9-1.52-23.83.36-4.43,1-8.84-1.38-13.35-.93a12.64,12.64,0,0,0-1.5,0c-13.48,3.15-27.2-1.92-40.76,1.26-4.27,1-8.76-1.26-13.3-1.22-9.59.09-19.18.22-28.73,1-4.89.37-9.62-.57-14.39-1.16-3.9-.48-5.82-3.49-7.3-6.78-.49-2.57,0-5.28-1-8.2-2.1,1.16-1.62,2.93-1.68,4.38-.16,3.83.11,7.67-.26,11.49-.36,3.64-2.58,5.19-6.09,5.19s-5.72-1.6-6.08-5.23c-.37-3.82-.13-7.65-.22-11.48,0-1.77.23-3.6-1.06-5.87-1.74,8.6-1.12,16.66-1.44,24.66-.22,5.36-2.4,7.25-7.46,7-3.58-.19-5.54-2-5.83-5.53-.34-4.16,0-8.33-.27-12.48-.09-1.57.83-3.93-2.1-4.1-2.83,5.86-7.25,7.81-13.76,7-4.17-.53-8.55.83-12.83,1.12-13.71.92-27.42.29-41.11-.74a7.74,7.74,0,0,0-3,.17c-8.29,2.76-16.7-1-25,.48C2.21,125.59,1.05,124.39,0,123.3Z"/><path class="cls-2" d="M581.84,93.79c15.36-.25,30.51,1.8,45.68,3.91,26.36,3.67,52.75,7.11,79.12,10.66q14.6,2,29.17,3.94v24c-1.2,1.29-2.64,2.15-4.43,1.75-6.88-1.56-13.79-.1-20.67-.31-9.62-.29-19.25-.14-28.87-.1-13.22.05-26.44-.17-39.67.51-14.58.74-29.17-.23-43.76-.75-2.8-.1-5.47-.14-8.22,1.21-5.37,2.65-6.43,2-8-3.88a7,7,0,0,0-1.33-2.11A4.93,4.93,0,0,1,580,131c-.92-10.86-.44-21.72-.33-32.59C579.7,96.64,579.88,94.77,581.84,93.79Z"/><path class="cls-3" d="M478.05,88.35c31.85,2.4,63.69,5.21,95.68,5l-.09,36.94a1.12,1.12,0,0,1-1.34-.15c-7.16,3.9-14.73,2.46-22.24,1.67a28.7,28.7,0,0,0-5.47-.22c-10.94.93-22-.72-32.91,1.38-3.32.64-6.92-.32-10.39-.58a101.85,101.85,0,0,0-20.21,0c-3.42.43-4.17-1.57-4.24-4.54-.2-7.47.48-14.91.45-22.37Q477.67,96.93,478.05,88.35Z"/><path class="cls-4" d="M474.5,88.35c-.43,13-1,26-2.61,38.9-3.11,5.13-7.58,7.06-13.48,5.93a42.14,42.14,0,0,0-13.86-.09c-4.46.62-5.85-.72-5.49-5.12a170.77,170.77,0,0,0,.2-18.38,150.54,150.54,0,0,0,.54-21.86c-.08-3.2.69-5.42,3.86-6.44,1.44-2,3.43-1.63,5.42-1.26,7,1.31,13.91,3.07,20.8,4.88A7.23,7.23,0,0,1,474.5,88.35Z"/></g></g></svg>