<svg xmlns="http://www.w3.org/2000/svg" viewBox="0 0 268.71 371.51"><defs><style>.cls-1{fill:#015775;}.cls-2{fill:#015470;}.cls-3{fill:#025c7d;}.cls-4{fill:#025471;}.cls-5{fill:#067697;}.cls-6{fill:#01698d;}.cls-7{fill:#005a7e;}.cls-8{fill:#01506a;}.cls-9{fill:#015371;}.cls-10{fill:#02516c;}.cls-11{fill:#01516c;}.cls-12{fill:#01536f;}.cls-13{fill:#015574;}.cls-14{fill:#045d7b;}</style></defs><g id="Calque_2" data-name="Calque 2"><g id="Calque_1-2" data-name="Calque 1"><path class="cls-1" d="M98.94,125.3c8.71.34,15.91,7,25,6a5.85,5.85,0,0,1,6.13-1c1.26.83,2.38,3.09,2.94,3,2.69-.31.52-2.16.4-3.13-.49-4,.22-7.91.26-11.86a7.66,7.66,0,0,1,3.06-5.57c10.41,10.25,22.24,18.92,32.71,29.14a8,8,0,0,1-1.55,7.31c-5.85,6.8-6.43,12.17.18,20,8.62,10.25,4.93,22-6.77,29.42-6.15,1.94-12.28,2.68-18.31-.41-6.85-3.67-13.58-4.66-20.08.83-4.72,1.42-8.63-.57-12.46-2.94-12.18-10.36-12.67-16-1.49-17.23,5.59-.6,11.4,2.53,16.53-.79,2.45-.29.36-3.21.85-1.17.15.64-.22,1-1.11,1-10.36,0-18.13-4.88-22.21-14-2.72-6.1-5.32-12.47-6.55-19.19C95.36,138,94.34,131.27,98.94,125.3Z"/><path class="cls-2" d="M17,232.29q.09,1.43.15,2.85c5.6,2.43,11.06,5.91,17.44,2.28a39.06,39.06,0,0,0,6.43-6.5c1.93-2.33,5.36,6.25,4.48-1-1.15-9.45-3.29-18.86,9.44-22.87,3.66-1.15,3.3-6.17,4.33-9.59,1.66-5.57,3.2-11.16,9.61-13.22,7.9,2.05,4-7.33,8.39-8.74,8.73,1.32,8.66,9,10.81,15,.52,1.45.48,3.08.86,4.58,7.26,29,7.27,29-22.59,29.14a8.31,8.31,0,0,0-2.48-.37c.29,1.17,1.51,1,2.3,1.54,6.84,4.74,14.23,9.13,16.07,18,1.1,5.36,2.85,11.49-4.31,14.67-5.37-2.31-6.26-9-11.36-11.58A39.82,39.82,0,0,0,59,241.1c-2.88-.68-1.42,1.47-1.54,2.62,1.69,10-4.26,11.71-12,11.46-1.55,1.76-.22,3.19.55,4.69,2.78,7.29,2.23,12.69-7.47,10.85-4.13-.78-6.78.95-9.79,2.79-10.19-1.18-16.48-8.17-21.29-15.94-3.42-5.52-6.22-13.26,6-12.36a32.42,32.42,0,0,1,4.73,4.12c-.92-1.67-2.47-2.8-3.72-4.24C8.4,234.16,8.72,232.52,17,232.29Z"/><path class="cls-3" d="M177.51,30.82l9.33.06c5,13.27,9.35,26.67,19.49,37.57,2.16,2.32,13.6,9.29.83,14.68-2.07-.26-4.47-.66-5.54-2.31-2.94-4.59-3.94-1.67-5.24,1.05a5.1,5.1,0,0,1-4.06-.5c-5.14-8.08-5.45-20.75-19.46-20.34-.69-2.5-1.74-4.94-1.35-7.64,3.57,26.49,3.57,26.49-2.26,40-8.65,3-12.68-2-15.63-8.87,0-1.32,1.14-3.58.51-3.83-1.56-.63-1.91,2.37-3.85,2.17-3.17.11-5.24-1.41-6.51-4.2-3.39-19.28,9.64-32,18.6-46.29a22.65,22.65,0,0,0,5.77-13.87c.17-3.1,1.19-6.72,4.93-6.4s4.06,4,4.39,7.15C177.88,23.07,173.88,27,177.51,30.82Z"/><path class="cls-4" d="M98.94,125.3c3.58,6.3-1.53,12.53-.14,18.81-1.9,5.42-5.66,9.56-9.42,13.71-3.83,1.66-7.08.47-10.07-2-6-4.56-.22-10.41-1.74-15.48-3.13-9-7.55-17.71-3.81-27.57h-.05C80,102,79,88.42,87.41,78.54c3.22-.44,6.16,0,8.37,2.66,11.09,2,7.19,12.4,6.87,17.26C102.06,107.27,113,118.47,98.94,125.3Z"/><path class="cls-5" d="M161.76,34.05c1,5.12-7.92,9.42-1.13,15.23,1.46,1.24.83,5.3-1.06,5.24C140.21,53.92,153.52,72,146,78c-3.72,1.25-4.3-1.21-4.67-3.93,3.63,9.11-10.11,6.75-8.81,12.12,2,8.09,1.12,16.53,4,24.36,0,.72,0,1.45,0,2.17q0,3.12,0,6.23c-4.35,3.14,2.44,11.77-6.29,12.73l-6.33-.34c12.18-12,2.88-28.53-1.46-35-10.62-15.93-.15-25.46,7-31.84,11.76-10.44,20.89-23,32.25-33.58.81.7,1.1,1.41.84,2.13S162,34.05,161.76,34.05Z"/><path class="cls-6" d="M161.76,34.05c0-1.07,0-2.14-.07-3.22,1.76-9.23,1.83-18.85,6.66-27.38,1.1-1.93,2.09-3.64,4.47-3.43,2.89.25,1.63,3.3,2.53,4.36,7.1,8.43,8.53,17,2.16,26.44-5.78-3.91-1.31-10.77-4.82-16.22C169.51,21.74,172.53,32.07,161.76,34.05Z"/><path class="cls-7" d="M95.78,81.2H86.21c-3.57-4.2-3.28-8.39.05-12.57,2.86-4-1.48-10.55,5.45-13.57C95.56,63.37,102.51,71,95.78,81.2Z"/><path class="cls-8" d="M89.27,156.81c-1-7.37,3.77-10.4,9.53-12.7,7.15.85,4.64,8.51,7.31,12.42,9.57,14,8.63,15.18,26.23,17.32,2.33.28,5,1.53,6,5.87l-35,3.67c.66,5.94,9.1,4.9,8,11,8.49,5,10,15.36,16.91,21.81,7.79,7.31,13.73,9.83,21.45-.46,5-6.64,15-10.35,8.83-21.33,8.81-3.2,14.14-19.88,6.82-23.28-20.07-9.33-6.49-16.56.12-24.75,1.21-1.5,1.67-3.61,2.47-5.45a8,8,0,0,1-1.12-9.46,9.55,9.55,0,0,1,6.45-3c8.21.1,10.47,5.6,11.05,12.45.67,7.82.3,15.68.36,23.52,0,6,1.52,10.69,7.1,14.57,12.31,8.57,12.06,9.66.68,18.55-8.46,6.6-15.21,34.62-10.64,44.18,3.4,7.15,14.48,7.28,22.4-2.26,7.2-8.67,15.4-11.75,25.59-12.18a2.72,2.72,0,0,0,.67-4.2c-1.3-6.93-18.35-5.17-9.71-17.54,7.11-8.41,18.56-8,27.15-13.43,4.87-1.27,7.5-4.93,9.65-9.1.53-.42,1.07-.82,1.61-1.22,2.56,12.91,9.45,24.78,9.39,38.3,0,4.95,1.42,10.94-6.24,12-2.09-1.6-1.91-4.29-3-6.36a8.54,8.54,0,0,0,3,6.36c7.63,9.87,6.48,22.58,1.87,30.87-4.17,7.51,2.5,6.8,3.07,10.8-3.75,3.69-12.34-4.14-13.76,4.86,0,.28,3.52,1.12,5.51,2.6-19.13-3.1-33.31,20.65-53.06,7.57-5.32,8,7.6,10.46,3,15.85-5,5.83-12.83,2.79-19.35,2.78-9.93,0-19.57.12-27.92,6.46a15.91,15.91,0,0,1-8.21-3.76c-3.18-2.58-6.69-5.41-5.25-10.09,1.33-4.31,5.49-3.79,9-3.82a6.05,6.05,0,0,0,5.21-2.47c1.72-3.62,1.57-7.32.61-11.07-5-5.38-7.78-10.6-2.29-17.77,3.26-4.25,3.82-10.36-.37-14.48-4-3.88-9-1.14-13.18.78-7.9,3.62-16.12,3.55-24.53,3.57-6.6,0-14.6-.43-12.9,10.41.25,3.84,1.79,6.54,6,6.83,18.59,5.08,19.68,10,6.43,29-.18,2.61-.37,5.22.78,7.7,4.78,7.44,21,13.19,3.64,24-5.28,4.23-11.08,6.59-18,4.82a32.07,32.07,0,0,0-6-.19,22.78,22.78,0,0,1-7.76.18c.26.24-1.27-.14,0,.25,2,.63-.63,0,1.48.54,4.08,2.12,5.15,6,6.29,9.92a19.47,19.47,0,0,0,1.54,3.49c4.9,4.5,11.88-2.1,16.61,3.12-8,19.19-15,21-37.75,9.41,1.4-3,6.85-4.7,3.14-9.43-1.38-2.49-3.7-3.08-6.29-3.15-.65-2.28-.12-4,2.46-4.33,2.32-.27,5-1.42,6,.81-3.4-2.95-7.67-.52-11.81.08-4.91.45-9.51,0-13-4.13-4.33-7.77-2.82-16.84-6.1-25.32-3.65-9.47,10.29-10.5,14.76-16.68,0,.13-.74-.88-.74-.88a10.18,10.18,0,0,1,.31,1.31C61.41,308.14,51.2,312.65,56,328.68c1.72,5.78,3.12,17.85-10.37,18-5.35-5.59-12-9.59-17.89-14.55-2.33-2.51-2.26-5.15-.4-7.87,6.57-6.47,3.61-16.13,7.75-23.4,1.22-3.1,2.83-6.08,2.64-9.57-1.29-6.71-5.12-12.25-8.19-18.14v0c.42-6.85-1.17-17.23,9.74-5.38a3,3,0,0,0,5-.78c1.4-2.65.11-4.82-2.13-6.48-2.29-3.11-2.67-6.25-.1-9.42,4.49-2.81,16.57,4.41,12.62-9.55-1.07-3.21.36-3.84,3.15-3.07,4.54,0,9.1-.06,9.45,6.26,4.06,3.53,5.33,9.15,9.46,12.63,5.54-8.17,3.53-14.91-3.49-21.16-3.41-3-6.1-6.86-9.11-10.33-.79-.7-1.05-1.39-.77-2.08s.54-1,.81-1c5.47-2.43,9.84-6,17.11-1.69s12.08-4.84,9.63-8.61c-7.45-11.5-3.47-27-14.22-36.87l-2-.83c-3.53-4.46-4.86-8.64,2.86-9.08,4.42-.25,8.07-.42,9.22-5.52A14.93,14.93,0,0,1,89.27,156.81Z"/><path class="cls-9" d="M164.86,295.1c-.14,13.36-9.37,1.73-13.42,5-2,8.47,10.3,6.73,10.27,13.85q11.34,16.95-9.42,18.88c-6.55-5.59-6.73,2.46-9.71,4.55-14.08,7.15-25.49,20.94-43.77,17.47V351.7c4.37-5.73-2.35-13.29,3.12-18.84h6.33C117.39,341,121,340.23,124,329.7c18.06-13-3.52-12.83-6.29-18.92,2-3.93,5.78-6.32,9.21-9.64-3.43.95-6.3,2.17-9.22.26,1.27-3.33,2.74-6.61,3.77-10,1.17-3.85,12,2.22,7.34-7.25-2.92-5.94-7.25-9.49-14.36-8,.3-4.7,2.21-10.47-6.21-9.43-4.34-9.24.77-16.92,11.48-16.3,9.88.58,19.16,1.51,28.49-4.34,4.48-2.81,13.58-6.13,17.08,0,3.13,5.5,4.23,18.3,1.49,19.94-12.9,7.69,1.72,11.22,1.23,16.49C163.82,285.93,165.09,290.7,164.86,295.1Z"/><path class="cls-10" d="M29.61,232.17q0-3.12-.05-6.23c0-5,.21-9.72-4.15-13.83-2.84-2.68-7.32-6.53-2.12-11.37,4.95,4.57,10.1,8.22,17.43,4.38-1.76-7-10.43-2.13-12.22-9.71,5.21.72,11.54,3.33,13.66-4.12-3.87-6.35-10.63-11.06-11-19.4-.44-1.95-.09-4.1-1.55-5.77-.07-1-.09-2.05-.06-3.08-1.87-2.67-2.85-7-.49-8.12,9.2-4.43,6.28-10.61,3.6-17.09L28.05,134c14.25-11.74-1.83-24.8,1.63-37C32,90.29,41.49,87.1,39,78c6.15-2.23.41-16.43,12.63-12.56h0c-6.23,5.85,5.22,7.51,3,12.42C48,83.28,56.42,87.53,56.16,93c-.39,8.06,6.77,16.57-6.09,22.69,9,3.61,11.7-4.32,17.08-2.9q-3.08,4.63-6.14,9.27c.8,6.35,1.81,12.66,3.13,18.92,0,1,0,2.05,0,3.08a86.61,86.61,0,0,0-2.84,16.54c1.63.71,3.14,1.52,3.88,3.25,1.39,5.37-6.69,6.82-4.93,12.27,3.52,2,7.4,3.32,9.7,6.85.21.66.4,1.32.6,2-6.62,4.08-5.75,11.81-8.74,17.65-2.12,4.13,3.56,16.64-10.19,9.71-2.61-1.32-3,4.5-3.09,7.47-.12,7.13,0,14.25-.58,23.59-5-19.77-8.15-1.5-12-1.76,0-1,0-2.06,0-3.09C33.13,237,36.27,229.79,29.61,232.17Z"/><path class="cls-1" d="M168,131.52c4.21-10.91-4.72-17.73-9.59-24.33-9.08-12.33-17.41-9.62-21.91,5.5-7.19-3.35-6.38-9.86-6.26-16,.12-5.6.75-11.37-6.6-13.28,2-6,28.49,1.55,7.5-15.55C141.39,64.59,141.62,74.13,146,78c1.39,2.55,3.75,3.16,6.41,3.18a1.92,1.92,0,0,1,3,.21c1.18,7.22,8.07,8.65,12.63,12.44,3.91,2.31,2.47,7.5,6.29,11.27-.75-16.17,13.93-16.73,22-23.87.22-2,.31-5.62.67-5.65,4.22-.3,6.27,3.2,8.86,5.76q0,6.24-.07,12.48c1.35,7.65-8.57,5.92-9.82,12.58,8.49-1.42,12.67-12.73,22.38-9.43,7.58,7,7.47,15.6-.75,17.49s-12.23,6.92-15,13.94c-1.19,3.1-3.34,4.54-6.7,3.9-7.07-3.56-14.33-1.82-21.57-.74Z"/><path class="cls-11" d="M196.31,81.18c2.92,5.8-3.48,4.42-4.88,6.61-4,6.32-18.53,6.12-12.08,19.35,1,2-2.57,5.89-5.72,6.29-5.24.67-5.25-3.86-5.52-7.31-.31-4.09-.09-8.23-.1-12.34a141.4,141.4,0,0,0,1-47.37l5.27.19V62.28c1.45,11.12,16,9.17,18.85,18.9Z"/><path class="cls-1" d="M193.17,81.18c-2-1.52-4.58-4.76-5.82-4.3-17.26,6.39-12.68-6.24-13-14.6l10.53-9.1C186.37,63.54,194.9,70.53,193.17,81.18Z"/><path class="cls-2" d="M23.18,292.1,17,282.25c9.38,4.07,14.08,1.75,12.5-9.15,5.93,5.16,13,9.57,12.59,18.94-2.8,2.47-5,5.15-3.14,9.22-6.59,7.15,1.81,19.86-9.39,25.3-3.33-2.06-9.69,1-10.15-5.86.09-1.32,4.25-2.51.29-4.14-5.47-2.25-9.21-6.59-12.89-10.85-3.17-3.65-9.52-7.23-5.6-12.79s9.19-.86,13.64,1.26a40.07,40.07,0,0,1,4,2.38C27,301.59,18.28,290.24,23.18,292.1Z"/><path class="cls-12" d="M174.29,131.51c17.71-7.51,17.71-7.51,22-.09,3.76,5.07,3.76,5.07,16.13-1.08a10.54,10.54,0,0,1,6-1.92c9.45-1.69,16.48-3.33,8.7,10.84-5.92,10.8-.9,24.19-2.38,36.35,5.6,6.66,3.29,12.87-1,19.06-1.81,2.62-6.14,4.27-3.63,8.7a11.66,11.66,0,0,1,1.42,3.67c.37,10.08,11.82,9.15,15.68,15.76-5.14,2.1-4.87,4.18,0,6.23-3.57,4.43-8.6,3.18-13.14,3.06-6.22-.16-9.69,1.61-13.44,7.61-10.11,16.17-27.55,17.38-33.84,3.61-5.65-12.38,3.91-43.07,15.6-50.19,2.11-1.29,5.27-1.8,5.25-5s-3.25-4.65-5.38-4.77c-12.09-.68-12.24-8.61-11.75-17.63.42-7.82.07-15.69.08-23.54C180.58,137.36,180.9,132.4,174.29,131.51Z"/><path class="cls-13" d="M32.67,137.83c3.61,2.32,9.18,2.61,9.07,8.78-7.61-1.27,2.51,17-10.64,9.64-.51,2.27-1,4.53-1.54,6.79C19.83,147.93,20.48,142.72,32.67,137.83Z"/><path class="cls-14" d="M32.76,169.25,29.4,182.09c-10.9-5.47-7.26-10.75.22-16Z"/></g></g></svg>