<svg xmlns="http://www.w3.org/2000/svg" viewBox="0 0 291.15 137"><defs><style>.cls-1{fill:#fec174;}</style></defs><g id="Calque_2" data-name="Calque 2"><g id="Calque_1-2" data-name="Calque 1"><path class="cls-1" d="M0,104.34c3.07-2.36,6.7-3.45,10.27-4.74,1.84-.66,3.78-1.4,4.84-3.29,7.86,1.37,14.36-3.38,21.56-5a112.63,112.63,0,0,0,11-2.57c5.16-1.7,10.44-2.82,13.85-7.58.1-.13.24-.3.37-.31,7.74-.66,12.17-7,18.18-10.6a6.75,6.75,0,0,0,4.38-.56C97,62,110.92,57.76,124.64,53.07a161.51,161.51,0,0,0,52.1-29.22,39.79,39.79,0,0,1,15.16-8c3.95-1.11,7.57-4.2,10.75-7,12.42-11.12,22-11.38,35.42-2.25,9.49,6.44,20,10.22,30.68,13.63,4.08,1.3,7.55,4.42,12.15,4.14,5.45-1.41,7.19-.61,9,4.6a28.85,28.85,0,0,1,.41,15.77c-.61,2.72-2.13,5.31-4.89,5.86-7,1.37-10.37,7.35-15.23,11.41a12.82,12.82,0,0,0-2.27,2.64c-4,5.8-9.15,9.43-16.44,9.59a4.65,4.65,0,0,0-4.49,2.63c-1.59,3.42-4.59,5.07-7.87,6.51-3.49,1.54-6.9,3.36-10.42,4.75-5.85,2.31-11.92,3.92-18.45,1.9-4.39-1.35-8.92-1.1-12.75,2.14a4,4,0,0,1-2.18,1.16c-7.86,0-14.21,4.38-21.21,6.92-3.61,1.3-5.17,2.79-5,6.64.47,10.23-2,12.87-12.31,13.55-.67,0-1.5-.17-2,.18-6.2,4.57-14.28,4.67-20.67,8.66a15.73,15.73,0,0,1-9.55,2.11c-5.92-.29-11.47.27-16.62,3.83a9.31,9.31,0,0,1-11.66-.35c-2.6-2-5.75-1.47-8.62-2-5.17-1-10.32-2.67-15.73-1.71-13.5-1.57-26.45-5.57-39.55-8.93a5.67,5.67,0,0,1-3.41-2.7C18.15,116.63,8.32,111.93,0,104.34Z"/></g></g></svg>