<svg xmlns="http://www.w3.org/2000/svg" viewBox="0 0 267.89 85.17"><defs><style>.cls-1{fill:#fecc92;}</style></defs><g id="Calque_2" data-name="Calque 2"><g id="Calque_1-2" data-name="Calque 1"><path class="cls-1" d="M0,83.78v-55c3.06-1.79,5,.4,7,2.07,5.54,4.66,6.07,4.67,11.61-.14,9.91-8.58,20.62-15.78,33.45-19.3A35.6,35.6,0,0,1,64.39,9.79c9.63.81,19.25,0,28.87,0,3,0,6.07.09,8.83,1.36,3.3,1.51,5.8.25,8.16-1.83C117.19,3.15,125.59.8,134.53.51c12.69-.43,24.58,3,36.17,8a43.38,43.38,0,0,0,14.47,3.27c13.23.85,26.05-1.72,39-4.16a175.58,175.58,0,0,1,21.7-2.75c4.77-.29,9.19-1,13.33-3.44,1.61-1,3.4-2.48,5.38-.47a4.44,4.44,0,0,1,.79,2.83c-.85,12-.56,23.83,2.57,35.5-.34,10.15-.34,10.26-11.12,10.25-8.11,0-15.38,2.19-21.66,7.42a19.55,19.55,0,0,1-12.71,4.94c-4.37,0-7.39,3-10,6-3.93,4.59-8.64,6.08-14.54,6-9.93-.15-19.81,1.11-29.81.68a48.07,48.07,0,0,0-15.19,1.54,16.51,16.51,0,0,1-11.19-1.05c-2.57-1.32-4.28-3.65-6.41-5.5-5.65-4.91-11.91-7.84-19.65-6.21a23,23,0,0,1-6.47.38c-4.54-.33-8.5.67-11.81,4.06-2,2-4.63,2.49-7.42,2.07-5.63-.85-10.26.9-14.58,4.7a27.56,27.56,0,0,1-19.64,7.25c-6.24-.2-12.61,1.45-18.4-2.52-1.45-1-3.56-.52-5.38-.15a20,20,0,0,1-8.93.26C17.33,78,12.59,79.73,8.08,83,5.6,84.85,3,86.4,0,83.78Z"/></g></g></svg>