<svg xmlns="http://www.w3.org/2000/svg" viewBox="0 0 212.57 82.82"><defs><style>.cls-1{fill:#cc787a;}.cls-2{fill:#e77c7a;}.cls-3{fill:#fa8b79;}</style></defs><g id="Calque_2" data-name="Calque 2"><g id="Calque_1-2" data-name="Calque 1"><path class="cls-1" d="M166.54,5.24c15.8,3.16,30.7,9.28,46,14v38c-7.13,2.38-14.08.81-20.95-1.12A38.64,38.64,0,0,1,179.16,50c-7.62-5.59-16.07-7.47-25.36-6.84-3.76.26-7.64.74-11.31-.87a14.39,14.39,0,0,1-5.6-9.57c-.53-3.09-2.16-4.88-4.71-6.47-8.91-5.56-8.25-16.5,1.2-21.69,9.05-1.77,18.2-1.46,27.34-1.37C162.89,3.17,165.11,3.12,166.54,5.24Z"/><path class="cls-2" d="M74.6,1.17c11.32-.3,22.13,3.28,33.27,4.45,8.27.87,16.5.21,24.73.64-4.86,3-4.37,8.2-4.67,12.79-.19,2.94,2.61,4.38,5.14,5.37,3.54,1.39,5.63,3.53,5.68,7.72,0,3.35,2.56,6,3.81,9l-5,1a213.28,213.28,0,0,1-26.94,16.51c-4.37,1.84-8.47,4.53-13.53,4.08-3,.47-6,.89-8.82-.5-1.49-.83-1.71-2.34-1.94-3.82-.34-2.22-1-4.07-3.3-5.16-2.54-1.21-3.25-3.71-3.29-6.29a10,10,0,0,0-4.48-8.43c-4.51-3.21-7-7.39-6.64-13.1.14-2.12-.42-4-2.57-4.94a2.13,2.13,0,0,1-.79-.6A28.74,28.74,0,0,1,59.8,5.19C65.27.07,70.14-1.24,74.6,1.17Z"/><path class="cls-3" d="M10.62,49.2c15.82-15.3,31.27-31.05,50-43-.67,4,1.3,3.31,3.59,2,.76-.43,1.56-.83,2,.23.33.72-.31,1.1-.81,1.58-2.63,2.48-2,7.86,1.5,8.88S71,22,70.57,24.82c-.88,5.91,1.76,9.78,6.57,12.76a9.12,9.12,0,0,1,4.48,8.87c-.19,3,.24,4.94,4.07,6.06,4.09,1.21,2.72,5.4,1.89,8.66a2.87,2.87,0,0,1-2.39,1.59c-6.22.26-10.75,4-15.35,7.48A59.88,59.88,0,0,1,51,80c-4.27.93-8.14,4.22-12.92,2.22-3.11-7.9-10.07-7.57-16.64-7.4-3.78.09-7.59.52-11.38.39C2,74.9-2.11,68.48,1.09,61A28.7,28.7,0,0,1,10.62,49.2Z"/></g></g></svg>