<svg xmlns="http://www.w3.org/2000/svg" viewBox="0 0 323.38 295.72"><defs><style>.cls-1{fill:#0a3c5c;}.cls-2{fill:#043353;}.cls-3{fill:#01516a;}.cls-4{fill:#035d74;}.cls-5{fill:#237080;}.cls-6{fill:#023f5a;}.cls-7{fill:#013851;}.cls-8{fill:#2d5e76;}.cls-9{fill:#447785;}.cls-10{fill:#5d8e94;}.cls-11{fill:#397d8b;}.cls-12{fill:#488a94;}</style></defs><g id="Calque_2" data-name="Calque 2"><g id="Calque_1-2" data-name="Calque 1"><path class="cls-1" d="M323.38,177c-6.72-3.19-9.82-1.32-9.95,6-3.82-1.29-5-3.6-3.48-6.84a10.88,10.88,0,0,1,3.27-3.71c5-3.94,5.17-4.51,2.53-10.14-1.68-3.56-4.25-6.73-3.52-11.15.33-2.05-1.56-2.26-3.16-2a163,163,0,0,1-20.8,2c-.66,0,0-.26-.47.08-7,4.72-14.46,3-22.06,2-4.87-.66-9.74,1.59-14.76,1.64-4.81,0-5.4-.27-4.75-4.84,1-7,.57-7.64-6.15-9.84-3.15-1-6.18-2.39-9.5-3-2.29-.4-3.71-2.05-4.79-4-.7-1.3-1.06-2.94-2.33-3.78-3-2-3.41-4.33-1.41-7.16,2.45-3.49-1.12-4.08-2.65-5.66-1.22-3,1-4.72,2.82-6.26,11.59-10.12,22.2-21.5,36.76-27.75,6.59-2.83,11-8.4,15.38-13.87,1.64-2.07,3.23-4.3,6.25-4.51,3.57.23,5.25,2.41,6,5.68.46,2.12.54,4.29.88,6.41.61,3.78,2.14,6.44,6.35,7.9,7.53,2.6,15,5.37,22.92,6.2,4.16.43,4.74,4.18,6.66,6.7Z"/><path class="cls-2" d="M302.42,29c6.77-9.82,12.52-20.38,21-29V97c-1-.13-2.15-.4-2.52-1.37-1.32-3.56-4.29-3.14-7.25-3.79-6.33-1.39-13-1.92-18.63-5.69a5,5,0,0,0-1.27-.78c-6.39-1.81-7.9-3.85-8.35-11-.24-3.91-.59-7.85-5.2-9.37-1.29-2.15.22-3.7,1.22-5.29,1.56-2.46,3.46-4.71,4.76-7.34,4.18-4.69,6.76-10.41,10.07-15.65,2.33-2.17,2.67-5.8,5.53-7.58Z"/><path class="cls-3" d="M219.24,115.94c2.33,0,4.74-.24,6,2.42s-1,3.87-2.22,5.5c-.68.88-2,2.39-.37,2.73,3.67.77,3.89,3.67,4.85,6.23.42,1.13,1.17,2.6,2.2,2.49,4.64-.5,8.17,2.44,12.27,3.55,2,.53,5.19-.86,5.7,1.73.58,2.94,2.26,6,.63,9.22a38.85,38.85,0,0,0-1.46,4c5.16-2.39,10.28-.47,15.21-2.49,3.08-1.26,6.86-.43,10.27.78,3.89,1.37,7.75,1.81,11.18-1.47,1.49-1.42,3.55-1.65,5.62-1.63a87.56,87.56,0,0,0,20.08-2.05c4.11-.92,6.24,1.45,4.87,5.52-.61,1.81-.52,3.15.77,4.54,2,2.13,2.76,4.88,3.88,7.48,1.76,4.08,1.94,6.68-3.24,8.71-5.74,2.25-5.92,5-2.08,9.79,2.14,2.42,2.63,4.74.13,7.38-1.7,1.79-2.43,4-.19,6.1,2.53,2.31,2,4-.67,5.82-1.6,1.07-3.12,2.5-3.33,4.7-2.37,4.31-3.19,9.37-6.94,13-4.68,4.57-7.68,4.59-11.95-.5a15.43,15.43,0,0,1-1.19-1.6c-2-3.1-3.51-2.19-4.86.59s-2.62,5.44-5.07,7.29c-1.5,1.13-3.2,2.89-4.93.17-.35-4.06-.62-8.13-5.79-9.24-.68-.15-1.81-1.09-1.74-1.5.76-4.46-3.49-7.28-3.6-11.48-.1-3.78-2.62-5-5.31-2.72-4.85,4.16-11.34,7.47-10.69,15.52,0,.16,0,.38,0,.49-3.33,4.1-7.63,7.82-5.41,14.09a1.88,1.88,0,0,1-1.16.74c-5.32-.14-6.23,3.92-7.75,7.68-1.59,3.91-2.49,7.58.32,11.3a2.1,2.1,0,0,1-.42,3.11c-2.35,1.91-2.62,4.47-2.5,7.23,0,.78.13,1.83-.89,2.09-1.32.33-1.54-.83-2-1.71-1.48-3,.34-5.87.05-8.83-.26-2.7.09-5.25-3.67-6-3.11-.63-1.47-2.18-.07-3.31,4.46-3.6,4.42-4-.38-7-.66-.41-1.53-1.11-1.61-1.75-.67-6-4.57-10.35-7.68-15.08-.78-1.19-.19-2.22.06-3.33a9,9,0,0,0-1-6.75c-2.06-3.51-3.84-6.69-3.11-11.38.47-3.05-2.66-6.36-3.21-10.07-.28-1.93-3.16-1.09-4.06.22-3.4,5-10.83,7.31-9.65,15.37.35,2.43-2.17,4.35-3.62,6.36a2.13,2.13,0,0,1-2.79-2.45c.69-3.91-2.62-4.5-4.39-6.61-4.8-5.72-10.94-8.88-17.66-11.34-3.24-1.18-2.68-4.71-4.33-6.77s-5.94,1.85-6.74-2.79c1.32-4.12,5.06-5.68,8.42-7.19,8.45-3.81,15.59-9.41,22.54-15.35,2-1.73,4.59-3.54,5-6,1-5.79,5.92-8.44,8.86-12.63.81-1.16,2.26-1.25,3.53-1.64,1.51-.48,4.32.16,3.59-2.73-.57-2.22-2.62-2.74-4.87-2.21-1.6.38-3.27.85-4.77-.35a2,2,0,0,1-.7-2.21c1.21-2.21,3.87-1.82,5.58-3.13a40.78,40.78,0,0,0,11.1-8C213.75,116.59,216.07,114.78,219.24,115.94Z"/><path class="cls-4" d="M154.44,180c1,2.63,2.43.42,3.59.24,3.33-.51,5.93-.16,5,4.15-.44,2.13.27,3.15,2.19,3.66,2.88.76,5.42,2.6,8.09,3.4a13.23,13.23,0,0,1,8.16,6.6c.94,1.62,2.09,2.78,4.33,2.72,3.16-.09,4.24,1.71,2.67,4.46-1.2,2.09-.47,3.42,1,4.76,0,.5-.17,1.07,0,1.47,4.3,8.87-1,15.53-5.15,22.45-3.48.6-3.75-2.58-5.13-4.41-2.34-3.1-3.39-3-5.14.37-2.91,5.73-2.92,5.81-8.9,4.42a2.1,2.1,0,0,0-2.79,1.23c-2.16,4.34-5,6.75-10.15,8.55s-9.13,1.54-13.78.83c.05-1.95-1.11-3.34-2.16-4.79a13.51,13.51,0,0,1,.64-9.21c1.59-3.95,0-6.35-3.49-7.93-2.85-1.29-5.88-2.18-8.6-3.79-4.56-2.7-5.58-5.22-4.16-10.34a45.09,45.09,0,0,1,3.75-9.13c4.68-4.3,11.25-5.6,15.9-10,3.32-1.94,5.63-5.06,8.58-7.42C150.52,181.08,151.84,179,154.44,180Z"/><path class="cls-5" d="M125.44,200c-.16,3.58-2.09,6.61-3.22,9.87-1.31,3.78-.3,6.1,3.19,7.59,2.89,1.23,5.79,2.45,8.73,3.57,5.29,2,6.56,5.28,4.33,10.63-1.12,2.69-.27,5.94-2.15,8.48-1.44-.35-2-1.63-2.8-2.64s-2.27-1.47-2.67.07c-1.06,4.12-6.38,4.33-7.38,8.58-.36,1.53-2,0-3-.12a26.89,26.89,0,0,1-3.23,9.59c-1.53,2.83-2.67,6.41-6.68,6.46-3.72,0-5.06-3.23-6.74-5.81-.87-1.35-1.26-3-3-3.74-5.78-7.2-11.46-14.41-19-20.09a28.89,28.89,0,0,1-10.24-13.64c1.88-4.87,6.45-6.42,10.54-8.58,11.75-7.77,25.37-9.44,38.78-11.73A4.19,4.19,0,0,1,125.44,200Z"/><path class="cls-6" d="M138.48,244.91c1.69-1.46,2.94-3,5.64-.84,3.25,2.57,5.38-.67,7.4-2.75s3.68-3.36,4.55,2.07c2.16-4.15,3.92-7.09,5.26-10.21,1.17-2.71,2-3.54,4.39-.91,2.81,3.12,4.74,2.54,6.24-1.65.88-2.47,1.12-6.11,4-6.18,3.07-.08,4.77,3.05,5.83,6a5.65,5.65,0,0,0,2.6,3.49c.39,1.09.74,2.2,1.16,3.27.9,2.28.56,3.37-2.29,3.29-4.37-.12-5.28,2.19-4.14,6.2a25.16,25.16,0,0,1-.24,15.7c-.67,1.87.3,3.28,1.25,4.58,1.73,2.35,1.48,4.08-.88,5.89-2,1.5-4.19,3.34-1.13,6,1.48,1.27.43,2-.67,2.58-6.59,3.31-11.71,8.66-17.76,12.72-1.42.95-3.28,2.77-4.67.5-1.2-1.94-4.68-3.28-2.3-6.71,2.19-3.17,1.47-6.3,0-9.83-1.58-3.71-1.83-8.4-4.45-11.25-3.57-3.91-3.67-7.56-3.14-12.38C145.54,250.24,140.33,248.41,138.48,244.91Z"/><path class="cls-7" d="M274.43,226c1.76,1,2.75-.23,3.78-1.3a17.25,17.25,0,0,0,3.28-4.3c4.4-9,4.45-8.93,10.62-1.33,3.12,3.84,4.84,3.93,8.29.44,2.34-2.37,4.36-4.87,5.21-8.26a5.31,5.31,0,0,1,3.76-4.24c-.05,3.33-.18,6.63,2.15,9.48.85,1,1.24,2.62-.51,3.35-5.07,2.1-3.07,5-.85,7.75s3.5,4.69-1.38,6.43-5,4.19-2.37,8.55c3.72,6,3.16,7.91-3.45,10-5.36,1.71-10.81,3.18-16.28,4.52-4.39,1.09-5.31,0-4.74-4.41.46-3.57,2.28-7.85-3.65-9-1.64-.33-1.68-1.64-.83-3.13,3.65-6.41,2.65-8.54-5-10.83C272.05,227.84,274.06,227.31,274.43,226Z"/><path class="cls-8" d="M154.44,180c-4.76,3.14-7.87,8.24-13,10.93-3.9-4.49-10.22-6.88-11.55-13.68-.34-1.72-2.55-2.51-4.13-3.39C119,170.1,113.1,165.34,109,158.68c-1.38-2.26-4.86-2.58-5-5.81.48-2.11,2.08-3.34,3.7-4.45,10-6.81,20-13.46,32.25-15.57,6.24-.85,12.45-2.21,18.81-1.59,10.77-.65,21.64.08,32.26-2.48a4,4,0,0,1,4.49,1.36c1.21,2.19,3,1.05,4.35.49,2.74-1.11,5-1.44,6.7,1.66.64,1.16,3,1.39,2.2,3.36-.74,1.71-2.18,3.23-4.14,3.17-3.52-.11-6.21.14-5.45,4.85.18,1.12-1.2,2.54-2.33,1.65-4.08-3.23-3.15.56-3.56,2.39-1.12,5-4.23,8.56-8,11.69-7.26,6-14.69,11.81-23.52,15.55C159.09,176.09,156.87,178.3,154.44,180Z"/><path class="cls-9" d="M104.51,153.17A16.18,16.18,0,0,1,112.2,160c4,6.33,10.47,10,16.77,13.71,1,.59,2.76,1.32,2.74,1.94-.21,6.34,5.34,8.14,8.79,11.57,1.09,1.08.85,2.44.94,3.74-4.53,4.45-10.23,6.81-16,9-15,1.82-29.7,4.37-43.06,11.92-5.16-1.68-8-6.2-11.82-9.58-1.76-1.57-3.33-3.15-5.74-3.7-4-.92-6.39-4-8.93-6.86-2.31-2.57-1-4.91.67-7.17a82.29,82.29,0,0,0,22.36-15.94c2.17-2.23,3.31-5.38,6.22-6.92,5.88-1.22,10.65-4.56,15.38-8C101.79,153.09,103,151.91,104.51,153.17Z"/><path class="cls-10" d="M57.49,185c-1.84,4.44,2,10.89,7.55,11.76,3.33.52,5.14,2.27,7.18,4.6a60.89,60.89,0,0,0,8.7,7.7,3.23,3.23,0,0,1,1.47,2.85c-3.52,2.08-7.14,4-10,7-.52,2.37-2.52,3.39-4.27,4.59-7.92,5.45-16,10.63-24.2,15.63-4.64,2.4-8.89,5.47-13.58,7.79-1.87.92-3.69,2.22-6,1.27a3.23,3.23,0,0,1-.8-1.78c-1.17-7.21-3.38-9.13-10.85-8.94-3.23.08-6.32,0-8.93-2.17C2.2,234-.3,233.16,0,230.51c.36-2.92,3.34-1.95,5.12-2.85-.83-2.37-3.52-3.21-4.14-5.58.05-3.21,2.3-5.16,4.42-6.91,8.07-6.67,16-13.45,23.78-20.5,6.72-6.92,16.21-7.09,24.54-10.07A3.63,3.63,0,0,1,57.49,185Z"/><path class="cls-11" d="M43.45,238c5.94-5.33,13.37-8.46,19.67-13.27,2.88-2.19,6.16-3.86,9.26-5.76,5.38,5.64,10,11.79,16.34,16.8,5.11,4.06,10.93,9,12.79,16.31-1.21,4.34-3.76,8-6,11.84-1.79,3.09-3.39,3.48-5.87.4-1.36-1.7-3.4-7-6-.54-.35.88-1.43.56-2.23.28-6.14-2.13-7.92-3.84-11-10.83-2.12,2.3-2.41,6.12-6,6.8l-1.12-.16c-4-.42-6.89-2.61-9.64-5.45-3.71-3.83-6.08-8.65-9.81-12.43C42.88,240.89,42.19,239.45,43.45,238Z"/><path class="cls-12" d="M43.45,238c6.11,6.73,9.36,16.1,18.49,20a2.3,2.3,0,0,1,1.44,1.83c-2.17.65-1.42,7.12-6.06,3-.18-.16-1.54.58-1.94,1.17-1.89,2.87-3.23,7-7.23,1.72-.73-1-1.48.6-1.64,1.6A31,31,0,0,1,42.77,277c-.93,1.71-2.08,3.77-4.39,3.54s-2.8-2.5-3.38-4.42c-.28-.91-.68-1.79-1.08-2.8-3.73,4.48-7.9,4.21-10.42-.43.8-1.64-.43-2.55-1.43-3.23-4.27-2.92-6-7.75-8.92-11.64a4.7,4.7,0,0,1-.58-4.7c3.26-3.34,6.37-7,11.86-5.44C31.07,245.17,36.56,240.22,43.45,238Z"/></g></g></svg>