<svg xmlns="http://www.w3.org/2000/svg" viewBox="0 0 38.72 54.42"><defs><style>.cls-1{fill:#5d3241;}</style></defs><g id="Calque_2" data-name="Calque 2"><g id="Calque_1-2" data-name="Calque 1"><path class="cls-1" d="M38.72,14c-.07,4-.37,7.92-.12,11.86.22,3.43-1.08,5-4.4,5l-1,0C23,31.3,23.05,31.3,23.06,41.75c0,4.08.94,8.25-.87,12.21-1.8.23-3.77,1.32-5.08-1-.81-2.94-.56-6-.32-8.89.32-3.79-1-5.23-4.71-4.65a4.5,4.5,0,0,1-2.92-.35C-.66,38.94,0,40.32.29,29.87c.17-6.74-1.21-13.58.9-20.24,4.56-.54,6.3,1.4,6,6-.33,4.8,0,9.64-.14,14.45C6.93,33.31,8.66,34,11.4,34s5.09-.25,4.87-3.87c-.53-8.45.9-16.9,0-25.35C16,2.44,16.39.24,19.33,0c3.15-.24,3.88,1.75,3.84,4.47-.07,5.48.07,11,0,16.45-.06,2.85.79,4.24,3.94,4.26s4.5-1.13,4.42-4.35c-.14-5,0-10,0-15,0-2.58.69-4.82,3.81-4.67s2.93,2.64,3,4.8C38.48,8.67,38.59,11.32,38.72,14Z"/></g></g></svg>