<svg xmlns="http://www.w3.org/2000/svg" viewBox="0 0 257.33 60.54"><defs><style>.cls-1{fill:#fde5ac;}</style></defs><g id="Calque_2" data-name="Calque 2"><g id="Calque_1-2" data-name="Calque 1"><path class="cls-1" d="M0,22.89a9.33,9.33,0,0,0,7.21-2.52c4.32-3.71,9.31-5.55,15.24-3.94a14.41,14.41,0,0,0,6.9.22c4.79-1.19,9.15-1.13,13.2,2,2.81,2.17,5.8,0,8.66.28C61.28,20,69.89,17,77,9.85c4-4,8.89-3.22,13.58-2.72,2.61.28,4.32,0,6-2.08a10.81,10.81,0,0,1,9.6-4.23c4,.27,7.92-.38,11.88-.73,10.55-.92,17.79,5.05,23.9,12.8a10.58,10.58,0,0,0,10.7,2.39c4.53-1.49,9.2-1.13,13.78-1.82a11.88,11.88,0,0,1,9,2.1,10.58,10.58,0,0,0,9.41,1.72c9.67-2.34,19.14-2.48,27.87,3.42,1.85,1.25,4.14,1.14,6.31,1.15,2.7,0,5.9-.11,7.64,1.76,6.32,6.77,15.68,7.54,23,12.26a29.88,29.88,0,0,1,4.5,3.13c3.65,3.41,4.27,7.86,1,11.54-4,4.58-8.81,7.86-15.47,7.75-8.8-.15-17.59,1.69-26.39,1-15.46-1.16-30.91.61-46.38-.32-10.27-.62-20.48,1.92-30.84,1.49a40.69,40.69,0,0,1-15-3.33C114,54,106.48,51.87,99.1,49.31a14.58,14.58,0,0,0-4.37-.39C81.28,43.83,67.24,45.05,53.33,45,38,45,22.71,45,7.4,45,4.75,45,2,45.23,0,42.89Z"/></g></g></svg>