<svg xmlns="http://www.w3.org/2000/svg" viewBox="0 0 215.36 175.57"><defs><style>.cls-1{fill:#001738;}</style></defs><g id="Calque_2" data-name="Calque 2"><g id="Calque_1-2" data-name="Calque 1"><path class="cls-1" d="M215.36,3.26v145c-.73.66-1.35,1.6-2.29,1.86-10,2.71-18.17,9.23-27.42,13.49-10.11,3.73-20.11,7.76-30.5,10.72-2.21-.79-4.45-1.44-6.79-.63-4.81,1.67-10,.39-14.81,1.77a2.88,2.88,0,0,1-3.42-1.48c-.71-1.36-.06-2.64.89-3.64a32.21,32.21,0,0,1,8.95-6.28c3.61-1.87,6.78-4,8.27-8.18,1.16-3.2,3.93-5,7.25-5.45,2.95-.43,4.83-2.23,4.88-4.85.17-8.72,6.59-10.33,13-11.9,3.15-.76,6.6-.24,8-4.46,1-2.83,4.44-4.18,4.59-7.94s1.29-4.64,7.14-10c-5.12-3.49-10.44-5.46-16.27-2.33-7,3.75-14.45,4.84-22.24,4.3a22.79,22.79,0,0,0-13.36,3.15c-4.71,2.71-9.76,2.91-15.29,2.76-8.81-.24-17.84-3-26.56.76a74.37,74.37,0,0,0-28.21,10.86c-8.94,5.88-18.13,6.78-28,5.12-9-1.51-17.72-2-26.34,1.91-5,2.28-9.77.5-14.22-2.17A5.37,5.37,0,0,1,1.05,134c-.91-2.67-2-5.38.44-7.85,1.55-1.58.09-2.68-.55-3.93a5,5,0,0,1-.13-4.35,13.68,13.68,0,0,0,1.08-8.67c-.54-2.81.78-5.2,2.86-7.07,1.4-1.27,2.72-2.63,2.55-4.62-.74-8.67,3-16.54,4.28-24.84,2.83-2.26,5.11-5.1,7.86-7.45,5-4.27,4.93-4.34,9.91.25a10,10,0,0,1,2.91,4.89c3.85,4.57,8.29,8.91,6.24,15.82a2.54,2.54,0,0,0,.75,2.29c4.38,5.07,5.68,11.52,7.9,17.57a11.48,11.48,0,0,1-.2,7.8c-.56,1.7-.59,3.26.89,4.55,1.78,1.54,3.17.15,4.42-.76,4.56-3.33,8.9-7,13.59-10.1a3.17,3.17,0,0,0,1.58-3.37c-.12-.65-.33-1.47,0-2,4.84-7.14,1-15.24,2.55-22.73a10.14,10.14,0,0,0-.3-4.92c-1.2-4.14-.79-7.62,3.76-9.44,2.66-1.06,1.33-3.41,1.71-5.2,4-7.44,6.93-15.1,5-23.79a33.21,33.21,0,0,0,3.71-10.62c1.18-6.31,6.6-9.71,11.54-13,2.22-1.46,4.8-.21,5.42,2.56,1,4.32,4,8.13,3.11,12.93-.32,1.73.93,3.14,1.68,4.6a20.11,20.11,0,0,1,2.44,7c1,8.83,5.33,16,10.93,22.63,1.34,1.57,2.14,3.42,1.08,5-2,3-1,5.3.51,8.07,1.42,2.51.64,5.51.33,7.87,2-2.87,1.42-6.25,1-10-.65-6.37,1.47-12.13,7-16.09.67-.48,2-.85,1.93-1.44-.43-6.52,5.67-10.19,6.81-16.12,1.28-6.67,6.37-10.76,11.89-13.94,3.25-1.88,6.12-.3,7.32,3.46.65,2.08,1.7,4,2.33,6,1.05,3.4,2.5,6.17,5.63,8.34,2.71,1.87,3.43,5.19,2.86,8.56-.77,1.76-.41,2.88,1.41,4,3.66,2.18,5.43,5.32,3.53,9.66-.48,1.09-1,2.2.25,3.12,3.24,2.45,3.48,5.86,3,9.44-.4,2.92,1.05,3.71,3.45,2.93,5.06-1.62,10.27-2.68,15.3-4.38,3.33-1.13,4.29-3,2.53-6.43-3.16-6.22-2.95-7.07,2.2-11.37,1.79-1.5,2.12-2.73.84-4.57-2.09-3-2.58-6.08.19-9a3,3,0,0,0,.32-3.7c-1.32-2.66-1-5.49-.86-8.3a4.6,4.6,0,0,1,1.09-3.2c2.43-2.68,4.31-5.3,1.85-9.06-.69-1.05-.26-2.69.47-3.78,1.94-2.89,1.68-5.85.65-8.91-.47-4,1.22-6.71,4.93-8C211.86-.69,214,.59,215.36,3.26Z"/></g></g></svg>