<svg xmlns="http://www.w3.org/2000/svg" viewBox="0 0 265.06 135.28"><defs><style>.cls-1{fill:#db6a71;}.cls-2{fill:#f47778;}.cls-3{fill:#e87178;}.cls-4{fill:#fe9077;}</style></defs><g id="Calque_2" data-name="Calque 2"><g id="Calque_1-2" data-name="Calque 1"><path class="cls-1" d="M21.91,78c-7.44-2.84-12.25-9.1-18.15-14L0,60.93v-12A51.9,51.9,0,0,1,22.14,39.6c2-.32,3.37-.56,2.72-3.7-.76-3.7,2.76-5.22,5.81-5.3,4.47-.1,6.93-2.43,9.07-5.9s4.4-6,9.5-5.66c3.34.21,5.75-4,8.16-6.63,1.78-2,3.49-4,5.31-5.94,2.2-2.32,4.78-3.55,8.05-2.74.64.16,1.35.7,1.91.38C78,1,84.38,2.17,89.94,0a27.62,27.62,0,0,1,14.24,5.48c8.58,6,17.08,12.09,26.8,16.2a4.37,4.37,0,0,1,2.19,2c-.91,4.19-4,2.85-6.22,2a97.42,97.42,0,0,1-10.52-4.48c-2.05-1.06-3.5-.73-5.49.27C98.44,27.78,87.79,37,75.6,43.82a29.91,29.91,0,0,1-4.42,2.3c-3.79,1.32-6,3.13-5.54,7.94S61,61.65,55.39,60.3c-3.1-.75-5.78-1.6-7.49,2.15a3.24,3.24,0,0,1-3,1.59c-2.46.06-4,1.59-5.32,3.28C35.05,73.14,29.32,76.93,21.91,78Z"/><path class="cls-2" d="M100.41,119C95.68,114.41,90.8,110,85,106.82c-3.49-4-9.23-4.24-13-7.84-1-1-2.48-1.59-3.47-2.77-2.69-3.2-1.69-6.88,2.36-7.38,6.89-.85,11.68-4.72,16.32-9.48A137,137,0,0,1,117,56.22c9.51-5.5,19.13-11.28,25.74-20.56,3.11-4.36,7.22-4,11.59-2.82C159.34,34.34,163,38,167,41.06A44.65,44.65,0,0,0,171.6,44a99.46,99.46,0,0,0,23.94,13c1.7.62,3.48,1.15,4.7,2.64.64,5.53-1.43,8.26-7.08,7.92-4.33-.25-7.33.55-9.13,4.76-.64,1.5-2.28,2.38-3.65,3.31-2.28,1.54-4,3.33-4.34,6.3-.31,2.59-2.22,4.39-4,6.12-3.22,3.07-6.88,5.66-8.89,9.92-1.29,2.75-3.83,1.94-6.54.41.76,4.22-1.41,5.9-4.55,6.9a257.62,257.62,0,0,0-40.87,16.67c-1.61.83-3.13,1.93-5.08,1.8C103.53,122.91,102.53,120.27,100.41,119Z"/><path class="cls-3" d="M153.94,34c-6.85-2.21-10.08,2-12.89,7.15a5.92,5.92,0,0,1-2.4,2.48C131.54,47,126.86,53.6,119.85,57c-9.43,4.6-17.46,11-25.38,17.93-5.37,4.67-9,11.57-16.52,13.89-2.1.64-3.72,2.6-6.3,1.54-1.55-.64-2.49.28-3.13,1.63-.74,1.57,0,2.39,1.33,3.18,4,2.41,6.92,6.54,11.79,7.73,2,.47,3.93,1.16,3.36,3.91-11.21-3.13-19.47-10.59-27.37-18.6C50,80.51,41.17,77.09,30.24,79.8c-2.74.68-5.7-.49-8.33-1.82.79-.84,1.48-2.25,2.39-2.42C31.56,74.23,35.8,69,40.1,63.78c.11-.13.18-.37.3-.39A15,15,0,0,0,50,57.12c1.12-1.5,2.57.27,3.86,1,3.85,2.07,8.07,1,9.92-2.35.5-.9,1.27-1.85.49-2.72-4.42-4.91,1.24-6.59,3.3-7.42,11.56-4.66,21.2-12.32,31.15-19.38,4.34-3.08,10-3.8,13.5-8.17.94-1.17,2.55-.37,3.62.49,3.66,3,8.53,3.35,12.42,5.9a3.85,3.85,0,0,0,4.68-.39c3.37-1.79,6.29.23,9.36,1.08a41.52,41.52,0,0,1,6.47,3.31C150.89,29.93,153.63,30.87,153.94,34Z"/><path class="cls-4" d="M242.91,70c3.75,3.19,9.11,2.2,13,5,1.95,1.58,4.41,2.28,6.48,3.67,2.68,1.81,3.56,4.5,1.55,6.84-4.57,5.33-5.7,12.49-10.7,17.86-2.5,2.69-4.22,8-5.12,12.37-1.83,9-7.12,12-16.31,10.7-15.43-2.25-29.41-9-44.24-13.07-1.44-.39-2.88-.92-3.63-2.4-2.09-2.56-5.21-2-7.9-2.39-9.19-1.43-18.4-2.64-27.72-.77-2.05.41-3.9.9-5.28,2.45-3.36,3.79-9,3-12.61,6.53a23.65,23.65,0,0,0-6.36,15.67c0,3.74-3.81,2.83-5.87,2.64s-4.86-1.85-5.35-3.9c-.94-3.92-3.79-5-6.79-6.32,0-.63,0-1.26-.08-1.89a120.21,120.21,0,0,1,23.27-11.21c8-3,15.85-6.65,24.2-8.86,2-.52,2.93-1.75,1.09-3.58-1.58-1.58-.61-2.8.64-3.71,1.47-1.06,2.41,0,3.19,1.22,1.61,2.54,2.93,2.76,3.67-.55,1.2-5.32,6.66-6.73,9.59-10.47,1.4-1.78,3.46-2.93,2.64-5.91-.62-2.24,1.61-3.46,3.19-4.62,2.89-2.11,6.2-3.45,6.93-7.88.4-2.39,3.48-2.3,6-1.86,6.41,1.15,7.44.47,9.48-5.46C214.22,63.29,228.35,67.55,242.91,70Z"/></g></g></svg>