<svg xmlns="http://www.w3.org/2000/svg" viewBox="0 0 361.65 163.76"><defs><style>.cls-1{fill:#fec174;}.cls-2{fill:#feba77;}</style></defs><g id="Calque_2" data-name="Calque 2"><g id="Calque_1-2" data-name="Calque 1"><path class="cls-1" d="M0,104.34c3.07-2.36,6.7-3.45,10.27-4.74,1.84-.66,3.78-1.4,4.84-3.29,7.86,1.37,14.36-3.38,21.56-5a112.63,112.63,0,0,0,11-2.57c5.16-1.7,10.44-2.82,13.85-7.58.1-.13.24-.3.37-.31,7.74-.66,12.17-7,18.18-10.6a6.75,6.75,0,0,0,4.38-.56C97,62,110.92,57.76,124.64,53.07a161.51,161.51,0,0,0,52.1-29.22,39.79,39.79,0,0,1,15.16-8c3.95-1.11,7.57-4.2,10.75-7,12.42-11.12,22-11.38,35.42-2.25,9.49,6.44,20,10.22,30.68,13.63,4.08,1.3,7.55,4.42,12.15,4.14,5.45-1.41,7.19-.61,9,4.6a28.85,28.85,0,0,1,.41,15.77c-.61,2.72-2.13,5.31-4.89,5.86-7,1.37-10.37,7.35-15.23,11.41a12.82,12.82,0,0,0-2.27,2.64c-4,5.8-9.15,9.43-16.44,9.59a4.65,4.65,0,0,0-4.49,2.63c-1.59,3.42-4.59,5.07-7.87,6.51-3.49,1.54-6.9,3.36-10.42,4.75-5.85,2.31-11.92,3.92-18.45,1.9-4.39-1.35-8.92-1.1-12.75,2.14a4,4,0,0,1-2.18,1.16c-7.86,0-14.21,4.38-21.21,6.92-3.61,1.3-5.17,2.79-5,6.64.47,10.23-2,12.87-12.31,13.55-.67,0-1.5-.17-2,.18-6.2,4.57-14.28,4.67-20.67,8.66a15.73,15.73,0,0,1-9.55,2.11c-5.92-.29-11.47.27-16.62,3.83a9.31,9.31,0,0,1-11.66-.35c-2.6-2-5.75-1.47-8.62-2-5.17-1-10.32-2.67-15.73-1.71-13.5-1.57-26.45-5.57-39.55-8.93a5.67,5.67,0,0,1-3.41-2.7C18.15,116.63,8.32,111.93,0,104.34Z"/><path class="cls-2" d="M72,129.31c7.86-.7,15.38,2.3,23.19,2.14a1.25,1.25,0,0,1,.92.33c4.93,6.29,9.72,2.8,14.22-.44s9.32-1.76,14-2c4-.2,8.14.69,10.44-3.93a2.64,2.64,0,0,1,2.16-1,16.66,16.66,0,0,0,14-5c1.6-1.59,4.08-1.14,6.24-1.16,8.3-.07,10.56-2.49,9.83-10.48s-.42-8.43,7.41-9.51c1.88-.25,4-.56,4.84-2.18,2.06-3.8,5.32-4.08,8.95-3.82a12,12,0,0,0,9.58-3c4-3.52,9.19-2.56,13.81-1.19,6.59,2,12.33-.17,17.93-3,2-1,4.15-1.34,5.95-2.4,3.91-2.3,8.87-2.87,10.54-8.72.9-3.15,5.86-2.38,9-2.58,3.9-.26,6-1.72,8.33-5,2.61-3.65,5.52-7.44,9.42-10A12.75,12.75,0,0,0,277,52.27a5.28,5.28,0,0,1,5.34-3c3.77.31,5.63-1.86,6.12-5.17.76-5.09,1.06-10.14-.57-15.26-1.2-3.75-3.36-5.06-7-4.61,5-2.75,9.48-6.43,15.1-8,3.25-.32,5.81.51,7.47,3.67,1.29,2.46,3.8,3.7,6.29,4.7,4.38,1.74,7.46,4.47,9.12,9.15s3,4.75,6.26,1.16c1.39-1.53,2.65-1.74,4.37-.88a3.74,3.74,0,0,1,2.31,4c-.67,10.11,0,10.94,10.28,11.17,4.27.1,5.88,2,5.93,6.12.1,8.56.94,9.28,9.8,9.94,1.27.09,2.88-.45,3.59,1,.85,1.76-.91,2.59-1.72,3.76-2.34,3.39-4.42,6.85-8.87,8.16-2,.59-3,3-3.85,5,.38,1.79-1,2.44-2.17,2.86-6.09,2.23-11.79,5.37-18,7.35-10.71,3.39-21.83,6-30.47,14-10.24,3.86-19,11-29.79,13.68a3.82,3.82,0,0,0-2.21,1.1c-4.11,5.78-10.42,7.87-16.56,10.47-2.85,1.2-4.2,5-7.21,6A40.54,40.54,0,0,0,225.21,148c-3.14,3-8,3-12.25,3.69a30.61,30.61,0,0,0-6.79,1.59c-1.21.49-2.28.89-2.35,2.72-.15,4.64-2,5.81-6.4,4.38-1.57-.52-2.83-1.8-4.57-1.91-4-.24-7.67-.29-11.37,2.29a15.22,15.22,0,0,1-17,.82,14.92,14.92,0,0,0-7-2.28c-20.38-.64-38.93-7.54-56.88-16.6-5.16-2.6-9.94-6.12-15.88-7a72.63,72.63,0,0,1-9-2.62C74,132.54,71.84,132,72,129.31Z"/></g></g></svg>