<svg xmlns="http://www.w3.org/2000/svg" viewBox="0 0 367.39 199.19"><defs><style>.cls-1{fill:#00253f;}.cls-2{fill:#01354e;}.cls-3{fill:#003048;}.cls-4{fill:#034359;}.cls-5{fill:#14596c;}.cls-6{fill:#256778;}</style></defs><g id="Calque_2" data-name="Calque 2"><g id="Calque_1-2" data-name="Calque 1"><path class="cls-1" d="M53,96.42c.16-5-1.62-9.81-2.62-14.53-.74-3.45-4.7-7.18-9-8.27-3.42-.86-6.4-.19-7.57,4.25-.94,3.57-2.51,7-6.28,9-1.76,1-3.74,2.91-2.09,5.8.83,1.46-.7,2.37-1.56,3.32a5.89,5.89,0,0,0-1.78,3.45c-.16,1.55,2.28,4.1-.75,4.46a7.64,7.64,0,0,1-6.56-2.72A76,76,0,0,0,0,88.4V.42C3.31-1,4.26,1.62,5.56,3.63c3,4.63,3.91,10.15,6.43,15,1.22,2.34,1.24,5,4.43,6.48,2.31,1.09,2,5,3,7.61,2.18,5.77,3.73,5.74,6.89,2,2.6-3.08,5.12-2.51,6.89,1.12a55.58,55.58,0,0,0,5.49,10.58c3.75,5.47,7.63,5.67,12.1.68A30.37,30.37,0,0,0,57,37.5c2.23-6.13,6.63-9.59,12.51-11.62,1.72.44,3.14-1.05,4.84-.8,2.75,1.41,3.43,4.32,4.8,6.71.72,1.25,1.41,2.56,2.79.78,3.2-4.11,7.89-4.55,12.49-5.21,1.36-.2,2.29-1.31,3.63-1.48,4.42.86,6,4.83,7.43,8.05,3.59,7.87,10.84,11.24,17.48,15.31,4.19,2.57,5.32,1.85,7.79-2.59,1.12-2,1.65-4.36,3.34-6.07,3-1.94,4.29.24,5.36,2.36,2.12,4.14,4.22,8.31,6.22,12.51A40.59,40.59,0,0,0,150.46,63c1.87,2.37,3.36,2,5.09-.29,5.61-7.49,6.34-7.48,13.11-.41.46.48-.15-.09.31.4s.69,1.12,1,1.7c3.9,7,5.67,7.31,11.85,1.74,5.19-4.67,6-4.59,10.39,1a22.6,22.6,0,0,1,2.29,3.24c2.21,4.17,5.4,7,10.24,7.61a1.88,1.88,0,0,1-.15,3c-3.95,2.67-7.44,6.13-12.45,7-13.47,2.48-26.31,6.74-38,14a19.48,19.48,0,0,1-5,2.15,30.09,30.09,0,0,0-12.58,6.83,18.14,18.14,0,0,1-16.23,4.46,52.9,52.9,0,0,0-7.91-.74c-7.67-1-13.19-5.8-18.68-10.6-3.24-2.83-6.19-6-9.47-8.76C76.58,89,63.89,91.34,56,95.22,55.05,95.71,54.37,96.88,53,96.42Z"/><path class="cls-2" d="M169,176.38c-5.59-.15-9.37-4.48-14.28-6.28-3.06-1.11-5.81-3.09-8.7-4.68-12.84-6.49-25.61-13.06-39.75-16.52-11.89-2.91-23.75-6.07-34.44-12.39-4.81-2.84-9.64-5.55-7.86-12.57a6.24,6.24,0,0,0-1.37-5.18c-1.14-1.51-1-2.72-.29-4.51,1.91-4.72-1.63-12.38-6.42-14.36-1.68-.7-3-1.38-2.83-3.47,1.43-3.36,3.9-4.93,7.62-5.24,4.08-.34,8.09-1.82,12.14-1.86,6.63-.06,11.88,3.48,16.56,7.92,3.6,3.41,6.71,7.31,10.94,10.07,3.71,2.43,7.32,5,11.7,6.08,4.66.94,9.36,1.6,14.07,2.18,2.71.34,5.25,1,6.14,4.08a2.29,2.29,0,0,1-1.13,1.51c-1.46,1-4.31-.69-4.69,1.69a8.44,8.44,0,0,0,1.84,6.59c7,7.18,10,16.85,15.94,24.64,5.64,7.35,13.45,11.76,20.83,16.82C166.91,172.24,169.74,173,169,176.38Z"/><path class="cls-3" d="M204.05,78.47a21.1,21.1,0,0,0,2.21-2c2.32-2.68,4.41-4.54,5.69.78.26,1.08,1.26,2.48,2.49,2,4.2-1.77,7.7.2,11.3,1.72,1.29.55,1.3-.34,1.62-1,.51-1.13.55-2.8,2.54-2.37,2.26.48,3.7,4,6.87,1.51,1-.81,2.32.74,3.14,1.79,1.14,1.44,1.58,3.25,2.51,4.8A39.19,39.19,0,0,0,253.24,97.2c1.7,1.2,3.81,2.23,4,4.79-1.34,2.08-3.24,1.62-4.84.73-8.63-4.8-16.86-1.26-25,1.4-3.81,1.24-7.72,3-10,6.93-1,1.75-3.11,2.43-5,3.07a174.69,174.69,0,0,1-22,6.06c-1.3.25-2.73.18-3.85.93-8.57,5.7-18.41,4.74-27.92,5.2-3.81.18-6.56.81-8.23,4.83-1.5,3.62-5.59,4.09-8.05.86-3-4-7.52-6.53-10.09-10.86-.08-.25-.16-.49-.23-.73-3.42-3.55-8.06-4.08-12.51-4.94-2.57-.5-5.2-.61-7.48-2.08,6.33-.57,12.69,2.44,19.07-.74,4-2,6.22-5.82,10.35-7.56,14.81-6.22,28.83-14.87,44.62-18,6.75-1.32,12-4.56,17.82-7C204.59,79.78,204.52,79.09,204.05,78.47Z"/><path class="cls-4" d="M169,176.38c-3.35-4.34-8.48-6.3-12.89-9-10.31-6.44-16.74-15.83-22-26.28a34.72,34.72,0,0,0-6.65-9.1c-2.8-2.82-2.48-7.17-3.86-10.75-.49-1.28,1.65-1.84,3-1.72,1.81.17,3.59.61,5.38.93h0c5.06,4.5,8.27,10.78,14,14.65,8,5.39,17.23,5.49,26.29,6.32,2.43.22,3.31-1.32,3.81-3.64,2.19-10.07,6.92-12.44,16.66-8.59,4.33,1.72,8.59,3.59,13.42,3.44,5.14-.16,9.62-1.1,13.18-5.61a19.49,19.49,0,0,1,10.05-6.2,44.49,44.49,0,0,0,11-4.61c7.61-4.53,16.33-6.45,24.24-10.38,4.33-2.15,10.06-2.55,14.62,1.22a4.87,4.87,0,0,0,2.75,1c.63.21.24-.9.09-.25-.05.23-.18.22-.41.19-1.63-.21-2.79-.61-1.17-2.41,4.1-2,8.44-1,12.7-1,5,1.77,9,4.56,10.61,10,.51,6.55-2.73,10.51-8.53,13.16-5.43,2.47-10.55,5.6-15.77,8.49-7.07,3.92-14.74,5.84-21.61,8.23,16.64.33,33.95-.42,51.26.37,12.57-.7,25.14-.28,37.71-.51a30.83,30.83,0,0,0,11.29.34c2.91-.33,6-.83,8.54,1.3a1.57,1.57,0,0,1,.34,1.73c-1.9,1.91-4.35,1.3-6.61,1.3-24.9,0-49.81.22-74.72,0-17.59-.18-35.16,1.3-52.76.5a4,4,0,0,0-3.15,1.09c-2,3.74-2.78,7,1.07,10.49,2.87,2.63,1.63,6.31-.78,9-2.27,2.5-2,4.55,0,6.9a9.61,9.61,0,0,1,2.12,4.47,8.38,8.38,0,0,0,5,6.36c2.11,1,3.58,2.59,3.24,5.07s-2.36,3.38-4.35,3.41c-2.46,0-3,2.47-4.87,3.09-5.35-.37-10.71-.46-16-1.49-6.85-2.23-13.84-4.18-20.24-7.5-6.07-3.14-12.53-5.61-18-9.8C174.31,179,172.32,176.32,169,176.38Z"/><path class="cls-2" d="M279.9,106.62c2,1.58,4.57.12,7,1.43a17.35,17.35,0,0,1-9.53-.67c-5.23-1.87-10-1.64-15,1.53-3.51,2.22-7.48,4.24-12,4.56-3.6.26-6.26,3-9.17,4.64-6.13,3.45-13.3,4.34-19.05,8.47-.39.29-1,.38-1.25.75-7.59,11.45-17.57,7.57-27.44,4.27-1.41-.47-2.67-1.4-4.09-1.82-6.2-1.86-10.43.62-11.33,6.52-1.06,6.94-2.67,8.34-9.35,7.32-5.56-.85-11.09-2-16.56-3.24a19.53,19.53,0,0,1-13-9.92c-2-3.66-5.8-6-7.11-10.05,4.41,2.37,7.66,6.08,10.81,9.81,1.31,1.55,2.71,2.66,4.58,2.39s1.32-2.35,1.74-3.68c1-3.05,3.08-4.8,6.32-4.49,6.1.58,12.14-1.85,18.27-.2,1.66.45,3.22-.72,4.63-1.55,6.56-3.87,13.89-5,21.2-6.46,5.27-1.06,11.1-2.28,15.2-5.39,3.11-2.36,5.5-6.06,9.45-7.48,9.84-3.53,19.67-8.63,30.07-1.48a2,2,0,0,0,2.7-.41c7.13-.88,14,.6,20.71,2.69A3.36,3.36,0,0,1,279.9,106.62Z"/><path class="cls-5" d="M302.81,114.55c5.11,3.43,10.39,3.11,16,1.22,3.87-1.31,7.95-2.43,12-.24,2.58-.09,5,.27,6.49,2.72a16.16,16.16,0,0,1-7.15,13.4c-4.09,2.85-8.17,5.54-11.06,9.77-2.62,3.83-7.54,2.92-11.09,4.92H250.28c1.07-2.8,3-3.14,4.61-3.35,5.8-.78,11.32-3,16.49-5.12a90.53,90.53,0,0,0,17.51-9.1,28.93,28.93,0,0,1,5.56-3.11c4-1.66,7.9-3.53,7.21-9.07C301.58,116,302.41,115.23,302.81,114.55Z"/><path class="cls-6" d="M308,146.34c.18-.27.31-.73.55-.8,9.21-2.63,13.15-12.4,21.74-16,3.1-1.31,3.48-5.34,4.89-8.2a16.07,16.07,0,0,1,1.74-2.78c2.87-2.06,4.44.62,6.33,1.82,5.52,3.49,9.13,2.69,12.42-2.9,3.33-3.45,4.27-3.46,8.33-.13,1.26,3.22,4.54,5.82,3,9.89-2.63.6-4.21,1.49-4.33,4.95-.19,5.28-6.76,11.47-11.84,12.27a6.2,6.2,0,0,0-3.91,1.93Z"/></g></g></svg>