<svg xmlns="http://www.w3.org/2000/svg" viewBox="0 0 199.01 202.33"><defs><style>.cls-1{fill:#01516c;}.cls-2{fill:#025470;}.cls-3{fill:#025578;}.cls-4{fill:#016d90;}.cls-5{fill:#096c8d;}.cls-6{fill:#0b6f8e;}.cls-7{fill:#035f7d;}.cls-8{fill:#066a83;}.cls-9{fill:#01577f;}</style></defs><g id="Calque_2" data-name="Calque 2"><g id="Calque_1-2" data-name="Calque 1"><path class="cls-1" d="M35.44,189.79c-2.73,13.13-12.29,5.34-19,6.2-2.86-5,2.67-8.26,2.65-12.68-3.85-1.68-8.11-1.42-11.73-3.37a11.87,11.87,0,0,1-3.16-3c-6-9.88-3.87-19.71-3.54-30.73.42-13.88,3-27.55,3.25-41.37,19.38-20,23.92-44.75,22.84-71.41C26.4,25.22,31.34,18.09,32.19,10c8.46,1.88,4.7,9.56,8.52,12.93a9.75,9.75,0,0,1,2.5,3.49c3,13.29,1.12,27.34,6.43,40.32,1.62,4,.2,8.07-1.69,11.82a37.9,37.9,0,0,1-3.37,5.2,22.91,22.91,0,0,0-3.46,7.11c-1.25,6.11-1,12.42-2.45,18.5-5.22,5.43-4.25,9.67,2.47,12.82,14.69-21.14,16-21.64,27.69-10.28a16.39,16.39,0,0,1,2.59,6c-1.24,16.3,8.92,26.06,20.22,35.17a8,8,0,0,1,1.78,6.39c-2.56,7.36-10.14,1.07-13.91,5.13-.46,2-1.62,4.16-1.26,6,3,15.79.25,26.22-19.39,22.74-1.59-.28-4.31,1.23-5.26,2.71-7.83,12.13-5.33-3.56-8.7-3.15A12.17,12.17,0,0,0,35.44,189.79Z"/><path class="cls-2" d="M79.51,164.62l12.59-6.3c4.94-5.54,15-1,18.48-9.44,5.72-5.13,11.64-9.13,19.13-3l.08,9.24c-6.33,7.93-2.58,17.09-2.73,25.63-.11,6.76,6.14,5.7,10.67,5.9,15.6.68,31.27-1.26,46.83,1.41,5.11.88,10.5.57,14.45,4.8-16.24,8-33.6-2.15-50.14,3-4.31,1.36-10.61-1.4-13.84.84-13.35,9.24-19.38-6.79-19-9.58,2.07-14.42-8.17-4.15-11.37-6.79-10.86.24-16.13-6.24-18.88-15.73Z"/><path class="cls-3" d="M38.69,26.16c-5.11-2.69-1.46-8.87-4.79-12.4-8.62,18.67-.34,39.29-7.48,58-4.91,12.88-4.66,29.09-22.52,33.09C1.16,94,4.91,83.77,7.6,73.48c.52-2,2-4.69,3.87-3.54s2.17,4.28,4.85,10.32c6.53-28.17,9.84-53.57,13-79,7.67-4,9.09,2.4,10,7C40.53,14.07,41.89,20.31,38.69,26.16Z"/><path class="cls-4" d="M73.18,85.94l6.3-28.28c.9-4.92,7.43-7.69,7.28-4.1C86.05,69.76,99.84,80.16,101,95c.09,1.13-1.63,2.4-2.52,3.6-4.5-1.53-9.13-2.74-13.36-5-2.28-1.89-3.77-4.14-3.31-7.25,1.24-2.17,4.91-3.73,2.09-7-.52-.6-1.65.4-1.76,1.68a12,12,0,0,1-1.8,3.18C78.21,86.1,76,87.53,73.18,85.94Z"/><path class="cls-5" d="M114.1,126.86c-6.82.56-8.2,17.47-18.92,6.31-2.54-2.63-1.49-5,.55-7.24,2.21-1.74,5.73-2,6.28-5.67.06-1.27.15-2.49.17-3.75,0-3.7-2.39-6.3-4.05-9.21-.27-.63-.52-1.29-.78-1.93a4.67,4.67,0,0,1,1.13-3.78C116.28,102.23,108.82,118.48,114.1,126.86Z"/><path class="cls-6" d="M95.25,152.06c13.5-2.11,22.35-10.19,28.27-22,2.11,5.25,6.22,9.73,6.19,15.82-7.46-1.52-13.14,2.21-18.72,6.27-4.57,6.75-10.19,5.91-16.2,2.26C94.94,153.61,95.1,152.84,95.25,152.06Z"/><path class="cls-1" d="M85.8,164.62c7.11,4.73,11.31,17.68,23,6.81,1.63,5.66-3.28,6-4.15,8.92a37.06,37.06,0,0,1,.13,15.24c-1.23,6.36-5.2,6.74-10.19,6.74-5.61,0-8.8-2.17-8.76-8.18C85.91,184.31,85.82,174.47,85.8,164.62Z"/><path class="cls-2" d="M85.89,92.18C81.61,104.69,96,98.89,98.36,104.87h0c1,4.75,5.5,7.73,6.3,12.57,0,1,0,2.06-.07,3.09-1.73,2.44-4.19,4.16-6.24,6.29-2.46,1.42-3,3.78-3.17,6.35-5.18,6.32,5,12.57.07,18.89h0c-1.36,2.54-4.59,1.3-6.3,3.13C78.32,150.25,74,139.9,67.74,131.07c-4.26-6,.13-9.34,2.32-13.6-.67-5.23,7.18,7,5.49-3-1.82-10.59-2.11-21.74,3.93-31.7v0c2.86-.72,4,.29,3.19,3.19Z"/><path class="cls-2" d="M66.9,114.3C56.64,99.4,52.62,112.71,48.41,119c-4.66,7-6.23,26.78-14,1.51-.36-1.16-2.21-2.09-3.56-2.67-2.59-1.11-7.58-.18-6.45-4.67,1.8-7.16,5.41.47,8.17-.33,2.45-.7,2.62-2.84,2.89-4.88,2.35-4.8,3.79-10.14,8.16-13.74,4-2.55,6.93-6.16,9.6-10,3.23-4.85,6.72-7.66,11.33-1.42-.67,4.49,1.81,7.45,4.56,10.64C75.6,101,75.06,108.14,66.9,114.3Z"/><path class="cls-7" d="M66.9,114.3C69.76,106,70.7,98.11,63,91.44c-3.16-2.74-.16-5.73.67-8.54-1-.75-1.25-1.47-.91-2.19s.67-1,1-1c3.88,1,1.71,11,9.39,6.28l6.3-3.12q-.09,16.25-.2,32.48c-.1,13.3-6.09,1.7-9.22,2.17Q68.47,115.9,66.9,114.3Z"/><path class="cls-8" d="M54.37,86c-.35,6-3.49,9.18-9.51,9.49-.45-.49-.89-1-1.35-1.45-.8-3.69-3.46-7.1-1.76-11.19L45,79.71c1.34,2.44,3.61,3,6.14,3A3.73,3.73,0,0,1,54.37,86Z"/><path class="cls-9" d="M54.37,86c-1.09-1.09-2.17-2.18-3.26-3.26,4.61-5.46,7-11.87,7.06-21,3.95,7,5.74,12.22,5.62,18,0,1.08,0,2.16-.08,3.24C59.07,79.31,57.2,84.09,54.37,86Z"/></g></g></svg>