<svg xmlns="http://www.w3.org/2000/svg" viewBox="0 0 344.89 148.94"><defs><style>.cls-1{fill:#b65e72;}.cls-2{fill:#c86372;}.cls-3{fill:#de6e74;}.cls-4{fill:#ea7a78;}.cls-5{fill:#f37578;}.cls-6{fill:#fe8f78;}.cls-7{fill:#fda281;}</style></defs><g id="Calque_2" data-name="Calque 2"><g id="Calque_1-2" data-name="Calque 1"><path class="cls-1" d="M274.88.9c4.64-.09,9.27-.2,13.91-.27,8.13-.13,15.69,1.5,22.46,6.44,8.39,6.12,17.78,9.42,28.33,8.89a9.78,9.78,0,0,1,5.31,1v19c-4.74,10.26-12.7,18.41-18.42,28a2.53,2.53,0,0,1-2.55,1.21c-2.13-.72-2.33-2.62-2.81-4.88-.05,2.15-.1,3.85-1.06,5.33-.77,1.2-1.78,2.06-3.28,1.8a2.47,2.47,0,0,1-1.94-2.6c-.16-3.82-2.9-5.91-5.43-8-4.37-3.61-8.33-7.67-12.73-11.23a23.14,23.14,0,0,1-7.57-9.79c-1.76-4.79-5.22-7.51-9.6-9.55-6.11-2.85-7-4.35-5.83-10.78.58-3.18-1.07-4.94-3-6.9-2.21-2.25-4.05-4.7-.95-7.69A4.13,4.13,0,0,1,274.88.9Z"/><path class="cls-2" d="M242.94,17c7.25-4.17,13.87-9.39,21.45-13a58.58,58.58,0,0,1,5.52-2c-1.84,3.23.91,4.78,2.75,6,3.73,2.41,4.1,5.51,2.48,9-1.79,3.85.28,5.8,3.26,6.9,6,2.23,10.12,5.62,12.76,12C294.56,44,303,48,309.12,54.07c3.47,3.45,9.1,5.59,7.17,12.62,3.28-1.31,3.38-3.28,2.85-5.77-.41-2-.64-4.61,2.16-4.58s1.87,2.52,1.66,4.28a6.76,6.76,0,0,0,1,4.3l-.06.06c-2.56,1.37-3.5,3.86-4.39,6.37-2.38,4-4.79,7.9-7.05,11.93-.77,1.39-1.66,3.48-3.61,2.49s-4.74-1.75-4.47-5.19c.58-7.39-.14-8.22-7.64-9.84-2.35-.51-4.59-1.3-6-3.23-3-4-7.26-5.15-11.78-5.53-6.31-.53-11.17-3.35-15.66-7.74-3.89-3.82-9.23-5.65-14.31-7.52-2.4-.88-4.77-1.41-6-3.89a4.09,4.09,0,0,0-3.06-2.26,4.39,4.39,0,0,1-3.58-5.24C237.35,28.84,238.79,22.4,242.94,17Z"/><path class="cls-3" d="M183,38c8.38-2.5,15.52-7.25,22.2-12.65A19.42,19.42,0,0,1,219.9,20.9l10,.05c-.55,3.63-.69,7.16-2.18,10.85-1.07,2.66.68,7.74,4.38,10.19a39.37,39.37,0,0,1,11.09,11.84c1.69,2.62,3.62,4.39,6.53,4.81,3.74.53,5,2.83,5.17,6.18a15,15,0,0,0,2.88,8.37c2.72,3.57,2.05,6.06-2,7.78-3.76,1.6-5,3.37-.62,5.89,1.12.64,1.84,1.94,2.91,2.71,3.17,2.26,4,4.94,1.8,8.32-6.58,1-13.16.5-19.76.18-5.31-.25-10.37-.64-15-3.84-4.36-3-4.66-4.21-.51-7.3,2.78-2.07,2.1-7.5-1.63-8.87-5.79-2.11-11.08-5.28-16.83-7.37-3.51-1.27-6.74-2.77-9.33-5.5a20.13,20.13,0,0,0-7-4.64c-5.25-2.19-6.76-5-6.45-11C184.74,45.66,184,41.8,183,38Z"/><path class="cls-4" d="M184.92,48.94c-.44,5.53,1.29,9.49,7.42,10.34a2.89,2.89,0,0,1,1.79.83c4.88,6.68,13,8,19.54,12,2.46,1.51,5.2,2.11,7.89,3,2.9.94,5.85,1.64,6.51,5.82.78,4.88,1.81,9.08-6,8.9,5.68,2.07,9.26,6.07,15.59,6.86,7.47.92,14.85.71,22.25,1.2,2.27.72,4.9-1.43,7,.88-8.15.08-16.31.39-24.46.16a41.16,41.16,0,0,0-20.57,4.91c-6.91,3.59-14.15,6.42-22,7.18a6.8,6.8,0,0,0-4,1.86c-1.32,1.6-2.92,1.58-4.64.83-2.54-3.51-3.06-8-6.73-11.17-2.58-2.19-4.84-3.53-8.2-3.71-4.2-.21-8.76.2-11.88-3.7-.78-3.75,1.71-5.06,4.59-5.82a29.2,29.2,0,0,1,7.34-1.17c3.91,0,5.47-2.41,6.77-5.47.67-1.56.8-2.65-.77-3.82-3.69-2.74-4.65-7-4.51-11.09a100.7,100.7,0,0,0-.46-12.29C176.81,49.83,180,47.3,184.92,48.94Z"/><path class="cls-5" d="M115,70l9.94-6.12c2.48-1.93,4.87-4,7.95-5l0,0c9.92-6.54,20.7-11.38,31.73-15.68a14.31,14.31,0,0,1,6.23-1.33L183,38c4.93,2.89,4,6.84,2,11-5.66,1.08-7,2.8-5.67,8.08.84,3.24,1.61,6.07.21,9.57-1.48,3.7,2.81,10.22,6.45,11,2.09.44,2,1.59.94,2.78a18.13,18.13,0,0,0-3.47,6.56c-.77,2.15-2.36,2.94-4.64,3-3.13.15-6.25.69-9.39,1a4.42,4.42,0,0,0-4.41,4c-2.77-.2-2.35-2.39-2.3-4.06a16.75,16.75,0,0,1,2.79-8.66c-7.26-1.23-13.67.22-20,1.93s-12.3,4-18.71,5.33c-5.69,1.14-10.95-.2-16.22-1.5-4.53-1.12-4.71-9.23-.37-13C111.91,73.38,113.89,72.14,115,70Z"/><path class="cls-6" d="M115,70c.18,2.71-1.71,4.26-3.44,5.78a8,8,0,0,0-2.66,6.66c0,2.94,1,3.11,4,4.1,12.16,3.94,22.35-1.93,33.22-4.77C152.9,80,159.78,79,166.8,79.93c1,.13,2.21-.13,2.46,1.13.22,1.1-.76,1.75-1.54,2.36-4,3.09-3.79,7.19-2.78,11.48a33.11,33.11,0,0,0,12.66,2c3.61-.16,6.57.77,8.09,4.44.24.59.61,1.45,1.1,1.6,5.46,1.66,4.48,6,4.23,10-9.33,7.86-17.89,16.55-26.52,25.15-1.26,1.26-3,2-4.56,3-9.3.52-18.13,3.15-27,5.82-7.36,2-14.83,1.06-22.22.55-2.89-.2-4.35-3.2-4.22-6,.22-4.61-.05-9.19.77-13.87,1.39-8,.89-16.26.19-24.4-.34-3.83-2.53-5.37-6.42-5.21-10.56.45-19.69,4.92-28.12,10.58-5.47,3.66-11.45,6-17.25,8.83-2.8,1.36-6.23,2.06-8.17-1.87-1.57-3.18-.35-6.82,3.2-8.93q2.15-1.28,4.23-2.63C76,94.34,95,81.31,115,70Z"/><path class="cls-7" d="M55,103.93a43,43,0,0,1-4.36,4.76c-2.34,1.92-2.76,4.2-1.41,6.59,1.62,2.87,4.49,1.9,6.64,1,5.87-2.39,10.76-6.48,16.12-9.76,9.8-6,19.94-11.28,32-10.68,2.75.13,4.5,1,4.9,3.78,1.48,10.38,2.08,20.74-.3,31.09-.92,4,.17,8.12-.12,12.21-.18,2.56,3,4,6,4,6.16-.08,12.32,0,18.48,0a2.14,2.14,0,0,1-2,2l-46-.16C84.14,146.32,82,147,80.32,147c-8.32-.06-16.64,0-25,0a14.94,14.94,0,0,1-4-.2c-1.92-.54-4-1.42-4.76-3.3-.8-2.09,1.37-3.57,2.75-4.23,7.5-3.63,9.95-11.76,15.61-17,1.7-1.57,3-4.17,1.33-6.29s-4-.57-5.92.33c-17.6,8.21-35,17-54,21.71-2,.5-4.37,2.21-5.91-.13-1.37-2.09.25-4.55,1.63-5.87,4.83-4.61,8.68-10.48,15.68-12.48,10-2.85,18.65-8.72,28.26-12.47A89.41,89.41,0,0,1,55,103.93Z"/></g></g></svg>